<?xml version="1.0" encoding="utf-8"?>
<!-- Generator: Adobe Illustrator 19.2.0, SVG Export Plug-In . SVG Version: 6.00 Build 0)  -->
<svg version="1.1" id="Layer_1" xmlns="http://www.w3.org/2000/svg" xmlns:xlink="http://www.w3.org/1999/xlink" x="0px" y="0px"
	 viewBox="0 0 164.8 183.9" style="enable-background:new 0 0 164.8 183.9;" xml:space="preserve">
<style type="text/css">
	.st0{fill:#2C2C2C;}
</style>
<title>salmonLogoOne</title>
<g id="Layer_2">
	<path class="st0" d="M111.7,25.3L111.7,25.3c-0.3-0.1-0.5-0.1-0.8,0l0,0c0.4,0.2,0.9,0.4,1.4,0.5c0.5,0.1,0.9,0.2,1.3,0.3l1.3,0.3
		l1.3,0.3c0.8,0.3,1.7,0.6,2.5,0.9s1.7,0.6,2.5,0.9l0,0c0.1,0.1,0.3,0.1,0.4,0.2h-0.1c0.3,0.2,0.6,0.3,0.9,0.5l2.7,1.5
		c0.5,0.2,0.9,0.5,1.3,0.8c0.5,0.2,0.9,0.5,1.3,0.8l2.7,1.8c0.4,0.3,0.8,0.5,1.2,0.8c0.4,0.3,0.9,0.6,1.3,0.9l-0.1-0.1
		c0.5,0.5,1.1,0.9,1.6,1.4l1.6,1.3c1.2,1,2.3,2,3.4,3c0.7,0.7,1.4,1.3,2.2,2.1s1.6,1.5,2.4,2.3l2.3,2.3c0.2,0.2,0.3,0.4,0.5,0.6
		s0.3,0.4,0.5,0.6c0.4,0.4,0.7,0.8,1,1.2l-0.1-0.1l2.3,2.9l0,0c0.5,0.7,1,1.3,1.5,2s1.1,1.4,1.6,2.1c0.7,0.9,1.3,1.8,1.8,2.8
		c0.5,0.9,1,1.9,1.4,2.9l0,0c0.2,0.5,0.4,1,0.6,1.6c0.4,1,0.7,2,1,3c0.3,1.1,0.7,2.1,1.1,3.1c0.4,1,0.7,2.1,1,3.1
		c0.1,0.5,0.2,0.9,0.3,1.4c0.1,0.5,0.3,1,0.4,1.5l0.6,3c0.2,1,0.4,2.1,0.6,3.1c0.1,0.6,0.2,1.1,0.3,1.6c0,0.5,0.1,1.1,0.2,1.6
		c0.1,1,0.2,2,0.4,3v-0.2c0.1,0.9,0.2,1.7,0.2,2.6c0.1,0.9,0.1,1.8,0.1,2.7v4.2c-0.6,0-1.1-0.1-1.8-0.1s-1.5-0.1-2.2-0.1
		c-1.5-0.1-2.9-0.1-4.4-0.3l0,0c-0.4,0-0.7-0.1-1.1-0.1c-0.4,0-0.7-0.1-1.1-0.1c-0.6-0.1-1.3-0.1-1.9-0.2c-0.3,0-0.7-0.1-1-0.2
		c-0.4-0.1-0.7-0.2-1-0.3c-0.6-0.2-1.3-0.5-1.9-0.7c-0.3-0.1-0.6-0.2-0.9-0.4c-0.3-0.2-0.6-0.3-0.9-0.5c-0.6-0.3-1.2-0.7-1.8-1
		l-0.6-0.3c-0.3-0.2-0.6-0.3-0.9-0.3H142c-0.3,0-0.5,0.1-0.7,0.3c-0.2,0.3-0.3,0.7-0.1,1l0.4,0.4c0,0.1,0.1,0.2,0.2,0.2
		c0.1,0.2,0.3,0.4,0.5,0.5c0.1,0.2,0.3,0.4,0.5,0.6c0.2,0.2,0.3,0.4,0.5,0.6c0.4,0.4,0.8,0.7,1.2,1c0.4,0.3,0.8,0.5,1.2,0.8
		c0.2,0.2,0.5,0.3,0.7,0.5c0.2,0.1,0.3,0.2,0.5,0.3c0.9,0.5,1.9,0.8,2.9,1.1c0.5,0.1,0.9,0.3,1.4,0.4s1,0.2,1.4,0.3l1.3,0.3
		c0.5,0,0.9,0.1,1.4,0.1h1.4c0.5-0.1,1-0.1,1.5-0.1h1.5c0.5,0.1,1,0.1,1.5,0.1h0.3c-0.5,0.3-1,0.6-1.6,0.8c-0.9,0.4-1.8,0.6-2.8,0.8
		c-1.1,0.1-2.1,0.1-3.2,0.1h-1.6c-0.5,0-1,0-1.5-0.1c-0.7-0.1-1.4-0.3-2.1-0.4s-1.4-0.3-2.1-0.4c-1-0.2-2-0.3-3-0.6
		c-1-0.2-2-0.5-2.9-0.9c-1-0.4-2-0.8-3-1c-0.4-0.1-0.9-0.2-1.4-0.3c-0.5-0.1-1-0.3-1.5-0.5c-0.4-0.1-0.8-0.3-1.2-0.5
		c-0.5-0.2-0.9-0.4-1.4-0.6l0,0c-0.8-0.3-1.5-0.6-2.2-0.9s-1.5-0.6-2.2-0.9c-0.3-0.2-0.7-0.4-1-0.5s-0.7-0.3-1-0.4l0,0l-1.2-0.6
		c-0.4-0.2-0.7-0.4-1.2-0.7s-0.9-0.6-1.4-0.9c-0.2-0.2-0.5-0.4-0.7-0.6c-0.8-0.6-1.5-1.3-2.2-2c-0.7-0.7-1.4-1.5-2.1-2.2
		s-1.3-1.5-1.9-2.2c-0.3-0.5-0.6-0.9-1-1.5s-0.7-1.1-1.1-1.7c-0.6-1.1-1.2-2.2-1.7-3.3l-0.6-2.1c-0.1-0.6-0.3-1.3-0.4-2v-4.4
		c-0.1-1.6,0-3.1,0.1-4.7l0.3-1.5c0.1-0.5,0.2-1.1,0.4-1.6c0.1-0.5,0.2-1,0.4-1.5c0.2-0.6,0.4-1.1,0.6-1.6c0.4-0.8,0.8-1.5,1.2-2.3
		c0.4-0.7,0.8-1.4,1.3-2.1c0.4-0.6,0.9-1.2,1.4-1.8c0.5-0.6,0.9-1.2,1.4-1.8c0.2-0.3,0.4-0.6,0.7-0.8c0.1-0.1,0.3-0.2,0.4-0.3
		c0.5-0.3,1.1-0.7,1.6-1c0.5-0.4,1.1-0.7,1.7-0.9c0.5-0.2,1-0.3,1.5-0.5l1.5-0.3c0.6-0.1,1.2-0.1,1.8-0.1c0.6-0.1,1.3-0.1,1.9-0.1
		c1.3-0.1,2.5-0.1,3.8,0l0,0l-2.7-0.3c-1.1-0.1-2.1-0.2-3.1-0.2H125c-0.6,0.1-1.1,0.1-1.6,0.2s-1,0.3-1.5,0.4
		c-0.5,0.1-1,0.3-1.4,0.5c-0.5,0.2-1,0.4-1.5,0.7c-0.4,0.3-0.9,0.5-1.3,0.8c-0.3,0.2-0.6,0.4-0.8,0.6c-0.3,0.2-0.7,0.6-0.9,0.9
		l-0.9,1.2c-0.3,0.4-0.7,0.8-1,1.2l-0.6,0.6c-0.2,0.2-0.4,0.4-0.6,0.7c-0.6,0.9-1.1,1.7-1.6,2.7s-0.9,2-1.3,3
		c-0.2,0.4-0.4,0.9-0.5,1.4c-0.2,0.4-0.3,0.9-0.4,1.4c-0.1,0.5-0.2,0.9-0.3,1.4c-0.1,0.5-0.2,1.1-0.2,1.6c-0.1,1-0.1,2.1-0.1,3.1
		v5.4c0,0.3,0,0.6,0.1,0.9l0.3,1.5c0.1,0.5,0.2,1,0.4,1.5c0.2,0.5,0.5,1.2,0.7,1.6s0.3,0.9,0.6,1.3s0.5,0.9,0.8,1.3
		c0.2,0.5,0.5,1,0.8,1.4c0.5,0.9,1.1,1.8,1.8,2.6c0.3,0.4,0.6,0.8,1,1.2c0.3,0.4,0.7,0.7,1,1.1c0.3,0.4,0.6,0.7,0.9,1
		c-0.1-0.1-0.1-0.1-0.2-0.1c-0.5-0.2-1-0.4-1.5-0.5l0,0l0.6,0.3l0,0c0.4,0.2,0.7,0.4,1.1,0.5c0.1,0,0.3,0.1,0.4,0.2
		c0.3,0.2,0.6,0.5,0.9,0.8c0.4,0.3,0.8,0.7,1.2,1c0.3,0.3,0.7,0.6,1.1,0.9c0.8,0.7,1.7,1.3,2.6,1.8c0.9,0.5,1.8,1,2.8,1.5
		c0.5,0.2,0.9,0.4,1.4,0.6c0.2,0.1,0.5,0.2,0.7,0.3c0.2,0,0.5,0.1,0.7,0.2c0.8,0.3,1.6,0.6,2.4,0.8c0.1,0,0.2,0.1,0.3,0.1
		c0.5,0.2,0.9,0.4,1.4,0.6c0.5,0.3,1,0.5,1.5,0.7c0.5,0.2,1,0.4,1.5,0.5c0.4,0.1,0.8,0.1,1.4,0.3c0.6,0.2,1.1,0.3,1.6,0.5
		c0.5,0.1,0.9,0.3,1.4,0.5c0.5,0.1,1,0.3,1.5,0.4c1,0.2,2,0.5,3,0.7l1.5,0.3c0.6,0.1,1.1,0.2,1.6,0.3c1,0.2,2,0.4,3.1,0.5
		c1.1,0.1,2.1,0.1,3.2,0.1c1.1,0,2.1,0,3.2-0.2c1.1-0.1,2.1-0.4,3.1-0.9c0.4-0.2,0.9-0.5,1.3-0.7c0.4-0.2,0.8-0.5,1.2-0.8l0.6-0.6
		c0.2-0.2,0.4-0.5,0.5-0.7c0.4-0.6,0.6-1.3,0.7-2c0.1-0.3,0.1-0.6,0.1-0.9v-4.6c0-1,0-2.1-0.1-3.1c-0.1-0.5-0.1-1.1-0.2-1.7
		c0-0.5-0.1-1-0.2-1.5c0-0.5-0.1-1-0.2-1.5c-0.1-0.6-0.1-1.1-0.2-1.6c-0.1-1.1-0.4-2.1-0.6-3.2c-0.1-0.6-0.2-1.1-0.3-1.6l-0.3-1.5
		l-0.3-1.5c-0.1-0.5-0.3-1.1-0.4-1.6s-0.2-0.9-0.3-1.4c-0.1-0.5-0.2-1.1-0.4-1.6c-0.4-1.1-0.7-2.2-1.1-3.1c-0.4-0.9-0.6-1.8-1-2.8
		c-0.4-1-0.7-2-1.1-3c-0.4-1-0.8-2.1-1.3-3s-1-1.9-1.6-2.8c-0.6-0.9-1.2-1.7-1.9-2.5c-0.6-0.7-1.1-1.4-1.6-2.1
		c-0.5-0.8-1.1-1.5-1.7-2.2l0.1,0.1c-0.5-0.7-1-1.3-1.5-2c-0.5-0.7-1-1.3-1.6-1.9c-0.6-0.6-1.2-1.1-1.8-1.7
		c-0.6-0.6-1.1-1.2-1.7-1.7c-0.4-0.3-0.8-0.7-1.2-1.1c-0.5-0.4-0.9-0.8-1.3-1.2c-0.3-0.4-0.7-0.8-1.1-1.1c-0.4-0.3-0.8-0.7-1.2-1
		l-2.4-2.1c-0.4-0.4-0.8-0.7-1.2-1.1c-0.3-0.3-0.7-0.6-1.1-0.9c-0.4-0.4-0.8-0.7-1.3-1c-0.5-0.3-1-0.6-1.4-0.9s-0.7-0.5-1.2-0.8
		s-0.9-0.6-1.4-0.9c-0.9-0.6-1.9-1.2-2.8-1.7c-0.4-0.2-0.8-0.5-1.3-0.7c-0.4-0.3-0.8-0.5-1.3-0.7l-1.5-0.6c-0.4-0.1-0.9-0.3-1.4-0.4
		c-1.1-0.3-2.1-0.6-3.1-0.9l-1.6-0.3c-0.5,0-1-0.1-1.5-0.2l-1.7-0.3C112.2,25.4,112,25.4,111.7,25.3L111.7,25.3z M121.4,49.6
		L121.4,49.6z M150.3,53.1L150.3,53.1z M150.4,53.2L150.4,53.2z M153.2,54.8L153.2,54.8z M131.8,98.6L131.8,98.6z M131.8,98.6
		L131.8,98.6z M159.9,102.9L159.9,102.9z M150.7,103.8L150.7,103.8z"/>
	<path class="st0" d="M154.9,99.9L154.9,99.9c-0.2,0-0.4,0.1-0.6,0.2c-0.2,0-0.4,0-0.5,0.1c-0.2,0.1-0.3,0.3-0.3,0.6
		c0,0.3,0.3,0.6,0.6,0.5h0.4c0.1,0,0.3,0.1,0.4,0.1v0.1c0,0.3,0.1,0.5,0.3,0.7c0.2,0.1,0.4,0.2,0.6,0.2c0.2,0,0.3,0.1,0.5,0.1
		c0.4,0,0.7,0.1,1,0.1h5c0.2,0,0.4,0,0.6-0.1c0.3-0.1,0.5-0.4,0.5-0.7l0,0c0,0,0,0,0,0c0-0.4-0.3-0.7-0.7-0.7H162
		c-0.1-0.2-0.2-0.3-0.4-0.3h-1.1c-0.4,0-0.8,0-1.2-0.1h0.1c-0.6-0.1-1.1-0.2-1.7-0.2c-0.3-0.1-0.5-0.1-0.8-0.2s-0.7-0.1-1-0.2
		C155.6,100,155.2,99.9,154.9,99.9L154.9,99.9z"/>
	<path class="st0" d="M100.2,21.9L100.2,21.9c-0.4-0.1-0.8-0.1-1.1,0.1h-4.8c-1.1,0-2.2,0.1-3.1,0.1s-1.9,0-2.9,0.1s-2,0.2-3,0.2
		l0,0c1,0.1,2,0.1,3,0.2c2,0,3.9,0.1,5.9,0.2c0.6,0,1.1,0.1,1.6,0.1h1.5c1,0.1,2,0.1,3,0.2c0.8,0.1,1.6,0.2,2.4,0.4
		c0.4,0,0.8,0.1,1.2,0.2l1.3,0.3c0.8,0.2,1.7,0.5,2.5,0.7l2.4,0.6c0.5,0.2,1,0.3,1.5,0.4l1.5,0.3c1,0.2,2,0.3,3,0.6
		c0.5,0.1,0.9,0.2,1.4,0.4c0.4,0.2,0.9,0.4,1.4,0.5c0.4,0.1,0.9,0.2,1.4,0.3c0.3,0.1,0.6,0.1,0.8,0.2c0.2,0,0.4,0.1,0.6,0.2h-0.1
		c0.3,0.2,0.6,0.4,1,0.5c0.4,0.1,0.7,0.3,1.1,0.4l0,0c0.3,0.1,0.5,0.2,0.8,0.3l0,0c0.4,0.2,0.9,0.4,1.4,0.6l0,0
		c-0.7-0.3-1.3-0.6-1.9-1c-0.7-0.3-1.3-0.6-1.9-1c-0.3-0.2-0.6-0.4-1-0.5c-0.4-0.1-0.7-0.2-1-0.3c-0.7-0.2-1.3-0.4-1.9-0.7h0.1
		c-0.7-0.3-1.4-0.6-2.1-0.8l-2.3-0.6l-2.2-0.6l-2.3-0.6c-0.5-0.1-1-0.3-1.5-0.4s-1-0.3-1.5-0.4c-0.5-0.2-1.1-0.3-1.6-0.4l-1.5-0.3
		l-1.4-0.3C101.3,22,100.8,22,100.2,21.9L100.2,21.9z M124.3,29.3L124.3,29.3z M123.5,29L123.5,29z"/>
	<path class="st0" d="M85.9,21.8L85.9,21.8c-0.9,0-1.9-0.1-2.8-0.3h-0.3c-1,0.1-2.1,0.2-3.1,0.4h0.1c-1.4,0.2-2.8,0.4-4.2,0.7
		c-0.7,0.1-1.3,0.2-2,0.4c-0.3,0-0.7,0.1-1,0.2c-0.3,0-0.6,0.1-0.9,0.2c-1,0.3-2,0.7-2.9,1s-1.9,0.5-2.9,0.9s-2,0.8-3,1.3
		c-0.5,0.3-1,0.6-1.4,0.8s-0.9,0.4-1.3,0.6h0.1c-0.2,0-0.4,0.1-0.6,0.2l0,0c-1.1,0.5-2.2,0.9-3.3,1.3l-1.8,0.6
		c-0.5,0.2-1.1,0.5-1.6,0.7c-0.4,0.1-0.8,0.2-1.1,0.4c-0.4,0.2-0.7,0.4-1.1,0.6c-0.7,0.3-1.4,0.7-2,1.2c-0.3,0.3-0.6,0.5-0.9,0.7
		c-0.3,0.2-0.7,0.4-1,0.6c-0.6,0.4-1.2,0.9-1.8,1.4c-0.8,0.7-1.6,1.3-2.4,2c-0.4,0.4-0.8,0.7-1.2,1.1l-1,1c-0.3,0.4-0.7,0.7-1.1,1
		c-0.4,0.4-0.9,0.7-1.2,1.1s-0.7,0.7-1,1.1c-0.3,0.4-0.6,0.8-0.8,1.2l0,0c0.2-0.2,0.3-0.5,0.5-0.7l0,0c0.5-0.5,1-1,1.5-1.4
		c0.5-0.3,0.9-0.7,1.4-1l1.4-1.1c0.4-0.4,0.8-0.8,1.3-1.1l1.3-1L45,37c0.6-0.5,1.2-0.9,1.8-1.3c0.3-0.3,0.6-0.5,1-0.7
		c0.3-0.2,0.6-0.3,0.9-0.5c1.2-0.8,2.5-1.6,3.9-2.2l0.9-0.3c0.3-0.1,0.7-0.3,1-0.4c0,0.1-0.1,0.1-0.2,0.1c0.1-0.1,0.3-0.1,0.4-0.2
		c0.4-0.2,0.9-0.4,1.3-0.5c0.5-0.1,1-0.2,1.4-0.4c0.8-0.3,1.6-0.7,2.4-1c0.9-0.3,1.8-0.7,2.6-1.2c0.8-0.4,1.7-0.8,2.5-1.2l2.7-0.9
		c0.5-0.1,1-0.3,1.4-0.4s0.8-0.2,1.3-0.4s1-0.3,1.5-0.5c0.5-0.2,1-0.3,1.5-0.4c1-0.2,2-0.5,3-0.7l3-0.6l1.5-0.3l1.5-0.3
		c0.3,0,0.5-0.1,0.8-0.1c0.5-0.1,1-0.1,1.5-0.1h1.5c1,0,2-0.1,3-0.1h3c0.5,0.1,1.1,0.1,1.6,0.1c0.7,0,1.3,0,2,0.1l0,0
		c0.3,0.1,0.5,0.1,0.8,0.2l0,0l-1.1-0.3c-0.3,0-0.4-0.1-0.7-0.1s-0.7-0.1-1-0.1c-0.6-0.1-1.2-0.1-1.8-0.2c-1-0.1-1.9-0.2-2.9-0.2
		C87.9,21.9,86.9,21.8,85.9,21.8L85.9,21.8z M65,27.5L65,27.5z M44,38.1L44,38.1z M38.5,42.4L38.5,42.4z M79.7,22.1L79.7,22.1z"/>
	<path class="st0" d="M48.3,34.3L48.3,34.3C48.3,34.3,48.3,34.3,48.3,34.3c-0.3,0.1-0.3,0.5-0.2,0.7l0,0c-0.5,0.3-1.1,0.7-1.4,0.9
		s-0.7,0.5-1,0.7c-0.6,0.5-1.2,1-1.7,1.5s-1.1,1-1.6,1.5s-1.1,1-1.7,1.5c0,0,0,0,0,0c0-0.1,0-0.1,0.1-0.1c-1,0.7-1.9,1.4-2.8,2.2
		c-0.7,0.4-1.3,0.9-1.9,1.4c-0.6,0.5-1.2,1.1-1.8,1.6l-1.8,1.5c-0.3,0.3-0.6,0.5-0.9,0.8c-0.3,0.2-0.6,0.5-0.8,0.8l-2.1,2.4
		c-0.3,0.4-0.7,0.7-1,1.1c-0.4,0.4-0.8,0.9-1.1,1.4c-0.3,0.4-0.6,0.9-0.9,1.3l-0.9,1.2l-1,1.3c-0.2,0.4-0.5,0.8-0.8,1.2
		c-0.6,0.8-1.1,1.7-1.6,2.6c-0.3,0.4-0.5,0.9-0.7,1.4c-0.2,0.4-0.4,0.9-0.7,1.4c-1.1,1.9-2,3.9-2.8,5.9c-0.8,1.9-1.5,3.9-2.2,5.9
		c-0.1,0.5-0.3,1-0.5,1.5c-0.2,0.6-0.4,1.1-0.6,1.6s-0.4,1-0.5,1.5s-0.3,0.9-0.4,1.4c-0.4,1-0.7,2.1-0.9,3.1c-0.3,1-0.4,2-0.6,3
		c-0.1,0.6-0.2,1.1-0.2,1.7c0,0.5-0.1,1.1-0.1,1.6c-0.1,1-0.1,2.1-0.1,3.1v9.6c0,1,0,2,0.1,3c0.1,0.6,0.2,1.1,0.3,1.7l0.3,1.5
		c0.1,0.6,0.3,1.2,0.4,1.6s0.3,0.9,0.4,1.4c0.3,1,0.7,2,1.1,3s1,1.9,1.4,2.8c0.3,0.5,0.5,1.1,0.7,1.7c0.2,0.6,0.4,1.1,0.6,1.7
		c0.2,0.5,0.4,1.1,0.6,1.6c0.1,0.3,0.3,0.5,0.5,0.8c0.2,0.3,0.5,0.5,0.7,0.8l0,0l-0.1-0.1l0,0c-0.4-0.4-0.6-0.8-0.8-1.3l0,0
		c-0.2-0.6-0.4-1.3-0.6-1.9c-0.1-0.7-0.3-1.3-0.5-2c-0.2-0.7-0.3-1.3-0.6-1.9s-0.5-1.2-0.8-1.8c-0.3-0.8-0.6-1.5-0.8-2.3
		c-0.2-0.7-0.4-1.5-0.6-2.2c-0.2-0.8-0.4-1.5-0.5-2.3c-0.1-0.4-0.1-0.8-0.2-1.2s-0.2-0.6-0.2-1.1s-0.1-1-0.1-1.5v-14
		c0-1,0.1-2.1,0.2-3.1c0.1-0.7,0.2-1.3,0.3-2c0.1-0.7,0.2-1.3,0.4-2c0.3-1.4,0.8-2.8,1.2-4.2c0.3-1,0.7-2,1.1-2.9
		c0.4-1,0.7-2.1,1.1-3.1c0.2-0.5,0.3-1,0.5-1.5c0.1-0.5,0.3-1,0.5-1.5c0.3-1,0.7-1.9,1.1-2.9v0.1c0.4-0.9,0.8-1.9,1.3-2.8
		s1-1.8,1.4-2.7c0.2-0.5,0.5-0.9,0.7-1.4c0.2-0.5,0.4-0.9,0.7-1.3c0.3-0.5,0.6-0.9,0.9-1.4c0.2-0.4,0.5-0.8,0.8-1.2
		c0.6-0.8,1.3-1.6,1.9-2.5c0.3-0.4,0.5-0.8,0.8-1.2c0.2-0.4,0.5-0.8,0.8-1.2l0.4-0.4c0.7-0.8,1.4-1.5,2.1-2.3c0.3-0.3,0.6-0.7,1-1.1
		c0.3-0.4,0.7-0.7,1.1-1l2.4-2.1l1.1-1.1c0.3-0.4,0.7-0.7,1.1-1c0.4-0.3,0.8-0.6,1.2-1c0.4-0.3,0.7-0.7,1.1-1
		c0.8-0.7,1.6-1.4,2.4-2.2c0.3-0.4,0.6-0.7,1-1.1s0.8-0.9,1.2-1.3l1.2-1.2c0.4-0.4,0.8-0.7,1.2-1l0,0c0.2-0.1,0.5-0.3,0.7-0.5
		c0.3-0.2,0.5-0.4,0.7-0.7C48.1,34.6,48.2,34.4,48.3,34.3L48.3,34.3z M28.2,53.8C28.1,53.8,28.1,53.9,28.2,53.8
		C28.1,53.9,28.1,53.8,28.2,53.8L28.2,53.8z M14.5,117L14.5,117z"/>
	<path class="st0" d="M11.9,98.1L11.9,98.1c-0.1,0.9,0,1.7,0.1,2.6v2.4c0.1,1.7,0.2,3.3,0.3,5c0.1,1.1,0.2,2.1,0.4,3.2
		c0.1,1,0.3,2.1,0.6,3.1c0.2,1.1,0.5,2.3,0.7,3.3s0.5,2,0.8,3s0.7,2,1.1,3c0.4,1,0.9,1.9,1.4,2.9c0.2,0.4,0.5,0.9,0.7,1.4
		c0.2,0.5,0.4,1,0.7,1.5c0.3,0.5,0.6,1.1,0.8,1.5s0.5,0.9,0.7,1.3c0.1,0.2,0.2,0.5,0.4,0.7c0.1,0.3,0.2,0.5,0.4,0.7
		c0.4,0.4,0.7,0.9,1,1.4c0.3,0.4,0.6,0.9,0.9,1.3c0.2,0.5,0.5,0.9,0.8,1.3c0.6,0.9,1.3,1.8,1.9,2.7c0.3,0.4,0.6,0.9,0.9,1.3
		c0.3,0.4,0.7,0.9,1,1.3c0.7,0.9,1.3,1.8,2,2.7c0.3,0.5,0.7,1,1.1,1.4c0.3,0.4,0.7,0.8,1.1,1.1c0.8,0.8,1.5,1.5,2.3,2.2
		c0.8,0.7,1.7,1.4,2.6,2l0,0c0.4,0.3,0.8,0.7,1.2,1s0.8,0.8,1.2,1.1c0.4,0.3,0.8,0.7,1.2,1.1c0.4,0.3,0.8,0.7,1.2,1
		c0.8,0.7,1.7,1.4,2.5,2.1c0.4,0.4,0.9,0.8,1.3,1.1s0.9,0.6,1.3,0.9c0.4,0.4,0.8,0.7,1.3,1c0.7,0.6,1.4,1.1,2.1,1.5
		c1.1,0.6,2.3,1,3.4,1.5h-0.1c0.5,0.2,1,0.4,1.4,0.6c0.5,0.2,1,0.5,1.4,0.8c0.4,0.3,0.9,0.6,1.3,0.9l0,0c-0.9-0.8-1.9-1.6-3-2.2
		c-0.4-0.3-0.9-0.6-1.4-0.8c-0.4-0.2-1-0.5-1.3-0.6s-0.5-0.3-0.8-0.4c-0.5-0.2-0.9-0.5-1.3-0.8h-0.1c-0.5-0.4-1.1-1-1.5-1.3
		s-0.7-0.6-1.1-0.9c-0.7-0.6-1.4-1.3-2.1-1.9l-2.3-2c-0.8-0.7-1.7-1.5-2.5-2.3c-0.7-0.8-1.5-1.5-2.3-2.1c-0.8-0.6-1.7-1.2-2.5-1.8
		c-0.5-0.3-0.9-0.7-1.3-1.1l-1.2-1.2L32,147l-0.6-0.6c-0.1-0.2-0.3-0.4-0.5-0.6c-0.1-0.2-0.3-0.4-0.4-0.6c-0.6-0.9-1.3-1.7-1.9-2.6
		l-0.9-1.2l-0.9-1.2c-0.7-0.9-1.3-1.7-1.9-2.6c-0.3-0.5-0.6-0.9-0.9-1.4c-0.2-0.2-0.4-0.5-0.5-0.7s-0.3-0.4-0.4-0.6
		c-0.6-0.9-1.2-1.6-1.7-2.6s-1.1-1.9-1.6-2.9s-0.9-2-1.4-2.9s-1-1.9-1.5-2.9c-0.3-0.7-0.6-1.4-0.9-2.3c-0.3-0.9-0.5-1.7-0.8-2.7
		s-0.6-2-0.8-3.1s-0.5-2.1-0.8-3.2s-0.5-2.1-0.7-3.2c-0.1-0.5-0.1-1-0.2-1.5c0-0.5-0.1-1.1-0.2-1.6v0.1c0-0.4-0.1-0.7-0.1-1.1v0.1
		l-0.3-3.3C12,100.5,12,99.3,11.9,98.1L11.9,98.1z M17.1,123.7L17.1,123.7z M35,149.7L35,149.7z M36.4,152.2
		C36.4,152.3,36.5,152.3,36.4,152.2C36.5,152.3,36.4,152.3,36.4,152.2L36.4,152.2z M49.5,162L49.5,162z"/>
	<path class="st0" d="M51.5,93.1L51.5,93.1c-0.3,0.1-0.6,0.2-0.9,0.4c-0.2,0.1-0.3,0.2-0.5,0.3c-0.4,0.3-0.9,0.6-1.3,0.9
		c-0.2,0.1-0.4,0.3-0.6,0.5c-0.2,0.2-0.3,0.4-0.5,0.6c-0.3,0.4-0.6,0.8-0.9,1.2c-0.3,0.4-0.5,0.8-0.8,1.2s-0.5,0.9-0.8,1.3
		s-0.6,0.9-0.9,1.3c-0.6,0.8-1.2,1.7-1.7,2.6c-0.5,0.9-1,1.8-1.4,2.7c-0.3,0.5-0.5,1-0.7,1.5c-0.2,0.4-0.4,0.9-0.5,1.4
		c-0.3,0.9-0.6,1.9-0.8,2.8l-0.6,3c-0.1,0.6-0.2,1.2-0.3,1.7s-0.1,0.9-0.2,1.4c-0.1,1.1-0.2,2.1-0.3,3.1c0,0.5-0.1,1-0.1,1.5v4.6
		c0,1,0.1,2.1,0.3,3.1c0.1,1,0.4,1.9,0.6,2.9l0.6,3c0.1,0.2,0.1,0.5,0.2,0.7c0.1,0.2,0.1,0.5,0.2,0.7l0.6,1.5v-0.1
		c0.6,1.4,1.1,2.9,1.7,4.3c0.3,0.8,0.6,1.6,1,2.3c0.3,0.7,0.7,1.4,1.1,2.1c0.3,0.4,0.5,0.8,0.7,1.3c0.3,0.4,0.5,0.9,0.8,1.3
		c0.3,0.4,0.6,0.9,0.8,1.3c0.3,0.4,0.5,0.9,0.8,1.3l1.8,2.7c0.6,0.9,1.3,1.8,2,2.6c0.7,0.8,1.4,1.5,2.1,2.3c0.4,0.4,0.7,0.8,1.1,1.2
		c0.3,0.4,0.7,0.8,1.1,1.1c0.8,0.7,1.6,1.3,2.4,2c0.4,0.3,0.8,0.7,1.2,1l1.2,0.9l0,0c0.4,0.3,0.7,0.6,1,0.9c0.2,0.1,0.3,0.2,0.4,0.4
		l0.6,0.6l0,0l-0.2-0.2l0,0c-0.2-0.3-0.5-0.7-0.8-1.1c-0.3-0.4-0.6-0.7-1-1c-0.4-0.3-0.8-0.6-1.1-1c-0.4-0.3-0.8-0.7-1.1-1.1
		c-0.3-0.4-0.6-0.7-1-1c-0.4-0.3-0.8-0.7-1.1-1.1c-0.7-0.8-1.4-1.7-2.1-2.5c-0.7-0.7-1.4-1.5-2-2.3c-0.7-0.9-1.4-1.9-2-2.8
		c-0.3-0.4-0.5-0.9-0.8-1.3c-0.3-0.4-0.6-0.9-0.8-1.3c-0.3-0.5-0.5-1-0.8-1.4s-0.5-0.9-0.8-1.3c-0.6-0.9-1.1-1.8-1.5-2.7
		s-0.9-1.7-1.3-2.7s-0.7-1.9-1.1-2.9l-1.2-3c0.1,0,0.1,0.1,0.1,0.2c-0.2-0.3-0.3-0.7-0.4-1c-0.1-0.3-0.2-0.7-0.3-1.1
		c-0.1-0.7-0.2-1.5-0.4-2.2c-0.1-0.7-0.3-1.5-0.5-2.2c-0.1-0.7-0.3-1.5-0.4-2.2v0.2c0-0.3-0.1-0.6-0.1-0.9c-0.1-1-0.2-1.9-0.1-3
		s0.1-2.1,0.1-3.1s0.1-2,0.2-3c0.1-0.5,0.1-1,0.2-1.5s0.1-0.9,0.2-1.4c0.1-0.8,0.3-1.7,0.5-2.5c0.1-0.4,0.2-0.9,0.3-1.3
		s0.2-0.9,0.3-1.3c0.2-0.9,0.4-1.8,0.7-2.6c0.3-0.8,0.6-1.6,0.9-2.3c0.4-1,0.8-1.9,1.3-2.8c0.5-1,1.1-1.9,1.6-2.8
		c0.3-0.4,0.6-0.9,0.8-1.4c0.3-0.4,0.5-0.8,0.7-1.3c0.4-0.9,0.9-1.8,1.5-2.6c0.5-0.7,1.1-1.3,1.8-1.8l0,0
		C50.7,93.6,51.1,93.4,51.5,93.1L51.5,93.1z M42.7,106.2L42.7,106.2L42.7,106.2z M43.9,143.5c0,0.1,0,0.1,0.1,0.1h0
		C43.9,143.6,43.9,143.6,43.9,143.5L43.9,143.5z M60.2,166.6L60.2,166.6z M62,168.4L62,168.4z"/>
	<path class="st0" d="M52.5,95.6c-0.6,0.5-0.9,1.2-0.9,2c-0.2,0.2-0.4,0.4-0.5,0.7l-0.9,1.5c-0.3,0.5-0.6,1-0.8,1.5
		c-0.2,0.5-0.5,0.9-0.7,1.4c-0.5,0.9-0.9,1.9-1.3,2.9c-0.4,1-0.7,2-1,3s-0.5,2-0.7,3c0,0.5-0.1,1-0.2,1.5c-0.1,0.5-0.1,1-0.2,1.5
		c-0.1,0.4-0.2,0.9-0.2,1.3c-0.1,0.4-0.1,0.9-0.1,1.3v4.9c0.1,0.9,0.2,1.7,0.3,2.6c0.2,1,0.5,2,0.8,3c0.3,1,0.7,2,1.2,3
		c0.3,0.4,0.5,0.8,0.8,1.2c0.3,0.4,0.6,0.9,0.9,1.3c0.6,0.8,1.3,1.6,1.9,2.4c0.3,0.2,0.5,0.5,0.7,0.8c0.3,0.2,0.5,0.5,0.7,0.8
		c0.4,0.6,0.9,1.2,1.4,1.7c0.7,0.8,1.5,1.7,2.2,2.4s1.4,1.4,2.2,2.1c0.9,0.7,1.8,1.3,2.8,1.8c0.5,0.3,1,0.5,1.5,0.7l1.5,0.6
		c1,0.5,2,0.9,3,1.2c0.4,0.2,0.9,0.3,1.4,0.4c0.3,0,0.6,0.1,0.9,0.1s0.6,0.1,0.9,0.1c1,0.1,2,0.2,3,0.2s2.1,0,3.1,0.1l0,0
		c0.2,0,0.4,0,0.6,0.1l0,0c-0.4-0.1-0.8-0.2-1.2-0.3c-0.3,0-0.7-0.1-1-0.1l-2.3-0.3c-1-0.2-1.9-0.3-2.9-0.5
		c-0.2-0.1-0.5-0.1-0.7-0.2s-0.4-0.1-0.6-0.2c-0.5-0.2-1-0.3-1.4-0.5c-0.6-0.2-1.2-0.5-1.8-0.8c-0.7-0.4-1.3-0.7-1.9-1
		c-0.6-0.3-1.2-0.6-1.8-1c-0.6-0.3-1.2-0.7-1.7-1.1c-0.3-0.3-0.6-0.5-0.9-0.8c-0.4-0.3-0.7-0.6-1-0.9c-0.7-0.7-1.3-1.4-2-2.1
		l-1.8-2.1c-0.5-0.7-1-1.2-1.6-2s-1.4-1.7-1.9-2.4s-1-1.4-1.4-2.1c-0.4-0.7-0.8-1.5-1.1-2.3c-0.3-0.8-0.6-1.6-0.8-2.4
		c-0.3-0.7-0.4-1.5-0.5-2.3v-0.4c-0.1-0.5-0.1-1-0.1-1.5v-4.6c0-0.5,0-1,0.1-1.5c0-0.5,0-0.8,0.1-1.4s0.1-1.1,0.2-1.6s0.1-1,0.2-1.5
		c0.1-0.9,0.3-1.8,0.5-2.7c0.2-0.9,0.4-1.9,0.7-2.8c0.6-1.8,1.3-3.5,2-5.3c0.2-0.6,0.5-1.2,0.8-1.8c0.1-0.3,0.3-0.7,0.5-1
		c0.1-0.2,0.3-0.5,0.4-0.7L52.5,95.6L52.5,95.6z M50.2,132.2L50.2,132.2z M52.1,134.6L52.1,134.6z M50.7,135.1L50.7,135.1z
		 M76.2,148.3L76.2,148.3z"/>
	<path class="st0" d="M44.9,158.1L44.9,158.1c0.8,0.8,1.8,1.5,2.8,2l0,0c0.4,0.3,0.7,0.7,1.1,1s0.7,0.7,1.1,1s0.7,0.6,1.1,0.9
		l1.2,0.9c0.8,0.5,1.6,1,2.4,1.4l2.4,1.5l1.2,0.9c0.4,0.3,0.9,0.6,1.3,0.9c1,0.6,1.9,1.1,2.9,1.6c0.4,0.3,0.8,0.5,1.3,0.7
		c0.5,0.3,1.1,0.5,1.7,0.7c1,0.4,2,0.7,3,1c2,0.6,4,1.4,6,2.1l3,0.9c0.5,0.2,0.9,0.3,1.4,0.5l1.5,0.6c1,0.4,1.9,0.7,2.9,1
		c0.5,0.1,1.1,0.3,1.6,0.5c0.5,0.1,1,0.3,1.5,0.5c0.4,0.1,0.9,0.3,1.4,0.4s1,0.3,1.5,0.4c1,0.3,2.1,0.4,3.1,0.6s1.9,0.3,3,0.3
		s2.2,0.2,3.2,0.2s2,0.1,3,0.1h1.6c0.5,0,1,0,1.5,0.1h-0.1c0.9,0.1,1.8,0.3,2.6,0.6l0,0c0.5,0.2,1,0.5,1.5,0.8l0,0
		c-0.6-0.4-1.3-0.8-2-1.2c-0.5-0.1-0.9-0.3-1.4-0.4c-0.7-0.2-1.3-0.3-2-0.4c-1.3-0.1-2.5-0.2-3.8-0.4h0.1c-0.4,0-0.7-0.1-1-0.1l0,0
		c-1.1-0.2-2.3-0.3-3.4-0.5h0.1c-0.4-0.1-0.8-0.2-1.2-0.2h0.2c-0.7-0.1-1.4-0.3-2.1-0.4c-1-0.2-2-0.4-3-0.7s-2-0.5-3-0.9
		c-0.6-0.1-1.1-0.3-1.6-0.5c-0.5-0.1-0.9-0.2-1.4-0.4c-0.5-0.2-1-0.3-1.5-0.5c-0.5-0.1-1-0.3-1.4-0.5c-0.6-0.2-1.2-0.5-1.8-0.7
		l-1.8-0.6c-0.5-0.2-1-0.3-1.5-0.5c-0.5-0.1-1-0.3-1.5-0.5c-1-0.4-2-0.8-3-1.1c-0.5-0.2-1-0.3-1.5-0.5s-1.1-0.3-1.6-0.5
		c-0.9-0.3-1.9-0.6-2.8-1c-0.6-0.2-1.1-0.4-1.6-0.7c-0.5-0.2-1-0.4-1.5-0.7s-1-0.5-1.5-0.8c-0.5-0.2-0.9-0.5-1.3-0.8
		c-0.4-0.3-0.9-0.6-1.3-0.9c-0.4-0.3-0.9-0.6-1.4-0.8c-0.9-0.4-1.8-0.8-2.7-1.3c-0.5-0.2-1-0.4-1.4-0.7c-0.3-0.2-0.5-0.3-0.8-0.5
		c-0.1-0.2-0.3-0.3-0.5-0.4c-0.5-0.3-1-0.7-1.4-1.1c-0.5-0.3-0.9-0.7-1.4-1l-1.5-0.9C45.9,158.8,45.4,158.4,44.9,158.1L44.9,158.1z
		 M80.2,175.2c0.1,0,0.1,0,0.1,0.1v0C80.3,175.2,80.3,175.2,80.2,175.2L80.2,175.2z M95.3,179.3L95.3,179.3z"/>
	<path class="st0" d="M118.5,123.4C118.5,123.4,118.5,123.4,118.5,123.4c-0.2-0.1-0.4-0.1-0.5,0.1c-0.2,0-0.4,0-0.5,0.1
		c-0.2,0.2-0.4,0.4-0.6,0.7c-0.2,0.1-0.3,0.3-0.4,0.5l0,0c-0.4,0.4-0.7,0.9-1.1,1.3l-1.1,1.1c-0.7,0.7-1.5,1.4-2.3,2.1l-2.5,2.2
		c-0.3,0.4-0.7,0.7-1.1,1l-1.2,0.9L105,135l-2.2,1.6c-0.8,0.5-1.5,1.1-2.2,1.6s-1.4,1.1-2.1,1.6c-0.5,0.3-0.9,0.7-1.4,1
		c-0.5,0.2-0.9,0.5-1.3,0.8c-0.9,0.6-1.7,1.1-2.7,1.7s-1.9,1.2-2.9,1.7c-0.9,0.5-1.8,0.9-2.7,1.3c-0.4,0.2-0.8,0.4-1.2,0.5
		c-0.4,0.1-0.9,0.3-1.2,0.4s-0.7,0.2-1.1,0.3c-0.2,0-0.4,0.1-0.6,0.1s-0.4,0.1-0.6,0.1s-0.4,0.1-0.6,0.1h-6.8
		c-2.1,0-4.3-0.1-6.4-0.4l0,0c-0.2-0.1-0.3-0.1-0.5-0.1h-0.2c-0.7-0.2-1.5-0.3-2.2-0.5c-0.7-0.2-1.4-0.4-2.1-0.7l0,0
		c-0.4-0.1-0.7-0.3-1-0.5c-0.1-0.1-0.3-0.2-0.4-0.3c-0.4-0.3-0.7-0.5-1-0.7l0,0c0.1,0.2,0.3,0.4,0.5,0.5c0.5,0.5,1,0.9,1.6,1.2
		c0.5,0.3,1,0.5,1.5,0.7l1.5,0.6c0.5,0.2,1,0.3,1.5,0.4c2.2,0.4,4.3,0.7,6.5,0.9c1,0,2.1,0,3.1,0.1s2.1,0.1,3.1,0.1
		c0.5,0,1.1,0,1.6-0.1l1.7-0.3c1-0.3,2-0.6,3-1c1.1-0.4,2.1-0.8,3.1-1.3c0.5-0.3,1.1-0.5,1.5-0.8s0.9-0.6,1.4-0.9
		c0.5-0.2,0.9-0.5,1.3-0.8c0.4-0.3,0.7-0.5,1.2-0.8s1.1-0.7,1.5-1s0.8-0.5,1.2-0.8l2.6-2c0.9-0.7,1.8-1.3,2.7-2l1.2-0.9
		c0.5-0.3,0.9-0.7,1.4-1l1.2-0.9c0.5-0.3,0.9-0.7,1.4-1l2.4-2.1c0.9-0.7,1.7-1.5,2.5-2.2c0.8-0.6,1.6-1.3,2.3-2.1l0.4-0.4
		c-0.1,0-0.1,0.1-0.1,0.2c-0.2,0.7-0.5,1.5-0.8,2.2c-0.4,1-0.7,2-1,3c-0.3,1-0.4,2.1-0.5,3.2c-0.1,1.1-0.2,2.1-0.2,3.2
		c-0.1,0.6-0.1,1.1-0.1,1.7c-0.1,0.5-0.1,0.9-0.1,1.4c-0.1,2.1-0.1,4.3-0.1,6.4c0.1,1.1,0.1,2.2,0.3,3.3c0.1,0.3,0.1,0.7,0.2,0.9
		s0.1,0.5,0.2,0.7c0.2,0.5,0.3,1,0.5,1.5c0.4,1,0.8,2,1.3,3c0.5,1,1,2,1.6,2.9c1.2,1.8,2.5,3.5,3.9,5.2l0,0v0.1l0,0l0.6,0.9
		c0.2,0.3,0.5,0.7,0.7,1c0.4,0.6,0.9,1.2,1.4,1.8c0.6,0.6,1,1.1,1.6,1.8s1.1,1.4,1.7,2.1l0,0l-1.2-1.8c-0.4-0.5-0.8-1.1-1.2-1.6
		s-0.8-1.1-1.2-1.7c-0.4-0.5-0.7-1-1-1.6c-0.5-1-1.1-1.9-1.8-2.8c-0.6-0.8-1.1-1.7-1.7-2.6l-0.9-1.5c-0.2-0.2-0.3-0.4-0.4-0.7
		l-0.3-0.6c-0.5-1-0.9-1.9-1.3-2.9c-0.1-0.4-0.3-0.7-0.4-1.1c-0.2-0.3-0.3-0.7-0.4-1.1c-0.1-0.4-0.2-0.7-0.3-1.1
		c0-0.2-0.1-0.3-0.1-0.5s-0.1-0.4-0.1-0.6c-0.1-0.6-0.2-1.1-0.2-1.7v-1.9c0-2.1,0-4.3,0.1-6.4c0.1-1,0.1-2,0.2-3
		c0-1,0.1-2.1,0.2-3.1c0.1-1,0.3-2,0.6-2.9c0.2-0.5,0.3-1,0.5-1.5c0.1-0.5,0.3-1,0.5-1.4c0.3-1,0.7-2,1.1-3c0.2-0.3,0.3-0.7,0.4-1
		c0-0.1,0.1-0.3,0.1-0.4c0.1-0.2,0.1-0.3,0.1-0.5c0-0.2,0-0.3-0.1-0.5L118.5,123.4C118.5,123.4,118.5,123.4,118.5,123.4z
		 M121.6,165.6L121.6,165.6z M64.2,146.2L64.2,146.2z"/>
	<path class="st0" d="M121.3,163.1L121.3,163.1c0.2,1,0.6,1.9,1.1,2.7c0.3,0.5,0.6,0.9,0.9,1.4c0.3,0.4,0.5,0.8,0.7,1.3
		c0.2,0.4,0.4,0.9,0.6,1.3c0.2,0.5,0.4,0.9,0.7,1.3c0.3,0.5,0.6,0.9,1,1.2c0.3,0.3,0.7,0.6,1.1,1c0.4,0.3,0.7,0.7,1,1.1
		c0.3,0.4,0.7,0.8,1.1,1.1c0.3,0.4,0.7,0.7,1.1,1l0.6,0.6c0.1,0.2,0.3,0.4,0.5,0.5c0.4,0.4,0.9,0.7,1.4,1c0.4,0.3,0.7,0.6,1.1,0.9
		c0.3,0.3,0.7,0.6,1.1,0.9c0.3,0.3,0.6,0.6,0.9,0.8c0.3,0.3,0.6,0.5,1,0.7c0.2,0.1,0.4,0.3,0.6,0.4h-2c-0.6,0-1.3-0.1-2-0.1
		c-0.7,0-1.4,0-2.1-0.1c-0.4,0-0.9-0.1-1.4-0.1h-1.6c-1-0.1-2.1-0.1-3.1-0.1s-2.1-0.1-3.1-0.2s-2.1-0.1-3.1-0.1h-7.8
		c-0.5,0-1.2-0.1-1.6-0.1s-0.9,0-1.4-0.1s-1.1-0.1-1.6-0.2h0.1c-0.7-0.2-1.5-0.3-2.2-0.4c-0.7-0.1-1.4-0.2-2.1-0.2
		c-0.7-0.1-1.4-0.1-2.1-0.2c-0.3,0-0.7-0.1-1.1-0.1h-1.2c0.3,0,0.5,0.1,0.7,0.1l0,0c0.7,0.1,1.5,0.3,2.1,0.4s1.2,0.2,1.9,0.3l0,0
		c0.3,0.1,0.7,0.1,1,0.2c0.3,0,0.6,0.1,0.9,0.2c0.6,0.2,1.3,0.4,1.9,0.5l2,0.3l1.9,0.3h-0.1c0.4,0.1,0.9,0.2,1.3,0.2
		c0.4,0.1,0.8,0.1,1.2,0.1c0.8,0,1.6,0.1,2.4,0.1c0.5,0,1,0.1,1.5,0.1c0.5,0.1,1.1,0.1,1.6,0.1h3.1c1.1,0,2.1,0.1,3.2,0.2
		s2.1,0.1,3.1,0.1s2,0,3,0.1s2,0.1,3,0.2s2.1,0.1,3.1,0.1h2.7c0.3,0,0.6-0.1,0.8-0.3c0.1-0.1,0.2-0.3,0.2-0.5c0-0.1,0-0.3-0.1-0.4
		c0-0.2-0.1-0.3-0.3-0.4c-0.2-0.2-0.4-0.3-0.6-0.4c-0.2-0.1-0.3-0.2-0.5-0.3c-0.3-0.2-0.5-0.3-0.8-0.4c-0.6-0.3-1-0.6-1.5-0.9
		c-0.3-0.3-0.7-0.5-1-0.8s-0.6-0.5-1-0.8c-0.4-0.3-0.7-0.6-1.1-0.9s-0.8-0.5-1.2-0.8c-0.4-0.3-0.7-0.6-1.1-0.9
		c-0.3-0.3-0.7-0.6-1.1-0.9c-0.5-0.5-1.1-1-1.6-1.5c-0.2-0.3-0.5-0.6-0.8-0.8c-0.3-0.2-0.6-0.5-0.9-0.7h0.1c-0.1-0.1-0.1,0-0.3-0.2
		s-0.5-0.4-0.7-0.6c-0.2-0.3-0.4-0.5-0.6-0.7c-0.4-0.6-0.8-1.2-1.1-1.8c-0.3-0.6-0.6-1.2-1-1.7c-0.4-0.6-0.8-1.1-1.2-1.7
		c-0.4-0.5-0.7-1.1-0.9-1.7l0,0C121.5,163.6,121.4,163.3,121.3,163.1L121.3,163.1z M125.6,170.7L125.6,170.7z M132.9,178.7
		L132.9,178.7z M135.3,180.6l0.1,0.1L135.3,180.6L135.3,180.6z"/>
	<path class="st0" d="M59.1,143.3L59.1,143.3c0.2,0.5,0.3,0.9,0.4,1.4c0.2,0.5,0.4,0.9,0.7,1.3c0.5,0.9,1.1,1.6,1.6,2.4
		c0.3,0.4,0.5,0.8,0.8,1.2s0.7,0.8,1,1.2c0.3,0.4,0.7,0.8,1.1,1.1l1.2,0.9h-0.1l0.1,0.1l0,0l1.2,0.9c0.4,0.3,0.8,0.7,1.2,1.1
		c0.3,0.4,0.7,0.8,1.1,1.1l1.4,1.1L72,158c0.4,0.2,0.8,0.5,1.2,0.7l2.4,1.5c0.9,0.5,1.7,1,2.6,1.4c0.5,0.2,0.9,0.4,1.4,0.6
		c0.4,0.2,0.8,0.4,1.2,0.7l0,0c0.3,0.1,0.5,0.3,0.7,0.5l0,0c-0.3-0.4-0.7-0.8-1.1-1.1c-0.4-0.3-0.9-0.6-1.3-0.8
		c-0.9-0.5-1.7-1-2.5-1.6c-0.8-0.6-1.6-1.1-2.4-1.7l-2.2-1.6c-0.6-0.4-1.2-0.9-1.7-1.4l-1.5-1.5l-1.8-1.5l-1.8-1.2
		c-0.2-0.2-0.5-0.4-0.7-0.6l-0.6-0.6c-0.4-0.5-0.8-0.9-1.2-1.4c-0.3-0.5-0.7-0.9-1.1-1.3c-0.4-0.4-0.7-0.9-1.1-1.3
		c-0.3-0.4-0.6-0.8-0.8-1.2C59.5,144.2,59.3,143.7,59.1,143.3L59.1,143.3z M60.5,145.8L60.5,145.8z M65.3,151.1L65.3,151.1z
		 M71.9,156.6C72,156.6,72,156.7,71.9,156.6C72,156.7,72,156.6,71.9,156.6L71.9,156.6z M65.9,152.8L65.9,152.8z"/>
	<path class="st0" d="M77.5,160.9L77.5,160.9c0.5,0.3,1,0.8,1.3,1.3l0,0l1.7,1.4c0.3,0.2,0.5,0.4,0.7,0.6c0.3,0.2,0.6,0.4,0.8,0.7
		l-1.2,0.6c-0.4,0.2-0.9,0.4-1.3,0.6h0.1c-0.4,0.2-0.7,0.4-1.2,0.5s-0.9,0.3-1.3,0.4c-0.8,0.2-1.6,0.4-2.5,0.6s-1.7,0.3-2.6,0.5
		c-0.4,0.1-0.9,0.1-1.3,0.2c-0.4,0-0.9,0.1-1.3,0.2h0.1c-0.6,0.1-1.3,0.2-1.9,0.2c-0.6,0-1.3,0.1-1.9,0.1c-0.6,0-1.2,0-1.8,0.1
		c-0.7,0.1-1.3,0.2-2,0.3l0,0c0.5-0.1,1.1-0.1,1.6-0.1h1.3c1,0,2,0.1,3,0.1c0.6,0,1.2,0,1.7-0.1s1-0.1,1.5-0.2
		c1-0.1,2.1-0.2,3.1-0.4s2-0.4,3-0.7c0.5-0.1,1-0.3,1.5-0.5c0.4-0.3,0.9-0.5,1.4-0.7c0.4-0.2,0.9-0.5,1.3-0.7
		c0.4-0.2,0.8-0.4,1.2-0.7c0.2-0.1,0.4-0.3,0.4-0.5c0-0.2-0.1-0.5-0.3-0.6c-0.2-0.2-0.5-0.3-0.7-0.5c-0.5-0.3-0.9-0.7-1.4-1
		C79.5,162,78.5,161.4,77.5,160.9L77.5,160.9z M79.5,165.8L79.5,165.8z"/>
	<path class="st0" d="M72.3,169.9L72.3,169.9c0.2,0.1,0.3,0.1,0.6-0.2l0,0c0.2,0,0.6,0.1,0.8,0.1s0.4,0.1,0.6,0.1l1.2,0.3
		c0.5,0.1,1,0.3,1.5,0.4c0.2,0.1,0.4,0.1,0.6,0.2s0.4,0.1,0.6,0.2c0.5,0.2,1,0.3,1.5,0.5s0.9,0.4,1.4,0.5s0.9,0.3,1.3,0.4
		c0.2,0.1,0.4,0.2,0.6,0.2s0.3,0.1,0.5,0.1c0,0.1,0.1,0.1,0.2,0.1c0.5,0.2,1.1,0.3,1.6,0.4l1.4,0.3c0.6,0.1,1.1,0.3,1.7,0.4
		c0.2,0.1,0.6,0.1,0.8,0.2s0.5,0.1,0.7,0.2s0.5,0.1,0.8,0.2s0.5,0.1,0.8,0.2s0.5,0.2,0.8,0.2s0.5,0.1,0.7,0.1
		c0.5,0.1,0.9,0.1,1.5,0.2s1.1,0.1,1.7,0.2h-0.1c0.4,0.1,0.8,0.1,1.2,0.2s0.9,0.1,1.3,0.2l2.3,0.3l0,0c1.3,0.2,2.6,0.3,3.9,0.5
		c0.5,0.1,1,0.1,1.5,0.2s1,0.1,1.6,0.2s1.2,0.1,1.8,0.2c0.4,0,0.9,0.1,1.4,0.1c0.3,0.1,0.5,0.1,0.8,0.1c0.3,0.1,0.6,0.1,0.9,0.1h4.7
		c0.5,0.1,1,0.1,1.5,0.1c0.6,0,1.1,0,1.7,0.1c0.3,0,0.6,0.1,0.9,0.1c0.2,0.1,0.5,0.1,0.7,0.1c0.6,0,1.1,0.1,1.6,0.1s1,0.1,1.5,0.1
		c0.3,0.1,0.6,0.1,0.9,0.1h2.4c0.6,0,1.2,0,1.8,0l0,0c0.2,0,0.4,0.1,0.6,0.1c0.1,0.1,0.2,0.1,0.3,0.1c0.3,0,0.5,0.1,0.8,0.2l0,0
		c-0.2-0.1-0.5-0.2-0.7-0.3c-0.2-0.1-0.4-0.2-0.6-0.2c-0.3-0.1-0.6-0.2-0.9-0.2h-1.9c-0.3-0.1-0.5-0.1-0.8-0.1
		c-0.3,0-0.5-0.1-0.9-0.1s-0.8,0-1.4-0.1s-1.3-0.2-1.8-0.2s-0.9,0-1.5-0.1s-1.2-0.2-1.7-0.2s-1-0.1-1.5-0.1h-5.6
		c-0.3-0.1-0.6-0.1-0.9-0.1c-0.5,0-0.9-0.1-1.4-0.1c-0.3-0.1-0.5-0.1-0.8-0.1c-0.4,0-0.6,0-1-0.1s-0.9-0.1-1.4-0.2
		c-1.1-0.1-2.2-0.3-3.3-0.4h0.1c-0.6,0-1.2-0.1-1.8-0.2c-0.5-0.1-1-0.1-1.5-0.2c-1.2-0.1-2.4-0.3-3.6-0.4l0,0
		c-0.4-0.1-0.7-0.2-1.1-0.2c-0.5-0.1-0.9-0.1-1.3-0.2c-0.4,0-0.9,0-1.3-0.1c-0.3,0-0.7-0.1-1-0.1l0,0c-0.2,0-0.3-0.1-0.5-0.1
		c-0.1,0-0.3-0.1-0.4-0.1c-0.4-0.1-0.7-0.1-1-0.2c-0.7-0.2-1.4-0.4-2.1-0.5c-0.3,0-0.7-0.1-1-0.2c-0.3-0.1-0.6-0.1-0.9-0.2
		c-0.6-0.1-1.3-0.3-1.9-0.4c-0.3-0.1-0.5-0.1-0.8-0.2c-0.1,0-0.2-0.1-0.3-0.1s-0.2-0.1-0.3-0.1c-0.3,0-0.5-0.1-0.8-0.2
		c-0.2,0-0.5-0.1-0.7-0.2c-0.6-0.1-1.1-0.3-1.7-0.5c-0.5-0.1-0.9-0.3-1.4-0.4c-0.3-0.1-0.5-0.1-0.8-0.2c-0.3,0-0.6-0.1-0.9-0.2
		c-0.3-0.1-0.7-0.1-0.9-0.2s-0.4-0.1-0.7-0.2s-0.5-0.1-0.8-0.2c-0.1-0.1-0.2-0.1-0.3-0.1c-0.1-0.1-0.3-0.1-0.4-0.1h-0.7
		C73,169.9,72.6,169.9,72.3,169.9L72.3,169.9z M130.7,178.3L130.7,178.3z"/>
	<path class="st0" d="M80.8,167.9L80.8,167.9c-0.8-0.1-1.5-0.1-2.3-0.1l0,0l2,0.3c0.2,0,0.3,0,0.5,0.1s0.6,0.1,0.8,0.2
		s0.6,0.2,0.8,0.2s0.4,0.1,0.6,0.1l1.6,0.3l1.7,0.3l1.7,0.3c1.1,0.2,2.2,0.3,3.2,0.5s2.1,0.3,3.1,0.5l3.4,0.6c0.2,0,0.5,0.1,0.7,0.1
		s0.5,0.1,0.7,0.1c0.6,0,1.1,0.1,1.7,0.2c0.3,0,0.5,0.1,0.8,0.1s0.6,0.1,0.9,0.1h1.5c0.5,0,1,0.1,1.5,0.1c0.3,0.1,0.7,0.1,1,0.1
		c0.3,0,0.6,0.1,0.9,0.1c0.5,0,1,0.1,1.5,0.1c0.5,0.1,1,0.1,1.5,0.1c1.1,0.1,2.2,0.1,3.3,0.1h3.1c1.2,0,2.5-0.1,3.7-0.1l0,0
		c-1.2-0.1-2.5-0.2-3.8-0.2c-1.1,0-2.3-0.1-3.4-0.1c-0.5,0-1.2-0.1-1.7-0.1s-0.9-0.1-1.4-0.1h-1.6c-0.6,0-1.2,0-1.8-0.1
		c-0.5,0-1-0.1-1.5-0.1h-1.7c-0.3-0.1-0.6-0.1-0.9-0.1c-0.2,0-0.5-0.1-0.7-0.1c-0.5-0.1-1.1-0.1-1.6-0.2l0,0
		c-0.4-0.1-0.7-0.1-1.1-0.2s-0.8-0.1-1.2-0.2c-0.7-0.1-1.4-0.3-2.1-0.4c-0.7-0.2-1.4-0.3-2.1-0.4l-2.1-0.3c-1.1-0.2-2.2-0.3-3.3-0.5
		c-0.5,0-1-0.1-1.5-0.2l-1.7-0.3l-3.3-0.6c-0.2,0-0.5-0.1-0.7-0.1c-0.2-0.1-0.3-0.1-0.5-0.1L80.8,167.9L80.8,167.9z M100.8,171.1
		L100.8,171.1z"/>
	<path class="st0" d="M94.8,164.6L94.8,164.6c-0.1,0-0.2,0,0.1-0.1h-3.1c-1.1,0.1-2.2,0.1-3.3,0.1h-3.6c1.3,0.1,2.5,0.2,3.7,0.2
		s2.3,0.1,3.5,0.1h8c0.5,0.1,1.1,0.1,1.6,0.1h1.7c0.6,0.1,1.1,0.1,1.7,0.1c1,0.1,2,0.1,3,0.1h3.2c1.1,0,2.1-0.1,3.2-0.1
		c0.5-0.1,1.1-0.1,1.6-0.1h0.4c0.2-0.1,0.3-0.1,0.5-0.1c0.3,0,0.6,0,0.9-0.1l0,0c-0.3,0.1-0.7,0.1-1,0.1h-2.5
		c-1.2,0-2.3-0.1-3.4-0.1c-2.2,0-4.3,0-6.4-0.1c-1.1,0-2.2-0.1-3.3-0.1L94.8,164.6L94.8,164.6z"/>
	<path class="st0" d="M113.2,160.1c-0.5,0-1.1,0.1-1.6,0.2c-0.3,0.1-0.6,0.1-0.9,0.2l-1.2,0.3c-0.3,0.1-0.7,0.1-1,0.2l0,0
		c-0.3,0-0.5,0.1-0.8,0.1h-0.8c-0.4,0-0.8,0.1-1.2,0.1c-0.3,0.1-0.6,0.1-0.9,0.1H92.5c-2.1,0-4.3,0-6.4,0.1c-0.6,0-1.2,0.1-1.7,0.1
		s-1.1,0.1-1.6,0.1c-0.3,0-0.5,0.1-0.7,0.1s-0.4,0.1-0.6,0.1h-0.2c-0.7,0.2-1.4,0.3-2.1,0.5l0,0l2.1-0.3l0,0
		c0.3-0.1,0.5-0.1,0.8-0.1H105c0.3,0,0.6-0.1,0.9-0.1s0.5-0.1,0.8-0.1c0.5,0,1-0.1,1.5-0.2c0.2,0,0.3-0.1,0.5-0.1
		c0.1,0,0.3-0.1,0.4-0.1c0.2,0,0.2-0.1,0.4-0.1c0.1,0,0.3-0.1,0.4-0.1c0.6-0.2,1-0.3,1.6-0.5S112.6,160.3,113.2,160.1L113.2,160.1z"
		/>
	<path class="st0" d="M111,153.4L111,153.4c-0.4,0.2-0.9,0.3-1.3,0.2c-0.4,0.1-0.7,0.2-1.2,0.4s-0.9,0.4-1.4,0.5s-0.9,0.3-1.3,0.4
		c-0.2,0.1-0.5,0.2-0.7,0.2s-0.3,0.1-0.5,0.1c-0.3,0-0.5,0.1-0.8,0.2c-0.2,0.1-0.4,0.2-0.6,0.2s-0.3,0-0.6,0.1s-0.6,0.1-0.9,0.2
		c-0.2,0.1-0.3,0.1-0.5,0.1c-0.3,0-0.5,0.1-0.7,0.1h-0.1c-0.3,0-0.7,0.1-1,0.1H83.9c-1.1,0.1-2.2,0.1-3.3,0.1
		c-0.5,0.1-1.1,0.1-1.6,0.1c-0.5,0-1.1,0.1-1.6,0.1c-0.2,0.1-0.5,0.1-0.7,0.1c-0.3,0-0.6,0.1-0.9,0.1h-0.2c-0.1,0.1-0.3,0.1-0.5,0.1
		c-0.3,0.1-0.7,0.1-1,0.2l0,0c0.6,0,1.1-0.1,1.7-0.1h23.9c0.2-0.1,0.4-0.1,0.6-0.1h0.6c0.2,0,0.4-0.1,0.6-0.1h0.2
		c0.4-0.1,0.7-0.1,1-0.2c0.3,0,0.5-0.1,0.8-0.2c0.2-0.1,0.3-0.1,0.6-0.2s0.5-0.2,0.8-0.3l0.9-0.3c0.3-0.1,0.5-0.2,0.8-0.3
		c0.2,0,0.4-0.1,0.6-0.2l1.5-0.6c0.3-0.1,0.5-0.2,0.8-0.3l0.6-0.3l0,0C110.4,153.7,110.7,153.5,111,153.4L111,153.4z M110,153.8
		L110,153.8z"/>
	<path class="st0" d="M109.3,146.8L109.3,146.8c-0.2,0.1-0.5,0.2-0.3,0.4c-0.1,0-0.2,0-0.3,0.1c-0.2,0.1-0.4,0.2-0.7,0.3
		s-0.6,0.3-0.8,0.4s-0.4,0.3-0.7,0.4s-0.5,0.3-0.8,0.4c-0.2,0.2-0.5,0.3-0.7,0.4c-0.3,0.1-0.5,0.3-0.8,0.4s-0.5,0.3-0.8,0.4
		c-0.3,0.1-0.7,0.2-1,0.4c-0.3,0.2-0.6,0.3-0.9,0.4c-0.1,0-0.1,0-0.3,0.1s-0.4,0.1-0.6,0.2l-0.9,0.3c-0.3,0-0.6,0.1-0.9,0.2
		c-0.2,0.1-0.6,0.1-0.8,0.2s-0.5,0.1-0.7,0.2c0,0.1-0.1,0.1-0.2,0.1c-0.3,0.1-0.7,0.1-1,0.2l0,0l-2.3,0.3c-0.4,0.1-0.8,0.1-1.2,0.2
		s-0.8,0.2-1.2,0.2s-0.7,0.1-1.1,0.1H75.4c-0.6,0-1.1,0.1-1.7,0.1h-1.6c-0.3,0-0.7,0-1,0.1c-0.4,0.1-0.7,0.1-1.1,0.2l0,0
		c0.4,0,0.8-0.1,1.1-0.1s0.6-0.1,0.9-0.1h18c0.3,0,0.8-0.1,1-0.1s0.3-0.1,0.6-0.1s0.7-0.1,0.9-0.1s0.5-0.1,0.8-0.1
		c0.5-0.1,1-0.1,1.5-0.2l0,0c0.5-0.1,0.9-0.1,1.4-0.2c0.2,0,0.5-0.1,0.8-0.1h0.2c0.1,0,0.3-0.1,0.4-0.1c0.2-0.1,0.5-0.1,0.7-0.2
		c0.3,0,0.6-0.1,0.9-0.2c0.3,0,0.5-0.1,0.8-0.2c0.2-0.1,0.4-0.1,0.6-0.2s0.5-0.2,0.7-0.3c0.3-0.2,0.6-0.3,0.9-0.4
		c0.3-0.1,0.5-0.2,0.8-0.3c0.1,0,0.2,0,0.3-0.1c0.1-0.1,0.1-0.1,0.3-0.2s0.5-0.3,0.7-0.4c0.2-0.1,0.5-0.3,0.7-0.4
		c0.3-0.1,0.5-0.3,0.8-0.5c0.2-0.2,0.5-0.3,0.7-0.5s0.5-0.3,0.7-0.5c0.1-0.1,0.1-0.1,0.2-0.1c0.2,0,0.3-0.1,0.4-0.2
		c0.1-0.1,0.2-0.1,0.3-0.2s0.2-0.1,0.3-0.2C108.7,147.1,109,146.9,109.3,146.8L109.3,146.8z M102.9,149.9L102.9,149.9z M90.9,152.7
		L90.9,152.7z M94.6,152.7L94.6,152.7z"/>
	<path class="st0" d="M112,137.3L112,137.3c-0.3,0.2-0.7,0.2-1,0.1c-0.1,0.1-0.3,0.2-0.4,0.3l-0.4,0.4c-0.4,0.2-0.7,0.5-1,0.8
		l-1.8,1.5l0,0c-0.4,0.2-0.7,0.5-1,0.8l0,0c-0.1,0.1-0.3,0.2-0.4,0.3c-0.5,0.3-0.9,0.7-1.4,1c-0.2,0.2-0.4,0.3-0.6,0.5
		c-0.1,0.2-0.3,0.3-0.5,0.4c-0.3,0.2-0.6,0.3-0.8,0.5s-0.5,0.3-0.7,0.5c-0.5,0.2-0.9,0.5-1.3,0.8c-0.4,0.3-0.8,0.5-1.2,0.8l-0.9,0.6
		c-0.2,0.1-0.3,0.2-0.5,0.3c-0.2,0.1-0.4,0.3-0.7,0.4s-0.5,0.3-0.8,0.4c-0.5,0.2-0.9,0.5-1.4,0.7h0.1c-0.4,0.1-0.7,0.3-1.1,0.4
		c-0.2,0-0.5,0.1-0.7,0.2c-0.2,0.1-0.5,0.1-0.7,0.2c-0.4,0.1-0.8,0.2-1.3,0.3l0,0c-0.3,0.1-0.5,0.1-0.8,0.1H77.4
		c-1.2,0.1-2.3,0.1-3.5,0.1c-0.5,0.1-1,0.1-1.5,0.1h-0.7c-0.3,0.1-0.6,0.1-0.9,0.1h-0.7c-0.3,0-0.8,0.1-1,0.1s-0.3,0-0.6,0.1
		s-0.7,0.1-1,0.2l0,0c0.3,0,0.6-0.1,0.9-0.1h21.1c1.3,0,2.6-0.1,3.9-0.5c0.3-0.1,0.7-0.2,1-0.3c0.1,0,0.3-0.1,0.4-0.1
		c0.2-0.1,0.4-0.2,0.5-0.2s0.2-0.1,0.3-0.1c0.5-0.2,1-0.5,1.4-0.7c0.3-0.1,0.6-0.2,0.8-0.4c0.2-0.1,0.5-0.3,0.7-0.4l0.6-0.3l0.9-0.6
		c0.4-0.2,0.8-0.5,1.2-0.8c0.4-0.3,0.9-0.6,1.3-0.9c0.5-0.4,1.1-0.7,1.6-1c0.2-0.1,0.4-0.3,0.6-0.4s0.4-0.3,0.6-0.4
		c0.5-0.3,0.9-0.6,1.3-1c0.2-0.2,0.3-0.3,0.6-0.5s0.5-0.4,0.8-0.6c0.2-0.1,0.4-0.3,0.6-0.5c0.2-0.1,0.3-0.3,0.5-0.4l0.6-0.6l0.5-0.5
		l0.6-0.6l0.9-0.9l0,0C111.8,137.4,111.9,137.4,112,137.3L112,137.3z"/>
	<path class="st0" d="M84.3,78.6h-0.1c-1.3,0-2.5,0-3.7,0.1c-1.5,0.1-2.9,0.2-4.4,0.5c-1.3,0.3-2.6,0.8-3.9,1.3
		c-0.9,0.4-1.9,0.9-2.9,1.3l0,0c-0.9,0.4-1.9,0.7-2.8,1l0,0c0.1-0.1,0.3-0.1,0.4-0.1H67c0.6-0.1,1.1-0.1,1.7-0.2
		c0.7-0.1,1.5-0.3,2.2-0.5c1.4-0.3,2.9-0.7,4.3-0.9c1.6-0.1,3.1,0,4.7,0.1c1.4,0.1,2.8,0.1,4.2,0.3l4.1,0.6c1.5,0.3,3,0.4,4.4,0.9
		s2.9,0.9,4.4,1.4c1.1,0.4,2.1,0.9,3.2,1.3c1.7,0.8,3.4,1.8,5.1,2.6c1.7,0.8,3.2,1.8,4.9,2.6c0.8,0.4,1.6,0.8,2.3,1.2
		c0.7,0.3,1.6,0.5,2.4,0.8c1.7,0.6,3.4,1.1,5,1.8c0.7,0.3,1.4,0.6,2,1l0,0c-1.3-1.2-2.7-2.2-4.3-3c-0.7-0.4-1.4-0.8-2.2-1.2
		c-0.8-0.4-1.5-0.8-2.2-1.3l0,0l-2.1-1.5c-0.8-0.6-1.6-1.1-2.4-1.7c-1.6-1.2-3.2-2.1-4.8-3.2c-1.1-0.6-2.2-1.2-3.3-1.7
		c-1.2-0.7-2.6-1.2-3.9-1.6l-2.1-0.6c-0.6-0.1-1.3-0.4-2-0.5c-1.4-0.3-2.9-0.5-4.3-0.6C87,78.7,85.6,78.6,84.3,78.6L84.3,78.6z
		 M113.3,90.3c0,0.1,0,0.1,0.1,0.1L113.3,90.3L113.3,90.3z M69.1,81.8L69.1,81.8z"/>
	<path class="st0" d="M67.3,77.3L67.3,77.3c-0.1,0.2-0.1,0.3,0,0.5c0,0.1,0,0.2-0.1,0.3l0,0c-0.1,0.1-0.1,0.2-0.2,0.3l0,0
		c-0.2,0.3-0.5,0.6-0.8,0.8c-0.2,0.1-0.3,0.2-0.5,0.3c-0.2,0.1-0.4,0.2-0.6,0.2c-0.6,0.1-1.3,0.1-1.9,0.1l-1.1-0.3
		c-0.3-0.1-0.5-0.2-0.7-0.4l0,0c-0.2-0.1-0.4-0.3-0.5-0.5l0,0l-0.1-0.1l0,0c0.4,1.5,2.1,2.1,3.5,2.1c0.9,0.1,1.7-0.3,2.3-0.9
		C67.3,79.1,67.5,78.2,67.3,77.3L67.3,77.3z M67,78.4L67,78.4z M66.2,79.2L66.2,79.2z M62,79.5L62,79.5z M61.4,79.1L61.4,79.1z
		 M67.1,78.2L67.1,78.2z"/>
	<path class="st0" d="M70.3,83.9L70.3,83.9c0.1,1.1,0.3,2.1,0.6,3.1c0.3,1.1,0.7,2.1,0.9,3.2v0.1c0,0.8,0.1,1.6,0.1,2.4
		c-0.1,0-0.1,0.1-0.1,0.2c-0.1,0.1-0.1,0.2-0.2,0.3c-0.3,0.4-0.7,0.8-1.1,1.2c-0.4,0.3-0.8,0.5-1.2,0.7c-0.6,0.3-1.2,0.4-1.9,0.5
		h-0.5c0.5,0.2,1,0.2,1.5,0.2c0.7,0.1,1.5,0,2.2-0.3c0.7-0.3,1.3-0.7,1.9-1.2c0.7-0.6,1-1.5,0.9-2.4c-0.1-1.3-0.4-2.5-1-3.7
		C71.7,86.8,71,85.3,70.3,83.9L70.3,83.9z M71.8,90.2L71.8,90.2L71.8,90.2z M72,92.7L72,92.7z M71.9,93C71.9,93.1,71.8,93.1,71.9,93
		L71.9,93L71.9,93z M71.7,93.3L71.7,93.3z M67.5,95.6L67.5,95.6z"/>
	<path class="st0" d="M65.9,80.3L65.9,80.3v0.4l0,0c0.2,2.1,0,4.2,0,6.3c0,1.8-0.2,3.5-0.4,5.3c-0.1,0.4-0.3,0.9-0.5,1.3
		c-0.3,0.7-0.7,1.3-1.1,1.9L63.4,96c-0.1,0-0.1,0.1-0.2,0.1s-0.3,0.1-0.4,0.1c-0.7,0.1-1.5,0.2-2.2,0.1L59.7,96
		c-0.1-0.1-0.1-0.1-0.2-0.1l0,0c-0.8-0.4-1.6-0.9-2.3-1.4c-0.4-0.4-0.8-0.8-1.2-1.3c-0.3-0.4-0.6-0.8-0.8-1.3
		c-0.2-0.5-0.3-1-0.4-1.5l0,0v-0.1c0-0.4-0.1-0.8-0.1-1.2c0.3-1.3,0.8-2.6,1.3-3.9c0.3-0.6,0.5-1.3,0.6-2l0,0
		c-0.5,1-1.1,1.9-1.8,2.8c-0.5,0.8-1,1.5-1.5,2.3c-0.3,0.7-0.5,1.5-0.5,2.3c-0.1,1,0,2,0.3,2.9c0.3,0.8,0.7,1.6,1.2,2.3
		c0.9,1.1,1.9,2.1,3.1,2.8c0.7,0.4,1.4,0.8,2.1,1.1c0.7,0.2,1.4,0.3,2.1,0.3c1.3,0.1,2.6-0.2,3.7-0.8c1-0.8,1.7-1.8,2.2-2.9
		c0.6-1.2,0.9-2.5,0.9-3.9c-0.1-1.3-0.2-2.6-0.4-4s-0.6-2.8-0.9-4.3C67,82.8,66.6,81.5,65.9,80.3L65.9,80.3z M54.8,89.3L54.8,89.3
		L54.8,89.3z M55,90.7L55,90.7L55,90.7z M66,80.8L66,80.8z"/>
	<path class="st0" d="M69,84.3L69,84.3v5.2c0.1,0.9,0.1,1.7,0.1,2.6v1.4c0,0.4-0.1,0.9-0.1,1.3l0,0c0.1-0.4,0.1-0.8,0.2-1.3
		c0.1-0.5,0.1-0.9,0.1-1.4v-3.8c-0.1-0.2-0.1-0.5-0.1-0.7v-0.7c-0.1-0.4-0.1-0.9-0.1-1.3S69.1,84.7,69,84.3L69,84.3z"/>
	<path class="st0" d="M64.1,81.3L64.1,81.3c0,0.1,0,0.3-0.1,0.4l0,0c0,0.1,0.1,0.3,0.1,0.4c0.1,0.1,0.1,0.2,0.1,0.3v0.3
		c0.1,0.1,0.1,0.3,0.1,0.4l0,0c0.1,0.5,0.2,1,0.2,1.5c0.1,0.5,0.1,1,0.1,1.5v3.1c0,0.2,0,0.3-0.1,0.5s-0.1,0.4-0.2,0.6
		c-0.1,0.4-0.2,0.7-0.3,1c-0.2,0.6-0.5,1.3-0.7,1.9l0,0c-0.1,0.3-0.2,0.5-0.3,0.8l0,0c-0.1,0.3-0.2,0.5-0.3,0.8l0,0
		c-0.1,0.3-0.3,0.6-0.4,0.9c-0.1,0.3-0.3,0.7-0.5,1l0,0c0.2-0.3,0.4-0.6,0.5-0.8s0.3-0.5,0.4-0.7l0.6-1.2c0.1-0.2,0.2-0.5,0.3-0.7
		c0.1-0.2,0.2-0.5,0.3-0.7c0.2-0.4,0.4-0.8,0.5-1.3c0-0.3,0.1-0.5,0.2-0.8c0-0.1,0.1-0.2,0.1-0.3c0-0.1,0.1-0.3,0.1-0.4
		c0-0.2,0.1-0.3,0.1-0.5C65,89.2,65,89,65,88.9v-2.4c0-0.5,0-1.1-0.1-1.6c0-0.5-0.1-1-0.2-1.5c-0.1-0.3-0.1-0.5-0.2-0.8
		c0-0.2,0-0.4-0.1-0.6c0-0.1-0.1-0.2-0.1-0.3C64.3,81.5,64.2,81.4,64.1,81.3L64.1,81.3z M64.6,89.1L64.6,89.1z M63.1,93.8L63.1,93.8
		z M64.5,83.1L64.5,83.1z"/>
	<path class="st0" d="M63,81L63,81v0.9l0,0c-0.1,0.4-0.1,0.7-0.2,1.1c0,0.4-0.1,0.7-0.2,1.1c-0.1,0.8-0.3,1.5-0.5,2.3
		c-0.1,0.3-0.2,0.7-0.3,1.1s-0.2,0.8-0.3,1.1s-0.3,0.7-0.4,1.1C61,89.9,61,90,60.9,90.2c-0.1,0.2-0.1,0.3-0.2,0.5s-0.2,0.5-0.3,0.7
		c0,0.1,0,0.2-0.1,0.3c-0.1,0.1-0.1,0.3-0.2,0.4c0,0.1-0.1,0.3-0.2,0.4c-0.1,0.1-0.1,0.2-0.2,0.3s-0.1,0.2-0.2,0.3
		c0,0.1-0.1,0.2-0.2,0.3l0,0l-0.2,0.2l-0.2,0.2l-0.3,0.3l-0.3,0.3c-0.1,0.1-0.3,0.2-0.4,0.3l0,0c-0.1,0.1-0.2,0.1-0.3,0.2l0,0
		c0.3-0.1,0.6-0.3,0.8-0.5c0.2-0.1,0.4-0.2,0.5-0.4l0.3-0.3c0-0.1,0.1-0.2,0.2-0.3l0.3-0.3c0.1,0,0.2-0.1,0.2-0.2
		c0.1-0.1,0.1-0.2,0.2-0.3s0.1-0.2,0.2-0.3s0.1-0.3,0.2-0.4s0.1-0.2,0.2-0.3c0.2-0.4,0.4-0.9,0.6-1.4s0.4-1,0.5-1.5s0.3-1,0.4-1.5
		l0.3-1.5l0.3-1.5c0.1-0.5,0.1-1.1,0.2-1.6L63,81L63,81z"/>
	<path class="st0" d="M61.2,81L61.2,81c0,0.2,0,0.4,0.1,0.6v0.2c0,0.1-0.1,0.3-0.1,0.4c0,0.1,0,0.3-0.1,0.4c0,0.2-0.1,0.3-0.2,0.5
		l0,0l-0.6,1.2L60,84.9c-0.1,0.1-0.1,0.3-0.2,0.4s-0.1,0.2-0.2,0.3c-0.2,0.4-0.5,0.8-0.7,1.2c-0.2,0.4-0.4,0.7-0.7,1.1l0,0
		c-0.1,0.1-0.2,0.3-0.3,0.4l0,0c-0.4,0.6-0.8,1.1-1.3,1.6c-0.1,0-0.2,0.1-0.2,0.2l-0.2,0.2c-0.1,0.2-0.2,0.3-0.4,0.4
		c-0.3,0.2-0.5,0.4-0.8,0.6l0,0l-0.1,0.1l0,0c0.3-0.2,0.5-0.3,0.8-0.5c0.1-0.2,0.3-0.3,0.5-0.4l0.3-0.3l0.3-0.3
		c0.2-0.1,0.4-0.3,0.5-0.5c0.3-0.4,0.7-0.8,1-1.2c0-0.1,0.1-0.2,0.2-0.3c0.1-0.2,0.2-0.3,0.3-0.4c0.1-0.1,0.1-0.2,0.2-0.3
		s0.1-0.2,0.2-0.3c0.3-0.4,0.6-0.9,0.8-1.4s0.4-0.9,0.6-1.4c0.1-0.3,0.2-0.5,0.3-0.8c0-0.1,0.1-0.3,0.1-0.4s0.1-0.2,0.1-0.4
		s0.1-0.5,0.1-0.7L61.2,81L61.2,81z"/>
	<path class="st0" d="M60.8,80.1L60.8,80.1c-0.5,0.5-0.9,1-1.2,1.6c-0.2,0.2-0.4,0.4-0.5,0.6s-0.3,0.3-0.4,0.5
		c-0.2,0.1-0.4,0.3-0.5,0.5L58,83.5l-0.2,0.2L57.5,84l-0.2,0.2c-0.1,0.2-0.2,0.3-0.4,0.4l0,0l-0.1,0.1l0,0c0.2-0.1,0.4-0.3,0.6-0.4
		c0-0.1,0.1-0.2,0.2-0.2l0.3-0.3l0.5-0.5c0.1-0.2,0.3-0.3,0.4-0.5c0.2-0.2,0.4-0.4,0.5-0.6c0.2-0.2,0.4-0.4,0.5-0.6
		C60.1,81.1,60.5,80.6,60.8,80.1L60.8,80.1z"/>
	<path class="st0" d="M95.3,47.5L95.3,47.5c-0.1,0.3-0.2,0.6-0.1,0.9c-0.3,0.6-0.6,1-0.9,1.5c-0.9,1.1-1.7,2.2-2.4,3.4
		c-0.7,1.4-1,2.9-1,4.5c0,1.1,0,2.1,0.1,3.2c0.2,1.4,0.5,2.7,1.1,4c0.4,1.2,0.9,2.3,1.4,3.4c0.4,0.8,0.8,1.5,1.2,2.3l0,0
		c-0.3-1.3-0.7-2.5-0.9-3.8c-0.3-1.7-0.7-3.3-0.9-5c-0.1-1.4-0.2-2.7-0.1-4.1c0-0.9,0-1.7,0.1-2.6c0.2-1.1,0.5-2.2,1-3.2
		C94.6,50.6,95.6,49.2,95.3,47.5L95.3,47.5z"/>
	<path class="st0" d="M67.9,33.8c-0.2,0-0.3,0,0.2-0.3c-1.3,0-2.5,0.3-3.6,0.9c-1.8,1-3.3,2.3-4.5,4c-0.5,0.6-1,1.3-1.4,2
		c-0.5,0.9-0.9,1.8-1.3,2.7c-0.6,1.6-1,3.2-1.2,4.9c-0.3,1.2-0.5,2.5-0.6,3.8v2.3c0,2.1,0.3,4.3,0.9,6.3c0.4,1.8,1,3.5,1.8,5.1
		c0.6,1.7,1.6,3.3,2.8,4.6c1.5,1.3,3.1,2.4,4.8,3.3c0.6,0.4,1.3,0.7,2,1c0.5,0.3,1,0.5,1.6,0.7c1.6,0.4,3.3,0.3,4.8-0.3
		c1.1-0.5,2.2-1,3.3-1.6c2.4-0.9,4.9-1.6,7.3-2.6c-0.1,0-0.1,0.1-0.2,0.1c1.2-0.5,2.5-1.1,3.8-1.4s2.5-0.6,3.8-0.8l0,0
		c0.2,0,0.4-0.1,0.6-0.1l0,0c-1.9-0.2-3.8-0.1-5.7,0.1c-1.9,0.2-3.7,0.6-5.5,0.9c-0.9,0.1-1.7,0.3-2.6,0.4c-0.9,0.1-1.7,0.2-2.6,0.4
		c-1.2,0.3-2.2,0.9-3.4,1.1h-1.2L70.6,71c-0.8-0.3-1.5-0.8-2.2-1.3c-0.7-0.5-1.3-1-2-1.5c-0.6-0.5-1.2-1-1.7-1.6
		c-0.3-0.4-0.5-0.8-0.7-1.2c-0.3-0.6-0.6-1.3-0.8-2c-0.2-0.7-0.4-1.5-0.6-2.2c-0.5-1.5-0.9-3-1.1-4.5c-0.1-1.7-0.1-3.4,0.1-5.1
		c0.1-1.2,0.3-2.4,0.5-3.6c0.2-1.2,0.5-2.3,0.9-3.4c0.5-1.3,1.2-2.5,2-3.6c0.4-0.5,0.9-0.9,1.4-1.3c0.3-0.2,0.7-0.4,1-0.6
		c0.2-0.1,0.4-0.2,0.6-0.2c1.7-0.2,3.5-0.2,5.2,0c1.7,0.3,3.4,0.7,5,1.3c1.2,0.5,2.4,1.1,3.7,1.8s2.6,1.5,4,2.3
		c1.3,0.7,2.7,1.3,4.1,1.8c1.5,0.5,3,1.2,4.6,1.7l0,0c-1.3-0.8-2.5-1.7-3.8-2.5c-1.2-0.7-2.3-1.4-3.4-2.2c0.1,0,0.1,0.1,0.2,0.1
		c-1.4-1-2.5-2.2-3.9-3.2c-1.2-0.9-2.4-1.8-3.6-2.6c-1.3-0.8-2.7-1.5-4.2-2c-1.6-0.6-3.4-1.1-5.1-1.3C69.8,34,68.9,33.9,67.9,33.8
		L67.9,33.8z M71.7,71.4L71.7,71.4z M91.7,68.7L91.7,68.7z"/>
	<path class="st0" d="M69.2,40.5c-0.4,0-0.7,0.1-1,0.3h-1.5c0.6,0,1.3,0,1.9,0.1l0,0c0.3,0.1,0.5,0.1,0.8,0.2c0.1,0,0.3,0.1,0.4,0.1
		c0.2,0.1,0.5,0.1,0.7,0.2c0.2,0,0.5,0.1,0.7,0.2c0.2,0,0.4,0.1,0.6,0.2c0.4,0.1,0.9,0.2,1.3,0.4c0.4,0.1,0.7,0.2,1.2,0.4
		s0.9,0.3,1.3,0.5s0.8,0.3,1.2,0.5c0.9,0.3,1.8,0.6,2.6,1h-0.1l0.6,0.3c0.2,0.1,0.5,0.2,0.7,0.3l0.6,0.3c0.2,0,0.3,0.1,0.5,0.2
		c0.4,0.2,0.8,0.3,1.2,0.5l1.2,0.6l1.2,0.6c0.4,0.2,0.9,0.4,1.3,0.6c0.1,0.1,0.1,0.1,0.2,0.1c0.1,0.1,0.2,0.1,0.4,0.2
		s0.3,0.1,0.5,0.2l1.5,0.6l0,0l0.6,0.3l0.6,0.3c0.2,0.1,0.3,0.2,0.5,0.3c0.3,0.1,0.5,0.2,0.7,0.4c0.2,0.2,0.4,0.3,0.7,0.5
		s0.5,0.4,0.8,0.6l0,0c-0.4-0.3-0.8-0.6-1.1-0.9s-0.7-0.5-1-0.8c-0.3-0.3-0.6-0.5-1-0.7c-0.3-0.1-0.6-0.3-0.9-0.4
		c-0.1,0-0.2-0.1-0.3-0.1c-0.4-0.1-0.9-0.3-1.3-0.5l0,0l-0.6-0.3c-0.1-0.1-0.3-0.1-0.4-0.2c-0.4-0.1-0.7-0.3-1-0.5
		c-0.3-0.2-0.7-0.4-0.9-0.5s-0.3-0.2-0.5-0.3c-0.2-0.1-0.3-0.2-0.5-0.3c-0.3-0.2-0.7-0.3-1-0.5s-0.7-0.3-1-0.5
		c-0.2,0-0.4-0.1-0.5-0.2c-0.1-0.1-0.2-0.1-0.3-0.2l-0.6-0.3c-0.2-0.1-0.3-0.1-0.5-0.2c-0.4-0.2-0.9-0.4-1.4-0.6s-0.9-0.4-1.4-0.6
		c-0.3-0.1-0.6-0.2-0.8-0.3s-0.5-0.2-0.7-0.3c-0.5-0.2-1-0.4-1.5-0.5s-0.9-0.2-1.4-0.4s-1.1-0.3-1.6-0.5c-0.1,0-0.3-0.1-0.4-0.1
		c-0.1,0-0.2-0.1-0.3-0.1C69.9,40.6,69.5,40.5,69.2,40.5C69.2,40.5,69.2,40.5,69.2,40.5z M89.6,49.1L89.6,49.1z"/>
	<path class="st0" d="M65.7,46.2L65.7,46.2c0,0-0.1,0,0.3,0.1h-4.8c0.7,0,1.3,0.1,2,0.1c0.6,0.1,1.2,0.1,1.8,0.1
		c0.5,0,1.1,0.1,1.6,0.1c0.3,0.1,0.6,0.1,0.9,0.1c0.3,0,0.6,0.1,0.9,0.1l0,0c0.5,0,0.9,0.1,1.4,0.2c0.2,0,0.5,0,0.7,0.1
		c0.3,0.1,0.7,0.1,0.9,0.2s0.5,0.1,0.7,0.2c0.2,0,0.4,0,0.6,0.1c0.3,0,0.6,0.1,0.9,0.2c0.3,0,0.5,0.1,0.8,0.2
		c0.5,0.1,0.9,0.3,1.4,0.4c0.3,0.1,0.5,0.2,0.8,0.3l0.9,0.3c0.3,0.1,0.5,0.2,0.8,0.3c0.2,0,0.4,0.1,0.6,0.2c0.5,0.3,1.1,0.5,1.7,0.7
		c1,0.4,1.9,0.8,2.9,1.2h-0.1c1.2,0.5,2.4,1.1,3.6,1.6c0.3,0.1,0.7,0.3,1,0.4l0.9,0.3c0.6,0.2,1.2,0.5,1.8,0.7l0,0
		c0.2,0,0.3,0.1,0.5,0.2c0.1,0.1,0.2,0.2,0.3,0.2c0.1,0,0.2,0.1,0.3,0.1C91.9,55,92,55,92.1,55l0,0c-0.1-0.1-0.3-0.1-0.4-0.2l0,0
		c-0.4-0.1-0.7-0.3-1-0.5c-0.3-0.1-0.5-0.3-0.8-0.4c-0.5-0.3-1-0.5-1.6-0.7l0,0c-0.4-0.2-0.7-0.3-1.1-0.5L86,52.1
		c-0.5-0.2-1-0.5-1.5-0.7c-0.4-0.3-0.9-0.5-1.4-0.7l-3-1.2c-0.5-0.2-1.1-0.4-1.6-0.6c-0.1,0-0.1,0-0.3-0.1s-0.3-0.1-0.5-0.2
		c-0.2-0.1-0.5-0.1-0.7-0.2c-1.1-0.4-2.2-0.8-3.2-1s-2.1-0.5-3.1-0.7c-0.2,0-0.5-0.1-0.7-0.1s-0.5-0.1-0.8-0.1
		c-0.1-0.1-0.3-0.1-0.4-0.1c-0.2-0.1-0.4-0.1-0.6-0.1c-0.2-0.1-0.5-0.1-0.7-0.1H65.7L65.7,46.2z M67.9,46.7L67.9,46.7z"/>
	<path class="st0" d="M65.9,55.4L65.9,55.4c-0.2,0-0.4,0-0.6-0.1h-1.2c-1.3,0-2.5,0.1-3.7,0.1h0.8c1.1,0,2.2,0.1,3.3,0.1h0.8
		c0.3,0.1,0.7,0.1,1,0.1c0.5,0,1.1,0.1,1.6,0.1c1,0,2.1,0.1,3.1,0.2c0.2,0,0.5,0.1,0.8,0.1s0.6,0.1,0.9,0.1c0.5,0.1,1,0.1,1.5,0.2
		l0,0c0.4,0.1,0.7,0.1,1.1,0.2c0.3,0,0.5,0,0.8,0.1c0.6,0.2,1.3,0.3,1.9,0.4l3.2,0.6c0.2,0,0.5,0.1,0.7,0.1c0.2,0,0.3,0.1,0.5,0.1
		c0.1,0.1,0.2,0.1,0.3,0.1c0.3,0.1,0.6,0.1,0.9,0.2c0.1,0,0.1,0.1,0.3,0.1s0.2,0,0.5,0.1s0.5,0.1,0.8,0.2s0.6,0.1,0.8,0.2l1.6,0.3
		l3.1,0.6l0,0L88.6,59c-0.3-0.1-0.6-0.1-0.9-0.2s-0.6-0.1-0.9-0.2c-0.5-0.1-1.1-0.2-1.6-0.4c-0.3,0-0.5-0.1-0.8-0.2
		c-0.2-0.1-0.5-0.1-0.7-0.2s-0.5-0.1-0.8-0.2s-0.6-0.1-0.9-0.2l-1.4-0.3c-1.1-0.2-2.3-0.5-3.4-0.7c-0.2,0-0.4-0.1-0.7-0.1
		s-0.5-0.1-0.8-0.1c-0.5,0-1-0.1-1.5-0.2c-0.3,0-0.7-0.1-1-0.1c-0.2-0.1-0.5-0.1-0.7-0.1c-0.6-0.1-1.1-0.2-1.7-0.2h-0.7
		c-0.3-0.1-0.6-0.1-0.9-0.1c-0.5-0.1-1-0.1-1.5-0.1H65.9L65.9,55.4z"/>
	<path class="st0" d="M83.5,61.9L83.5,61.9c-1,0-2,0-3-0.2h-5.1c-0.6,0-1.2,0.1-1.6,0.1s-0.9,0.1-1.4,0.1c-0.5,0-1.1,0-1.6,0.1
		c-0.3,0-0.8,0.1-1,0.1s-0.4,0.1-0.6,0.1s-0.4,0.1-0.6,0.1h-0.2c-0.3,0.1-0.6,0.1-0.9,0.2l-1.6,0.3c-0.3,0.1-0.6,0.1-0.8,0.2
		s-0.4,0.1-0.6,0.2c-0.3,0-0.5,0.1-0.8,0.2c-0.2,0-0.4,0.1-0.5,0.1s-0.1,0.1-0.3,0.1s-0.4,0.1-0.6,0.1c-0.1,0.1-0.2,0.1-0.3,0.1
		c-0.3,0.1-0.7,0.1-1,0.2l0,0c0.2-0.1,0.5-0.1,0.7-0.1h0.4c0.3,0,0.5,0,0.8-0.1c0.3-0.1,0.6-0.1,0.9-0.2c0.3-0.1,0.5-0.1,0.9-0.2
		s0.7-0.1,1.1-0.2c0.3,0,0.6,0,0.9-0.1c0.5-0.1,1.1-0.2,1.7-0.3c0.4,0,0.9-0.1,1.2-0.1s0.7-0.1,1-0.1c0.7,0,1.3-0.1,2-0.1
		c0.4,0,0.8-0.1,1.2-0.1c0.4-0.1,0.8-0.1,1.2-0.1h11.5c0.5,0,1.1,0.1,1.6,0.1c0.3,0,0.6,0.1,0.9,0.1h0.3c0.1,0.1,0.3,0.1,0.4,0.1
		l0,0c0.2,0,0.5,0.1,0.7,0.1c0.1,0.1,0.3,0.1,0.4,0.1H91c0.1,0,0.2,0.1,0.3,0.1l0,0c-0.1,0-0.2-0.1-0.3-0.1h-0.2
		c0-0.1-0.1-0.1-0.2-0.1c-0.2,0-0.4-0.1-0.6-0.1s-0.3-0.1-0.5-0.1c-0.2,0-0.3-0.1-0.5-0.1l-2.3-0.3C86.1,62,85.6,62,85,61.9
		L83.5,61.9L83.5,61.9z"/>
	<path class="st0" d="M86.9,66.8L86.9,66.8c-0.7-0.1-1.4-0.1-2.1,0.1l-2.6,0c-0.6,0-1.1,0.1-1.6,0.1c-0.3,0-0.6,0.1-0.8,0.1
		s-0.5,0.1-0.7,0.1c-0.4,0-0.7,0.1-1,0.1c-0.2,0.1-0.4,0.1-0.6,0.1c-0.4,0-0.7,0-1.1,0.1c-0.2,0-0.3,0.1-0.5,0.1
		c-0.4,0.1-0.7,0.1-1.1,0.2c-0.2,0-0.3,0.1-0.5,0.1c-0.4,0-0.7,0.1-1.1,0.2c-0.2,0-0.3,0.1-0.5,0.1c-0.5,0.1-1.1,0.2-1.6,0.4
		L70,68.9c-0.2,0.1-0.3,0.2-0.5,0.2c-0.2,0.1-0.5,0.2-0.6,0.2s-0.2,0.1-0.3,0.1c-0.3,0.1-0.5,0.2-0.8,0.3c-0.2,0-0.4,0.1-0.6,0.2
		c-0.3,0.1-0.5,0.2-0.8,0.3c-0.6,0.3-1.1,0.5-1.7,0.8l0,0c0.5-0.2,1.1-0.4,1.6-0.6c0.2-0.1,0.4-0.1,0.6-0.2s0.4-0.1,0.6-0.2
		c0.4-0.1,0.8-0.3,1.3-0.4s0.9-0.3,1.4-0.4c0.4-0.2,0.9-0.3,1.4-0.4l1.4-0.3c0.3-0.1,0.7-0.1,1-0.2c0.1,0,0.3-0.1,0.4-0.1l1.5-0.3
		c0.5-0.1,1-0.1,1.5-0.2c0.2-0.1,0.5-0.1,0.7-0.1c0.3,0,0.5-0.1,0.8-0.1s0.7-0.1,0.9-0.1s0.4-0.1,0.6-0.1c0.5,0,1.1-0.1,1.6-0.1
		c0.3,0,0.7-0.1,1-0.1h0.8c1.1,0,2.2-0.1,3.2-0.1s2.1-0.1,3.2-0.1h-0.1C89,66.9,88,66.8,86.9,66.8L86.9,66.8z"/>
	<path class="st0" d="M63.5,0.5L63.5,0.5c0,0-0.1,0-0.1,0c-0.3,0-0.5-0.2-0.5-0.5c-0.5,0-1,0.1-1.5,0.1c-1.7,0.2-3.3,0.5-4.9,1
		c-1.7,0.5-3.3,1.1-4.9,1.6c-1.8,0.6-3.5,1.2-5.2,2c-3,1.5-5.8,3.3-8.7,4.9c-0.8,0.4-1.6,0.8-2.3,1.3c-0.7,0.5-1.4,1-2.1,1.4
		c-1.6,0.8-3.1,1.7-4.5,2.7c-0.8,0.7-1.7,1.3-2.4,2c-0.7,0.6-1.3,1.2-1.8,1.9c-1.2,1.4-2.2,2.8-3.1,4.4c-1.8,2.9-3.6,5.9-5.2,8.9
		c-0.8,1.5-1.5,2.8-2.3,4.4s-1.5,3.2-2.2,4.8c-0.3,0.8-0.8,1.5-1.1,2.3c-0.3,0.6-0.6,1.3-0.9,2c-0.8,1.6-1.4,3.2-2.1,4.8
		c-0.4,1.1-0.9,2.1-1.3,3.3s-0.7,2.3-1.1,3.4c-0.7,2.2-1.2,4.5-1.9,6.8c-0.4,1.6-0.9,3.3-1.3,4.9s-0.9,3.2-1.3,4.8
		C0.3,75.4,0.1,77.2,0,79c0,1.5,0,3.1,0.2,4.6c0.1,1.5,0.3,3.1,0.6,4.6c0.4,1.4,0.9,2.8,1.6,4.1c0.7,1.5,1.6,2.9,2.7,4.1
		C5.7,97,6.3,97.6,7,98c0.7,0.5,1.5,0.8,2.3,0.9C9.6,99,9.9,99,10.2,99l0,0c0.7,0.1,1.5,0.3,2.2,0.6l0,0c-0.5-0.3-1-0.6-1.6-0.8
		c-0.6-0.2-1.2-0.3-1.8-0.5c-0.4-0.1-0.8-0.3-1.1-0.6c-0.5-0.5-1-1-1.5-1.6c-0.6-0.8-1.1-1.6-1.5-2.5c-0.7-1.7-1.3-3.5-1.6-5.3
		c-0.1-1.5-0.1-2.9,0-4.4c0.1-1.5,0.2-2.9,0.3-4.3c0.2-0.9,0.3-1.9,0.6-2.9s0.8-2.1,1.2-3.1c0.9-2.1,1.7-4.3,2.4-6.4
		s1.6-4.1,2.3-6.1c0.6-1.8,1.3-3.6,2-5.4c1.1-2.6,2.3-5.1,3.6-7.7l2.1-4.2c0.6-1.3,1.2-2.8,1.9-4.1c1.4-2.7,2.9-5.4,4.4-8.1
		c1.5-2.5,2.9-5.1,4.6-7.5c0.9-1.1,1.9-2.1,3-3.1c0.6-0.5,1.3-1,2-1.4c0.9-0.6,1.9-1.1,2.8-1.7c1.7-1.3,3.5-2.4,5.3-3.6
		s3.7-2.4,5.5-3.5c0.9-0.5,1.8-1.1,2.8-1.6c0.8-0.4,1.7-0.7,2.5-1.1c1.7-0.6,3.3-1.3,5-2c1.6-0.6,3.2-1.1,4.9-1.4
		c1.1-0.2,2.3-0.3,3.4-0.2c0.6,0.1,1.2,0.3,1.7,0.5c1.7,0.9,3.2,1.9,4.7,3.1c1.3,0.9,2.7,1.8,4,2.8c0.9,0.7,1.7,1.5,2.5,2.4
		c0.7,1,1.5,2,2.3,3L81,16.2c1.5,1.9,2.8,4,3.9,6.1l0,0c-0.7-2.1-1.5-4.1-2.5-6c-0.5-0.9-1.1-1.8-1.6-2.8c-0.5-0.9-1-1.8-1.6-2.6
		c-1.4-1.7-3-3.3-4.7-4.7c-0.9-0.9-1.8-1.8-2.8-2.6c-0.6-0.5-1.2-1-1.8-1.4c-0.5-0.3-1-0.6-1.5-0.8c-0.5-0.2-1.1-0.4-1.6-0.6
		C65.7,0.6,64.6,0.5,63.5,0.5L63.5,0.5z M78.6,13.2l0.1,0.1L78.6,13.2L78.6,13.2z M7.9,50.4c0,0.2-0.1,0.3-0.2,0.4
		C7.8,50.7,7.8,50.5,7.9,50.4L7.9,50.4z M3.4,80.1L3.4,80.1L3.4,80.1z M9,98.7L9,98.7z M10,99.4L10,99.4z"/>
	<path class="st0" d="M56.1,5.5L56.1,5.5c0.2,0.2,0.5,0.4,1,0.8c0.2,0.2,0.5,0.3,0.7,0.5c0.3,0.3,0.7,0.5,1.1,0.7
		c0.9,0.5,1.7,1,2.6,1.5c0.2,0.1,0.4,0.3,0.6,0.4s0.4,0.3,0.6,0.4c0.4,0.2,0.9,0.5,1.3,0.8c0.4,0.2,0.8,0.5,1.2,0.8
		c0.1,0.1,0.2,0.1,0.3,0.2c0.1,0,0.2,0.1,0.3,0.2c0.1,0.2,0.3,0.3,0.5,0.4l0,0c0.6,0.5,1.2,1,1.8,1.4c0.3,0.3,0.6,0.5,0.9,0.7
		c0.3,0.2,0.5,0.4,0.8,0.6l0,0l0.2,0.2c0.2,0.2,0.4,0.3,0.6,0.5s0.5,0.4,0.7,0.6c0.4,0.3,0.8,0.7,1.2,1c0.2,0.2,0.4,0.3,0.6,0.5
		c0.3,0.1,0.5,0.3,0.7,0.5c0.2,0.2,0.5,0.4,0.7,0.6c0.1,0.2,0.3,0.3,0.5,0.4c0.2,0.1,0.4,0.3,0.6,0.4s0.3,0.2,0.6,0.4
		s0.6,0.3,0.8,0.5s0.5,0.3,0.7,0.5c0.2,0.1,0.4,0.2,0.6,0.4c0.2,0.1,0.4,0.2,0.6,0.4s0.4,0.3,0.6,0.5s0.5,0.3,0.7,0.5l0,0
		c0.6,0.4,1.1,0.8,1.6,1.2l0,0c-0.4-0.4-1-0.9-1.3-1.2s-0.6-0.5-0.9-0.8c-0.1-0.2-0.2-0.3-0.4-0.4c-0.2-0.1-0.3-0.2-0.4-0.3
		c-0.3-0.2-0.6-0.5-0.9-0.7c-0.3-0.3-0.7-0.6-1.1-0.8c-0.3-0.3-0.7-0.5-1-0.7c-0.3-0.2-0.7-0.5-1-0.7c-0.2-0.1-0.3-0.2-0.4-0.3
		c-0.1-0.2-0.3-0.3-0.5-0.4H74c-0.1-0.1-0.3-0.2-0.4-0.3s-0.3-0.2-0.4-0.3c-0.2-0.3-0.5-0.5-0.8-0.7c-0.5-0.5-1-1-1.6-1.4
		c-0.3-0.2-0.5-0.4-0.8-0.6s-0.5-0.4-0.8-0.6s-0.5-0.4-0.8-0.6c-0.2-0.1-0.5-0.3-0.7-0.5l0,0c-0.2-0.2-0.4-0.3-0.6-0.5
		s-0.4-0.3-0.6-0.5s-0.4-0.3-0.6-0.5c-0.2-0.2-0.4-0.4-0.6-0.5c-0.2-0.1-0.4-0.3-0.6-0.4c-0.9-0.6-1.9-1.2-2.8-1.7
		c-0.5-0.3-1.1-0.6-1.5-0.8s-1-0.6-1.3-0.7s-0.5-0.3-0.8-0.4l-0.6-0.3c-0.3-0.1-0.5-0.2-0.8-0.4S56.4,5.7,56.1,5.5L56.1,5.5z
		 M80.3,22.6L80.3,22.6z M69.7,14.7L69.7,14.7z M69.7,14.7L69.7,14.7z M66.2,12L66.2,12z"/>
	<path class="st0" d="M44.6,10L44.6,10c0.3,0.1,0.7,0.1,1,0c0.1,0,0.3,0,0.4,0.1c0.2,0.1,0.5,0.2,0.7,0.3l0,0
		c0.2,0.2,0.4,0.3,0.7,0.4c0.2,0.1,0.5,0.3,0.7,0.4l1.5,0.9c0.2,0.1,0.5,0.3,0.7,0.4l0.6,0.3c0.4,0.2,0.9,0.5,1.4,0.7l3,1.5
		c0.2,0.2,0.5,0.3,0.8,0.4c0.2,0.1,0.5,0.2,0.7,0.3c0.5,0.2,1,0.4,1.4,0.7c0.4,0.3,0.9,0.5,1.3,0.8c0.5,0.2,0.9,0.5,1.3,0.8
		c1,0.7,1.9,1.3,2.9,1.9c0.4,0.3,0.8,0.5,1.2,0.8c0.5,0.2,0.9,0.5,1.3,0.8c0.5,0.3,1,0.7,1.5,1l1.5,0.9l0,0c-0.3-0.2-0.7-0.5-1-0.7
		c-0.2-0.1-0.5-0.3-0.7-0.5c-0.5-0.3-0.9-0.7-1.4-1c-0.2-0.1-0.4-0.3-0.6-0.4s-0.4-0.3-0.6-0.4c-0.9-0.6-1.9-1.3-2.8-1.9
		c-0.4-0.3-0.9-0.6-1.2-0.8s-0.6-0.4-0.8-0.5s-0.5-0.3-0.7-0.4c-0.9-0.5-1.9-1.1-2.8-1.5c-0.4-0.3-0.9-0.5-1.4-0.7
		c-0.2-0.2-0.4-0.3-0.7-0.4c-0.3-0.1-0.5-0.3-0.8-0.4c-0.5-0.2-1.1-0.5-1.6-0.7c-0.3-0.1-0.6-0.2-0.8-0.3s-0.5-0.2-0.7-0.3
		c-0.5-0.2-0.9-0.4-1.4-0.7s-1-0.5-1.5-0.8c-0.1,0-0.3-0.1-0.4-0.2c-0.1,0-0.2-0.1-0.3-0.1s-0.2-0.1-0.3-0.1
		c-0.1-0.1-0.1-0.1-0.2-0.1h-0.1c-0.1,0-0.3-0.1-0.4-0.1s-0.2-0.1-0.3-0.1L44.6,10L44.6,10z M46.3,10.6L46.3,10.6z"/>
	<path class="st0" d="M37.4,15.4L37.4,15.4c0.3,0.1,0.6,0.2,0.9,0.2c0.2,0.1,0.3,0.2,0.5,0.2l0,0l1.2,0.6c0.2,0.1,0.5,0.2,0.7,0.3
		s0.5,0.3,0.7,0.4s0.2,0.2,0.5,0.3s0.4,0.2,0.8,0.4s0.8,0.5,1.2,0.7s0.6,0.3,1.1,0.6s1.1,0.7,1.6,1c0.1,0,0.1,0.1,0.2,0.1
		s0.1,0.1,0.2,0.1c0.2,0.1,0.5,0.3,0.7,0.5c0.4,0.2,0.7,0.5,1.1,0.7c0.2,0.1,0.5,0.2,0.7,0.4c0.3,0.2,0.5,0.3,0.8,0.5
		c0.4,0.3,0.8,0.6,1.3,0.8c0.2,0.1,0.4,0.2,0.7,0.4s0.6,0.3,0.9,0.5c0.4,0.3,0.8,0.5,1.3,0.7c1,0.5,2,0.9,3,1.4
		c0.5,0.3,1,0.5,1.5,0.7c0.6,0.3,1.1,0.5,1.7,0.8l0,0c-0.5-0.3-1-0.6-1.6-0.9c-0.4-0.3-0.9-0.6-1.4-0.8c-1-0.5-1.9-1-2.9-1.5
		c-0.5-0.2-1-0.5-1.3-0.7s-0.6-0.3-0.9-0.5L52,23c-0.5-0.2-1-0.5-1.5-0.8c-0.4-0.2-0.9-0.5-1.3-0.8c-0.2-0.1-0.4-0.2-0.6-0.4
		s-0.4-0.3-0.7-0.5s-0.5-0.4-0.8-0.6c-0.2,0-0.3-0.1-0.4-0.2c-0.5-0.4-1.1-0.7-1.7-1c-0.2-0.1-0.3-0.2-0.5-0.3
		c-0.4-0.1-0.7-0.3-1-0.5c-0.2-0.1-0.3-0.2-0.5-0.3c-0.3-0.1-0.5-0.3-0.8-0.4l-0.6-0.3c-0.3-0.1-0.5-0.2-0.8-0.3
		c-0.1-0.1-0.3-0.2-0.4-0.2s-0.2-0.1-0.3-0.1c-0.2-0.1-0.5-0.2-0.7-0.3c-0.3-0.1-0.6-0.3-0.8-0.3s-0.3,0-0.5-0.1
		S37.6,15.5,37.4,15.4L37.4,15.4z"/>
	<path class="st0" d="M29.6,21.1L29.6,21.1c0.3,0.1,0.6,0.3,0.9,0.5c0.2,0,0.4,0,0.6,0.1c0.3,0,0.5,0.1,0.8,0.2
		c0.3,0.1,0.7,0.3,1,0.4l0,0c0.3,0.1,0.6,0.2,0.9,0.4c0.2,0,0.3,0.1,0.4,0.2l0.6,0.3c0.3,0.1,0.5,0.2,0.7,0.4
		c0.3,0.2,0.4,0.3,0.8,0.5s0.8,0.5,1.2,0.7l1.5,0.9c0.4,0.2,0.8,0.5,1.2,0.7l1.5,0.9l0.6,0.3c0.3,0.2,0.5,0.3,0.8,0.5
		c0.5,0.2,0.9,0.5,1.3,0.7c0.6,0.3,1.1,0.6,1.6,0.9c0.2,0.1,0.5,0.2,0.7,0.4c0.1,0.6,0.7,0.4,1,0.6c0.1,0,0.1,0.1,0.2,0.1
		c0.3,0.1,0.6,0.3,0.8,0.5c0.5,0.4,1.1,0.7,1.6,1.1l0,0c-0.8-0.6-1.5-1.1-2.2-1.7c-0.3-0.3-0.6-0.5-0.9-0.7l-0.9-0.6
		c-0.3-0.2-0.7-0.4-1-0.6l-0.9-0.6c-0.6-0.4-1.3-0.8-1.9-1.2c-0.2-0.1-0.5-0.3-0.7-0.4l-0.6-0.3c-0.3-0.2-0.6-0.3-0.9-0.5l-0.6-0.3
		c-1-0.5-1.9-1.1-2.9-1.6l-0.6-0.3c-0.2-0.1-0.5-0.2-0.7-0.4c-0.3-0.2-0.6-0.3-0.9-0.5c-0.1,0-0.1-0.1-0.2-0.1
		c-0.2,0-0.4-0.1-0.5-0.2c-0.4-0.3-0.9-0.5-1.4-0.6c-0.2-0.1-0.4-0.2-0.6-0.2c-0.2,0-0.4-0.1-0.5-0.1s-0.3-0.1-0.4-0.1
		c-0.1-0.1-0.2-0.1-0.3-0.1C30.4,21.2,30,21.2,29.6,21.1L29.6,21.1z M32.9,22.1L32.9,22.1z"/>
	<path class="st0" d="M23.9,26.3L23.9,26.3c0.4,0.2,0.9,0.3,1.3,0.3c0.2,0.1,0.4,0.1,0.6,0.2c0.2,0,0.4,0.1,0.6,0.2l0,0l0.6,0.3
		c0.8,0.3,1.5,0.6,2.2,0.9l0,0c0.4,0.2,0.7,0.3,1.1,0.5l0.6,0.3c0.2,0,0.4,0.1,0.5,0.2c0.2,0.1,0.5,0.2,0.7,0.3
		c0.2,0.1,0.4,0.3,0.5,0.3s0.1,0.1,0.2,0.1c0.3,0.2,0.6,0.3,0.9,0.5c0.2,0.2,0.4,0.3,0.6,0.4c0.2,0.1,0.3,0.2,0.6,0.4
		s0.5,0.4,0.8,0.6s0.7,0.5,1.1,0.8c0.2,0.2,0.5,0.4,0.8,0.6c0.1,0,0,0,0.2,0.1s0.3,0.2,0.5,0.3c0.4,0.2,0.9,0.5,1.3,0.8
		c0.4,0.3,0.8,0.6,1.4,0.9s1.1,0.7,1.6,1l0,0c-0.4-0.3-0.9-0.6-1.3-0.9c-0.4-1.2-1.6-1-2.4-1.6c-0.3-0.2-0.7-0.5-1-0.7l0,0
		c-0.3-0.2-0.6-0.5-0.9-0.7l0,0c-0.3-0.3-0.7-0.5-1-0.8c-0.2-0.2-0.5-0.4-0.8-0.6c-0.1-0.2-0.3-0.3-0.5-0.4
		c-0.2-0.1-0.5-0.2-0.7-0.4c-0.3-0.2-0.5-0.4-0.8-0.5c-0.3-0.1-0.5-0.2-0.8-0.4L31.8,29c-0.2-0.1-0.4-0.2-0.7-0.3s-0.5-0.2-0.8-0.3
		c-0.5-0.2-1.1-0.4-1.6-0.6l-1.5-0.6c-0.1,0-0.3-0.1-0.4-0.1S26.6,27,26.5,27s-0.3-0.1-0.4-0.1s-0.2-0.1-0.3-0.1
		c-0.3-0.1-0.5-0.1-0.8-0.2L23.9,26.3L23.9,26.3z M26.5,27.2L26.5,27.2z M27.1,27.5L27.1,27.5z M37.9,33.1L37.9,33.1z"/>
	<path class="st0" d="M20.7,33.6c0.5,0.3,1,0.5,1.6,0.6c0.1,0.1,0.3,0.1,0.4,0.2l0.6,0.3c0.2,0.1,0.5,0.2,0.7,0.4l0.6,0.3
		c0.2,0.1,0.6,0.3,0.7,0.4s0.3,0.2,0.4,0.3c0.1,0,0.1,0,0.2,0.1c0.3,0.1,0.5,0.2,0.7,0.4c0.2,0.1,0.4,0.3,0.6,0.4
		c0.4,0.3,0.9,0.6,1.3,0.9c0.9,0.6,1.8,1.1,2.7,1.7l0.6,0.3c0.1,0,0.1,0.1,0.2,0.1c0.3,0.2,0.5,0.3,0.8,0.5c0,0.1,0.1,0.2,0.2,0.2
		c0.1,0.1,0.2,0.1,0.3,0.2c0.2,0.1,0.5,0.3,0.7,0.5c0.3,0.2,0.5,0.4,0.7,0.6l0.4,0.4c0.5,0.5,1,0.9,1.5,1.4l0,0
		c-0.4-0.5-0.9-0.9-1.3-1.4L35,42.1c-0.3-0.2-0.5-0.4-0.7-0.6c0-0.1-0.1-0.2-0.2-0.2l-0.2-0.2c-0.3-0.2-0.5-0.4-0.7-0.6
		c-0.1-0.1-0.3-0.2-0.4-0.3c-0.2-0.1-0.5-0.3-0.7-0.5c-0.2-0.2-0.5-0.4-0.7-0.5s-0.3-0.2-0.5-0.3L29.4,38c-0.5-0.2-0.9-0.5-1.3-0.8
		c-0.4-0.3-0.9-0.5-1.3-0.8C26,35.9,25,35.5,24.1,35l-0.6-0.3c-0.1,0-0.1-0.1-0.2-0.1c-0.3-0.1-0.6-0.3-0.9-0.4
		c-0.2,0-0.4-0.1-0.6-0.2C21.5,33.9,21.1,33.7,20.7,33.6C20.7,33.6,20.7,33.6,20.7,33.6z M33.9,41.6L33.9,41.6z"/>
	<path class="st0" d="M15.9,43.2c0.4,0.1,0.7,0.2,1,0.4c0.3,0.1,0.5,0.2,0.8,0.3c0.2,0,0.5,0.1,0.7,0.2c0.2,0.1,0.2,0.1,0.5,0.2
		s0.5,0.2,0.8,0.3l0.9,0.3c0.5,0.2,0.9,0.3,1.4,0.5l0.9,0.3c0.3,0,0.5,0.1,0.8,0.2c0.6,0.2,1.1,0.4,1.6,0.5s0.8,0.2,1.4,0.4
		s1.2,0.4,1.7,0.5s1,0.3,1.5,0.4c0.6,0.1,1.3,0.3,1.9,0.5l0,0c-0.3-0.1-0.7-0.2-1-0.4c-0.2,0-0.4-0.1-0.6-0.2
		c-0.4-0.2-0.9-0.3-1.4-0.5s-0.9-0.3-1.4-0.5c-0.3-0.1-0.5-0.2-0.8-0.3L25.7,46c-0.5-0.1-0.9-0.3-1.4-0.4c-0.5-0.1-1-0.2-1.5-0.4
		c-0.2-0.1-0.5-0.2-0.6-0.2s-0.2-0.1-0.3-0.1c-0.3-0.1-0.5-0.2-0.8-0.3c-0.5-0.1-0.8-0.2-1.4-0.4s-1.1-0.3-1.7-0.5
		c-0.3-0.1-0.5-0.1-0.8-0.2c-0.1,0-0.3-0.1-0.4-0.1C16.5,43.3,16.2,43.3,15.9,43.2C15.9,43.2,15.9,43.2,15.9,43.2z"/>
	<path class="st0" d="M13.1,49.9L13.1,49.9c0.6,0.2,1.1,0.6,1.4,1.1c0.2,0.1,0.4,0.2,0.5,0.2s0.2,0.1,0.3,0.1c0,0.1,0.1,0.1,0.2,0.1
		c0.2,0.1,0.3,0.2,0.5,0.3c0.1,0.1,0.3,0.1,0.4,0.2c0.3,0.1,0.6,0.3,0.9,0.5c0.7,0.4,1.4,0.9,2.1,1.3c0.2,0,0.3,0.1,0.4,0.2
		c0.1,0.1,0.3,0.2,0.4,0.3l0.1,0.1l0.9,0.6l0,0c0.2,0.1,0.4,0.3,0.5,0.4s0.3,0.2,0.4,0.3c0.3,0.2,0.6,0.5,0.9,0.8l0.6,0.6l0.3,0.3
		c0.4,0.4,0.8,0.9,1.2,1.3l0,0c-0.4-0.6-0.8-1.1-1.2-1.6c0-0.1,0-0.2-0.1-0.2c0-0.1-0.1-0.2-0.2-0.3c-0.2-0.1-0.3-0.2-0.4-0.4
		c0-0.1,0-0.2-0.1-0.2l-0.7-0.7c-0.1-0.2-0.3-0.4-0.5-0.5c-0.1-0.2-0.3-0.4-0.5-0.5c-0.2-0.2-0.6-0.5-0.7-0.6s-0.2-0.1-0.3-0.2
		s-0.3-0.2-0.4-0.3c-0.2-0.2-0.4-0.3-0.6-0.4c-0.5-0.3-0.9-0.5-1.4-0.8c-0.2-0.2-0.4-0.3-0.7-0.4c-0.2,0-0.4-0.1-0.5-0.2
		c-0.1,0-0.1-0.1-0.2-0.1c-0.3-0.1-0.6-0.3-0.9-0.4c0-0.1-0.1-0.1-0.2-0.1c-0.2-0.1-0.3-0.1-0.5-0.2C14.4,50.3,13.7,50.1,13.1,49.9
		L13.1,49.9z"/>
	<path class="st0" d="M6.7,59L6.7,59c0.4,0.2,0.8,0.4,1.1,0.7c0.1,0,0.3,0.1,0.4,0.1c0.1,0,0.3,0.1,0.4,0.1l0,0
		c0.4,0.2,0.7,0.4,1.1,0.5c0.1,0.1,0.3,0.1,0.4,0.2c0.2,0.1,0.3,0.2,0.5,0.3c0.7,0.4,1.5,0.7,2.2,1.1c0.4,0.1,0.8,0.3,1.2,0.5
		c0.4,0.1,0.7,0.3,1.1,0.4s0.7,0.3,1.1,0.4c0.2,0.1,0.3,0.1,0.5,0.2c0.2,0.1,0.3,0.2,0.5,0.2c0.3,0.1,0.7,0.3,0.9,0.4
		c0.2,0.1,0.5,0.3,0.7,0.4c0.6,0.3,1.1,0.6,1.7,0.9l0,0c-0.4-0.3-0.9-0.6-1.4-0.9c-0.2-0.1-0.5-0.3-0.7-0.4
		c-0.2-0.1-0.3-0.2-0.5-0.3s-0.3-0.2-0.5-0.3c0,0,0,0,0,0c0-0.1,0-0.1-0.1-0.1c-0.3-0.1-0.4-0.2-0.8-0.4s-0.8-0.3-1.2-0.5
		c-0.7-0.3-1.4-0.6-2-0.9c-0.7-0.4-1.4-0.7-2.1-1c-0.2-0.1-0.3-0.1-0.5-0.2l-0.6-0.3l-0.9-0.3c-0.1-0.1-0.3-0.1-0.4-0.2
		c0-0.1-0.1-0.1-0.2-0.1c-0.2-0.1-0.4-0.2-0.6-0.2c-0.2,0-0.2,0-0.5-0.1S6.9,59.1,6.7,59L6.7,59z M15.3,62.4L15.3,62.4z"/>
	<path class="st0" d="M10,68.2L10,68.2c-1.8-0.6-3.7-0.9-5.6-1l0,0c0.6,0.1,1.3,0.2,1.9,0.4c0.6,0.1,1.1,0.3,1.6,0.4
		c0.2,0.1,0.5,0.1,0.7,0.2s0.5,0.1,0.7,0.2c0.3,0,0.6,0.1,0.8,0.2c0.2,0.1,0.4,0.2,0.5,0.2s0.2,0.1,0.3,0.1l0.9,0.3
		c0.2,0.1,0.5,0.2,0.7,0.3c0.5,0.2,0.8,0.3,1.4,0.5s1.1,0.4,1.7,0.6c0.6,0.2,1.1,0.4,1.7,0.6l0,0c-0.5-0.3-1-0.5-1.5-0.7
		c-0.3-0.1-0.7-0.3-1-0.4c-0.8-0.3-1.6-0.7-2.4-1c-0.4-0.2-0.9-0.3-1.3-0.5c-0.2-0.1-0.4-0.1-0.6-0.2C10.3,68.3,10.2,68.2,10,68.2
		L10,68.2z M14.9,70.1L14.9,70.1z"/>
	<path class="st0" d="M2.7,74.7L2.7,74.7c0.2,0.1,0.4,0.2,0.9,0.5c0.2,0,0.4,0.1,0.5,0.2l0.6,0.3C4.9,75.8,5,75.9,5.2,76
		s0.4,0.3,0.5,0.3s0.1,0.1,0.2,0.1c0.4,0.3,0.8,0.5,1.2,0.8c0.2,0.1,0.3,0.2,0.5,0.3c0.1,0.1,0.3,0.2,0.4,0.2c0.1,0,0.1,0.1,0.2,0.1
		l0.6,0.3c0.2,0.1,0.5,0.1,0.7,0.2c0.2,0,0.3,0.1,0.5,0.1h0.2c0.2,0,0.3,0.1,0.5,0.1h0.2c0.2,0,0.5,0.1,0.7,0.1h2.3
		c-0.5,0-1-0.1-1.5-0.1H12c-0.3-0.1-0.6-0.1-0.9-0.2h-0.4c-0.1,0-0.3-0.1-0.4-0.1c-0.1-0.1-0.2-0.1-0.3-0.1H9.9
		c-0.1,0-0.3-0.1-0.4-0.1c-0.1-0.1-0.1-0.1-0.2-0.1H9.2c-0.2-0.1-0.5-0.2-0.7-0.3c-0.1-0.1-0.3-0.1-0.4-0.2
		c-0.1-0.1-0.1-0.1-0.2-0.1L7.3,77l-1.5-0.9c-0.2-0.2-0.4-0.3-0.7-0.4l-0.6-0.3l-0.6-0.3C3.7,75,3.6,75,3.4,74.9
		C3.2,74.9,2.9,74.8,2.7,74.7L2.7,74.7z M8.6,77.5L8.6,77.5z"/>
	<path class="st0" d="M3.2,83.8L3.2,83.8c0.6,0.1,1.2,0.3,1.8,0.5c0.3,0,0.5,0.1,0.8,0.1s0.5,0.1,0.8,0.1s0.6,0.1,0.8,0.1
		s0.5,0.1,0.7,0.1c0.3,0.1,0.5,0.1,0.8,0.1c0.2,0,0.5,0.1,0.7,0.1c0.3,0,0.6,0,0.9,0.1l1.3,0.3l0,0c-0.4-0.2-0.8-0.3-1.2-0.4
		c-0.3-0.1-0.5-0.2-0.8-0.2S9.3,84.6,9,84.6s-0.5-0.1-0.8-0.1l0,0c-0.4-0.1-0.8-0.1-1.2-0.2c-0.4-0.1-0.7-0.2-1.1-0.2L3.2,83.8
		L3.2,83.8z M9.6,84.8L9.6,84.8z"/>
	<path class="st0" d="M5,91L5,91c-0.2-0.1-0.5-0.1-0.7-0.1l0,0C4.5,91,4.8,91,5,91c0.1,0,0.2,0.1,0.2,0.2c0.2,0,0.3,0,0.5,0.1
		c0.3,0.2,0.7,0.3,1.1,0.4c0.4,0.1,0.8,0.2,1,0.3c0.2,0.1,0.4,0.1,0.6,0.2s0.3,0.1,0.6,0.2s0.6,0.3,0.9,0.4c0.4,0.3,0.8,0.5,1.3,0.7
		l0,0c-0.3-0.3-0.6-0.5-1-0.7c-0.1-0.1-0.2-0.1-0.3-0.2v0c0-0.1,0-0.1-0.1-0.1c-0.1-0.1-0.2-0.1-0.3-0.2s-0.3-0.1-0.4-0.2H9
		C9,92,8.9,92,8.8,92c-0.1,0-0.3-0.1-0.4-0.1c-0.2-0.1-0.3-0.1-0.5-0.2c-0.5-0.1-1-0.3-1.5-0.4c-0.3-0.1-0.7-0.2-0.9-0.2
		S5.2,91,5,91L5,91z M8.9,92.3L8.9,92.3z"/>
	<path class="st0" d="M7.4,95.2L7.4,95.2c-0.4,0-0.8-0.1-1.2-0.1l0,0c0.5,0.2,1.1,0.3,1.6,0.4c0.4,0.1,0.9,0.2,1.3,0.4l0,0
		c0.6,0.2,1.2,0.5,1.7,0.9l0,0c-0.1-0.2-0.3-0.3-0.5-0.4c-0.1-0.1-0.3-0.2-0.4-0.3c-0.2-0.2-0.4-0.3-0.6-0.4
		c-0.2-0.1-0.3-0.2-0.5-0.2c-0.2-0.1-0.5-0.2-0.7-0.2C7.8,95.3,7.6,95.2,7.4,95.2L7.4,95.2z"/>
	<path class="st0" d="M138.7,73.4L138.7,73.4c-0.1,0-0.2-0.1,0.1,0.2c-0.2,0-0.4,0-0.6,0.1c-0.1,0-0.2,0-0.3,0.1
		c-0.1,0-0.2,0.1-0.3,0.2c-0.2,0.1-0.4,0.3-0.6,0.5l-0.5,0.5c0,0.1-0.1,0.1-0.1,0.2s-0.1,0.1-0.1,0.2c-0.1,0.1-0.2,0.2-0.2,0.4
		c-0.1,0.2-0.1,0.5-0.1,0.7v0.9l0.1,0.1h0.2l0.1-0.1c0-0.1,0.1-0.1,0.1-0.2c0.1,0,0.2-0.1,0.2-0.2c0-0.1,0.1-0.2,0.2-0.3
		c0-0.1,0.1-0.2,0.2-0.2l0,0c0.1-0.1,0.1-0.1,0.2-0.1c0.1-0.1,0.2-0.1,0.3-0.1h0.5c0.1,0.1,0.3,0.2,0.4,0.3l0.3,0.3
		c0.1,0.1,0.1,0.1,0.1,0.2c0,0.1,0.1,0.3,0.1,0.4l0,0V78c0,0.1-0.1,0.1-0.1,0.2l0,0l-0.2,0.2l0,0l-0.1,0.1c-0.1,0-0.1,0.1-0.2,0.1
		l0,0c-0.1,0.1-0.1,0.1-0.2,0.1H138c-0.3,0.1-0.5,0.1-0.8,0.1h-0.8c0-0.1-0.1-0.1-0.2-0.1l0,0c-0.1,0-0.1-0.1-0.2-0.1l0,0
		c-0.1-0.1-0.1-0.2-0.1-0.3l0,0c0,0.3,0,0.5,0.1,0.8c0,0.1,0.1,0.3,0.1,0.4s0.1,0.2,0.1,0.3s0,0.1,0.1,0.3s0.2,0.3,0.3,0.5
		c0.2,0.2,0.4,0.4,0.6,0.5l0.6,0.3c0.2,0.1,0.4,0.2,0.6,0.2s0.4,0.1,0.6,0.1h1c0.2,0,0.5-0.1,0.6-0.1s0.2-0.1,0.3-0.1l0,0
		c0-0.1,0-0.1,0.1-0.1c0.1-0.1,0.1-0.1,0.2-0.1c0.1-0.1,0.2-0.1,0.3-0.2l0,0c0-0.1,0-0.1,0.1-0.1l0.1-0.1l0.2-0.2
		c0.2-0.1,0.3-0.3,0.4-0.5c0.3-0.4,0.5-0.8,0.6-1.2c0.1-0.3,0.2-0.5,0.2-0.8c0.1-0.2,0.1-0.5,0.1-0.7v-0.7c0-0.2-0.1-0.5-0.1-0.7
		c0-0.2-0.1-0.5-0.2-0.7c-0.1-0.1-0.1-0.2-0.2-0.3c0-0.1-0.1-0.2-0.2-0.3l-0.3-0.3c0-0.1-0.1-0.2-0.2-0.2c-0.2-0.1-0.3-0.2-0.5-0.3
		c-0.2-0.1-0.5-0.2-0.7-0.3c-0.2-0.1-0.5-0.2-0.7-0.2c-0.1-0.1-0.3-0.1-0.4-0.1L138.7,73.4L138.7,73.4z M138,76L138,76z M138,76
		L138,76z M136,76.3L136,76.3z M138.9,76.8L138.9,76.8z M135.9,78.3L135.9,78.3z M137.8,78.4L137.8,78.4z M136.5,80L136.5,80z"/>
</g>
</svg>
