<svg id="Layer_1" data-name="Layer 1" xmlns="http://www.w3.org/2000/svg" viewBox="0 0 164.83 183.9"><defs><style>.cls-1{fill:#2c2c2c;}</style></defs><title>salmonLogoOne</title><g id="Layer_2" data-name="Layer 2"><path class="cls-1" d="M120.5,82.5c-0.3.1-.5,0.1-0.8,0.2L118,83a7.72,7.72,0,0,1-1.5.2l-1.6.3c-1,.3-2,0.6-3.1.9-0.5.1-1,.3-1.4,0.4l-1.5.6a8.27,8.27,0,0,0-1.3.7c-0.5.2-.9,0.5-1.3,0.7-0.9.5-1.9,1.1-2.8,1.7-0.5.3-.9,0.6-1.4,0.9s-0.8.5-1.2,0.8-0.9.6-1.4,0.9a11.32,11.32,0,0,0-1.3,1,10.63,10.63,0,0,0-1.1.9c-0.4.4-.8,0.7-1.2,1.1l-2.4,2.1c-0.4.3-.8,0.7-1.2,1a11.41,11.41,0,0,0-1.1,1.1,15.38,15.38,0,0,1-1.3,1.2,12,12,0,0,1-1.2,1.1c-0.6.5-1.1,1.1-1.7,1.7s-1.2,1.1-1.8,1.7a14.62,14.62,0,0,0-1.6,1.9c-0.5.7-1,1.3-1.5,2l0.1-.1a18.4,18.4,0,0,0-1.7,2.2c-0.5.7-1,1.4-1.6,2.1a20.65,20.65,0,0,0-1.9,2.5c-0.6.9-1.1,1.9-1.6,2.8s-0.9,2-1.3,3-0.7,2-1.1,3-0.6,1.9-1,2.8-0.7,2-1.1,3.1a7.49,7.49,0,0,0-.4,1.6c-0.1.5-.2,0.9-0.3,1.4s-0.3,1.1-.4,1.6l-0.3,1.5-0.3,1.5c-0.1.5-.2,1-0.3,1.6-0.2,1.1-.5,2.1-0.6,3.2-0.1.5-.1,1-0.2,1.6a7.72,7.72,0,0,0-.2,1.5,7.72,7.72,0,0,0-.2,1.5c-0.1.6-.1,1.2-0.2,1.7-0.1,1-.1,2.1-0.1,3.1v4.6a2.77,2.77,0,0,0,.1.9,4.79,4.79,0,0,0,.7,2,4.23,4.23,0,0,0,.5.7l0.6,0.6a8.34,8.34,0,0,0,1.2.8c0.4,0.2.9,0.5,1.3,0.7a11.05,11.05,0,0,0,3.1.9,16.68,16.68,0,0,0,3.2.2c1.1,0,2.1,0,3.2-.1s2.1-.3,3.1-0.5c0.5-.1,1-0.2,1.6-0.3l1.5-.3c1-.2,2-0.5,3-0.7,0.5-.1,1-0.3,1.5-0.4a12.13,12.13,0,0,1,1.4-.5c0.5-.2,1-0.3,1.6-0.5s1-.2,1.4-0.3a8.8,8.8,0,0,0,1.5-.5,10.09,10.09,0,0,0,1.5-.7c0.5-.2.9-0.4,1.4-0.6,0.1,0,.2-0.1.3-0.1a22.5,22.5,0,0,0,2.4-.8,1.85,1.85,0,0,1,.7-0.2c0.2-.1.5-0.2,0.7-0.3,0.5-.2.9-0.4,1.4-0.6,1-.5,1.9-1,2.8-1.5a24,24,0,0,0,2.6-1.8,10.63,10.63,0,0,0,1.1-.9c0.4-.3.8-0.7,1.2-1a6.47,6.47,0,0,1,.9-0.8,1.47,1.47,0,0,1,.4-0.2,11.73,11.73,0,0,0,1.1-.5h0l0.6-.3h0a8.8,8.8,0,0,0-1.5.5,0.35,0.35,0,0,0-.2.1,9,9,0,0,0,.9-1c0.3-.4.7-0.7,1-1.1a10.59,10.59,0,0,0,1-1.2,15.1,15.1,0,0,0,1.8-2.6,10,10,0,0,0,.8-1.4c0.3-.4.5-0.9,0.8-1.3s0.4-.9.6-1.3,0.5-1.1.7-1.6a8.33,8.33,0,0,0,.4-1.5l0.3-1.5a2.77,2.77,0,0,0,.1-0.9v-5.4c0-1,0-2.1-.1-3.1a7.77,7.77,0,0,0-.2-1.6c-0.1-.5-0.2-0.9-0.3-1.4a5.73,5.73,0,0,0-.4-1.4,7.84,7.84,0,0,0-.5-1.4c-0.4-1-.8-2-1.3-3s-1-1.8-1.6-2.7a4.35,4.35,0,0,0-.6-0.7l-0.6-.6c-0.3-.4-0.7-0.8-1-1.2l-0.9-1.2a3.84,3.84,0,0,0-.9-0.9,5.55,5.55,0,0,0-.8-0.6c-0.4-.3-0.9-0.5-1.3-0.8a10.09,10.09,0,0,0-1.5-.7,7.84,7.84,0,0,0-1.4-.5c-0.5-.1-1-0.3-1.5-0.4s-1-.1-1.6-0.2h-1.5c-1,0-2,.1-3.1.2l-2.7.3h0a24.1,24.1,0,0,1,3.8,0,12.1,12.1,0,0,1,1.9.1,10.87,10.87,0,0,1,1.8.1l1.5,0.3c0.5,0.2,1,.3,1.5.5a9.15,9.15,0,0,1,1.7.9c0.5,0.3,1.1.7,1.6,1,0.1,0.1.3,0.2,0.4,0.3a2.7,2.7,0,0,1,.7.8c0.5,0.6.9,1.2,1.4,1.8a22,22,0,0,1,1.4,1.8,23.92,23.92,0,0,1,1.3,2.1c0.4,0.8.8,1.5,1.2,2.3,0.2,0.5.4,1,.6,1.6a8.33,8.33,0,0,1,.4,1.5,9.36,9.36,0,0,1,.4,1.6l0.3,1.5a36.88,36.88,0,0,1,.1,4.7v4.4c-0.1.7-.3,1.4-0.4,2l-0.6,2.1a25.86,25.86,0,0,1-1.7,3.3c-0.4.6-.7,1.1-1.1,1.7s-0.7,1-1,1.5c-0.6.7-1.2,1.5-1.9,2.2s-1.4,1.5-2.1,2.2a20.89,20.89,0,0,1-2.2,2c-0.2.2-.5,0.4-0.7,0.6-0.5.3-.9,0.6-1.4,0.9s-0.8.5-1.2,0.7l-1.2.6h0c-0.3.1-.7,0.3-1,0.4s-0.7.3-1,.5c-0.7.3-1.5,0.6-2.2,0.9s-1.4.6-2.2,0.9h0c-0.5.2-.9,0.4-1.4,0.6a6.12,6.12,0,0,1-1.2.5,8.8,8.8,0,0,1-1.5.5c-0.5.1-1,.2-1.4,0.3a17.6,17.6,0,0,0-3,1,24.57,24.57,0,0,1-2.9.9c-1,.3-2,0.4-3,0.6-0.7.1-1.4,0.3-2.1,0.4s-1.4.3-2.1,0.4a7.57,7.57,0,0,1-1.5.1H78.3c-1.1,0-2.1,0-3.2-.1a12.9,12.9,0,0,1-2.8-.8,8,8,0,0,1-1.6-.8H71a7.57,7.57,0,0,0,1.5-.1H74a7.57,7.57,0,0,1,1.5.1h1.4c0.5,0,.9-0.1,1.4-0.1l1.3-.3c0.4-.1.9-0.2,1.4-0.3s0.9-.3,1.4-0.4a14.46,14.46,0,0,0,2.9-1.1,2.19,2.19,0,0,0,.5-0.3c0.2-.2.5-0.3,0.7-0.5,0.4-.3.8-0.5,1.2-0.8a10.59,10.59,0,0,0,1.2-1c0.2-.2.3-0.4,0.5-0.6a2.65,2.65,0,0,0,.5-0.6,2.36,2.36,0,0,0,.5-0.5,0.38,0.38,0,0,0,.2-0.2l0.4-.4a0.92,0.92,0,0,0-.1-1,0.91,0.91,0,0,0-.7-0.3H90.1a1.61,1.61,0,0,0-.9.3l-0.6.3c-0.6.3-1.2,0.7-1.8,1-0.3.2-.6,0.3-0.9,0.5a3.55,3.55,0,0,1-.9.4c-0.6.2-1.3,0.5-1.9,0.7-0.3.1-.6,0.2-1,0.3a3,3,0,0,1-1,.2c-0.6.1-1.3,0.1-1.9,0.2-0.4,0-.7.1-1.1,0.1s-0.7.1-1.1,0.1h0c-1.5.2-2.9,0.2-4.4,0.3-0.7,0-1.5.1-2.2,0.1s-1.2.1-1.8,0.1v-4.2a24.37,24.37,0,0,1,.1-2.7,21.12,21.12,0,0,1,.2-2.6v0.2c0.2-1,.3-2,0.4-3a10,10,0,0,0,.2-1.6c0.1-.5.2-1,0.3-1.6,0.2-1,.4-2.1.6-3.1l0.6-3c0.1-.5.3-1,0.4-1.5s0.2-.9.3-1.4c0.3-1,.6-2.1,1-3.1a28.26,28.26,0,0,0,1.1-3.1c0.3-1,.6-2,1-3,0.2-.6.4-1.1,0.6-1.6h0a25.91,25.91,0,0,1,1.4-2.9,16.65,16.65,0,0,1,1.8-2.8c0.5-.7,1.1-1.4,1.6-2.1s1-1.3,1.5-2h0l2.3-2.9-0.1.1a10.59,10.59,0,0,1,1-1.2c0.2-.2.3-0.4,0.5-0.6s0.3-.4.5-0.6l2.3-2.3c0.8-.8,1.6-1.5,2.4-2.3s1.5-1.4,2.2-2.1c1.1-1,2.2-2,3.4-3l1.6-1.3c0.5-.5,1.1-0.9,1.6-1.4l-0.1.1c0.4-.3.9-0.6,1.3-0.9s0.8-.5,1.2-0.8l2.7-1.8a9.13,9.13,0,0,1,1.3-.8,9.13,9.13,0,0,1,1.3-.8l2.7-1.5c0.3-.2.6-0.3,0.9-0.5h-0.1c0.1-.1.3-0.1,0.4-0.2h0c0.8-.3,1.7-0.6,2.5-0.9s1.7-.6,2.5-0.9l1.3-.3,1.3-.3c0.4-.1.8-0.2,1.3-0.3a7.84,7.84,0,0,0,1.4-.5h0a2.14,2.14,0,0,0-.8,0h0Zm-9.7,24.3h0Zm-28.9,3.5h0Zm-0.1.1h0ZM79,112h0Zm21.4,43.8h0Zm0,0h0Zm-28.1,4.3h0Zm9.2,0.9h0Z" transform="translate(-67.4 -57.2)"/><path class="cls-1" d="M77.3,157.1a3.55,3.55,0,0,0-1,.2c-0.3.1-.7,0.1-1,0.2s-0.5.1-.8,0.2a9.85,9.85,0,0,0-1.7.2h0.1a4.87,4.87,0,0,1-1.2.1H70.6a0.42,0.42,0,0,0-.4.3H69.5a0.68,0.68,0,0,0-.7.7h0a0.75,0.75,0,0,0,.5.7,1.27,1.27,0,0,0,.6.1h5c0.3,0,.6-0.1,1-0.1,0.2,0,.3-0.1.5-0.1a1.42,1.42,0,0,0,.6-0.2,0.78,0.78,0,0,0,.3-0.7v-0.1a2.27,2.27,0,0,1,.4-0.1h0.4a0.58,0.58,0,0,0,.3-1.1,0.75,0.75,0,0,0-.5-0.1,1.19,1.19,0,0,0-.6-0.2h0Z" transform="translate(-67.4 -57.2)"/><path class="cls-1" d="M132,79.1c-0.6.1-1.1,0.1-1.7,0.2l-1.4.3-1.5.3a9.36,9.36,0,0,0-1.6.4c-0.5.1-1,.3-1.5,0.4s-1,.3-1.5.4l-2.3.6-2.2.6-2.3.6a18,18,0,0,0-2.1.8H114a10.66,10.66,0,0,1-1.9.7c-0.3.1-.6,0.2-1,0.3a4.67,4.67,0,0,0-1,.5,17.38,17.38,0,0,1-1.9,1,17.38,17.38,0,0,1-1.9,1h0c0.5-.2,1-0.4,1.4-0.6h0c0.3-.1.5-0.2,0.8-0.3h0c0.4-.1.7-0.3,1.1-0.4a3.13,3.13,0,0,0,1-.5h-0.1a1.42,1.42,0,0,1,.6-0.2c0.2-.1.5-0.1,0.8-0.2,0.5-.1,1-0.2,1.4-0.3a7.84,7.84,0,0,0,1.4-.5,7.37,7.37,0,0,1,1.4-.4c1-.3,2-0.4,3-0.6l1.5-.3a8.33,8.33,0,0,0,1.5-.4l2.4-.6c0.8-.2,1.7-0.5,2.5-0.7l1.3-.3a5,5,0,0,1,1.2-.2,20,20,0,0,1,2.4-.4c1-.1,2-0.1,3-0.2h1.5c0.5,0,1-.1,1.6-0.1,2-.1,3.9-0.2,5.9-0.2,1-.1,2-0.1,3-0.2h0c-1,0-2-.1-3-0.2s-2-.1-2.9-0.1-2-.1-3.1-0.1h-4.8a1.27,1.27,0,0,0-1.1-.1h0Zm-24.1,7.4h0Zm0.8-.3h0Z" transform="translate(-67.4 -57.2)"/><path class="cls-1" d="M146.3,79c-1,0-2,.1-3.1.1a26.42,26.42,0,0,0-2.9.2c-0.6.1-1.2,0.1-1.8,0.2-0.3,0-.7.1-1,0.1s-0.4.1-.7,0.1l-1.1.3h0c0.3-.1.5-0.1,0.8-0.2h0a13.4,13.4,0,0,1,2-.1,8.6,8.6,0,0,0,1.6-.1h3c1,0,2,.1,3,0.1h1.5a7.57,7.57,0,0,1,1.5.1c0.3,0,.5.1,0.8,0.1l1.5,0.3,1.5,0.3,3,0.6c1,0.2,2,.5,3,0.7a8.33,8.33,0,0,1,1.5.4c0.5,0.2,1,.3,1.5.5s0.9,0.3,1.3.4,0.9,0.3,1.4.4l2.7,0.9c0.8,0.4,1.7.8,2.5,1.2a20.62,20.62,0,0,0,2.6,1.2c0.8,0.3,1.6.7,2.4,1a5.73,5.73,0,0,0,1.4.4,6.94,6.94,0,0,1,1.3.5c0.1,0.1.3,0.1,0.4,0.2a0.2,0.2,0,0,1-.2-0.1c0.3,0.1.7,0.3,1,.4l0.9,0.3a30,30,0,0,1,3.9,2.2c0.3,0.2.6,0.3,0.9,0.5a3.59,3.59,0,0,1,1,.7,20.28,20.28,0,0,1,1.8,1.3l1.2,0.9,1.3,1a15,15,0,0,1,1.3,1.1l1.4,1.1c0.5,0.3.9,0.7,1.4,1a10,10,0,0,1,1.5,1.4h0c0.2,0.2.3,0.5,0.5,0.7h0a5,5,0,0,0-.8-1.2c-0.3-.4-0.7-0.7-1-1.1s-0.8-.7-1.2-1.1a11,11,0,0,1-1.1-1l-1-1c-0.4-.4-0.8-0.7-1.2-1.1-0.8-.7-1.6-1.3-2.4-2a22,22,0,0,0-1.8-1.4,8.79,8.79,0,0,0-1-.6,5.5,5.5,0,0,1-.9-0.7,13.24,13.24,0,0,0-2-1.2c-0.4-.2-0.7-0.4-1.1-0.6a4.87,4.87,0,0,0-1.1-.4c-0.5-.2-1.1-0.5-1.6-0.7l-1.8-.6c-1.1-.4-2.2-0.8-3.3-1.3h0a1.42,1.42,0,0,0-.6-0.2H172c-0.4-.2-0.9-0.4-1.3-0.6s-0.9-.5-1.4-0.8c-1-.5-2-0.9-3-1.3s-2-.6-2.9-0.9-1.9-.7-2.9-1a2.92,2.92,0,0,0-.9-0.2,3,3,0,0,0-1-.2,14.16,14.16,0,0,0-2-.4c-1.4-.3-2.8-0.5-4.2-0.7h0.1a29.09,29.09,0,0,0-3.1-.4h-0.3a14.07,14.07,0,0,1-2.8.3h0Zm20.9,5.7h0Zm21,10.6h0Zm5.5,4.3h0ZM152.5,79.3h0Z" transform="translate(-67.4 -57.2)"/><path class="cls-1" d="M183.9,91.5c0.1,0.1.2,0.3,0.3,0.4a4.62,4.62,0,0,0,.7.7,4.23,4.23,0,0,0,.7.5h0a10.59,10.59,0,0,1,1.2,1l1.2,1.2c0.4,0.4.8,0.9,1.2,1.3s0.7,0.7,1,1.1c0.8,0.8,1.6,1.5,2.4,2.2,0.4,0.3.7,0.7,1.1,1a10.59,10.59,0,0,0,1.2,1,5.24,5.24,0,0,1,1.1,1l1.1,1.1,2.4,2.1a11,11,0,0,1,1.1,1c0.4,0.4.7,0.8,1,1.1,0.7,0.8,1.4,1.5,2.1,2.3l0.4,0.4a8.34,8.34,0,0,1,.8,1.2c0.3,0.4.5,0.8,0.8,1.2,0.6,0.9,1.3,1.7,1.9,2.5a8.34,8.34,0,0,1,.8,1.2c0.3,0.5.6,0.9,0.9,1.4a8.26,8.26,0,0,1,.7,1.3c0.2,0.5.5,0.9,0.7,1.4,0.4,0.9.9,1.8,1.4,2.7s0.9,1.9,1.3,2.8v-0.1c0.4,1,.8,1.9,1.1,2.9a8.8,8.8,0,0,1,.5,1.5c0.2,0.5.3,1,.5,1.5,0.4,1,.7,2.1,1.1,3.1a24.89,24.89,0,0,1,1.1,2.9c0.4,1.4.9,2.8,1.2,4.2a14.16,14.16,0,0,1,.4,2c0.1,0.7.2,1.3,0.3,2a30.28,30.28,0,0,1,.2,3.1v14c0,0.5-.1,1-0.1,1.5s-0.1.7-.2,1.1-0.1.8-.2,1.2a18.92,18.92,0,0,1-.5,2.3c-0.2.7-.4,1.5-0.6,2.2a20.94,20.94,0,0,1-.8,2.3c-0.3.6-.5,1.2-0.8,1.8s-0.4,1.2-.6,1.9a14.62,14.62,0,0,0-.5,2c-0.2.6-.4,1.3-0.6,1.9h0a3.53,3.53,0,0,1-.8,1.3h0l-0.1.1h0c0.2-.3.5-0.5,0.7-0.8a5.58,5.58,0,0,0,.5-0.8,10.41,10.41,0,0,0,.6-1.6c0.2-.6.4-1.1,0.6-1.7a8.65,8.65,0,0,1,.7-1.7c0.4-.9,1-1.8,1.4-2.8s0.8-2,1.1-3c0.1-.5.3-1,0.4-1.4s0.3-1,.4-1.6l0.3-1.5c0.1-.6.2-1.1,0.3-1.7,0.1-1,.1-2,0.1-3v-9.6c0-1,0-2.1-.1-3.1,0-.5-0.1-1.1-0.1-1.6a9.85,9.85,0,0,0-.2-1.7c-0.2-1-.3-2-0.6-3a28,28,0,0,0-.9-3.1c-0.1-.5-0.3-0.9-0.4-1.4s-0.3-1-.5-1.5-0.4-1-.6-1.6a8.8,8.8,0,0,1-.5-1.5c-0.7-2-1.4-4-2.2-5.9a45.35,45.35,0,0,0-2.8-5.9c-0.3-.5-0.5-1-0.7-1.4a9.14,9.14,0,0,0-.7-1.4,22.6,22.6,0,0,0-1.6-2.6,8.34,8.34,0,0,1-.8-1.2l-1-1.3-0.9-1.2c-0.3-.4-0.6-0.9-0.9-1.3a13.44,13.44,0,0,0-1.1-1.4c-0.3-.4-0.7-0.7-1-1.1l-2.1-2.4a6,6,0,0,0-.8-0.8c-0.3-.3-0.6-0.5-0.9-0.8l-1.8-1.5c-0.6-.5-1.2-1.1-1.8-1.6a23.07,23.07,0,0,0-1.9-1.4,30.13,30.13,0,0,0-2.8-2.2,0.1,0.1,0,0,1,.1.1c-0.6-.5-1.2-1-1.7-1.5s-1.1-1-1.6-1.5-1.1-1-1.7-1.5c-0.3-.2-0.7-0.5-1-0.7s-0.9-.6-1.4-0.9h0a0.51,0.51,0,0,0-.2-0.7h0ZM204,111c0.1,0,.1.1,0,0,0.1,0.1.1,0,0,0h0Zm13.7,63.2h0Z" transform="translate(-67.4 -57.2)"/><path class="cls-1" d="M220.3,155.3c-0.1,1.2-.1,2.4-0.2,3.7l-0.3,3.3v-0.1c0,0.4-.1.7-0.1,1.1v-0.1a8.75,8.75,0,0,0-.2,1.6c-0.1.5-.1,1-0.2,1.5-0.2,1.1-.4,2.1-0.7,3.2s-0.6,2.1-.8,3.2-0.5,2.1-.8,3.1-0.5,1.8-.8,2.7-0.6,1.6-.9,2.3c-0.5,1-1,2-1.5,2.9s-0.9,1.9-1.4,2.9-1.1,1.9-1.6,2.9-1.1,1.7-1.7,2.6c-0.1.2-.3,0.4-0.4,0.6s-0.3.5-.5,0.7c-0.3.5-.6,0.9-0.9,1.4-0.6.9-1.2,1.7-1.9,2.6l-0.9,1.2-0.9,1.2c-0.6.9-1.3,1.7-1.9,2.6-0.1.2-.3,0.4-0.4,0.6a2.65,2.65,0,0,0-.5.6l-0.6.6-0.6.6-1.2,1.2a6.89,6.89,0,0,1-1.3,1.1c-0.8.6-1.7,1.2-2.5,1.8a15.07,15.07,0,0,0-2.3,2.1c-0.8.8-1.7,1.6-2.5,2.3l-2.3,2c-0.7.6-1.4,1.3-2.1,1.9-0.4.3-.7,0.6-1.1,0.9s-1,.9-1.5,1.3h-0.1a9.13,9.13,0,0,1-1.3.8c-0.3.1-.5,0.3-0.8,0.4s-0.9.4-1.3,0.6a6.38,6.38,0,0,0-1.4.8,21,21,0,0,0-3,2.2h0c0.4-.3.9-0.6,1.3-0.9a10,10,0,0,1,1.4-.8c0.4-.2.9-0.4,1.4-0.6h-0.1c1.1-.5,2.3-0.9,3.4-1.5a15.94,15.94,0,0,0,2.1-1.5,11.32,11.32,0,0,0,1.3-1c0.4-.3.9-0.6,1.3-0.9s0.9-.7,1.3-1.1c0.8-.7,1.7-1.4,2.5-2.1,0.4-.3.8-0.7,1.2-1a12,12,0,0,1,1.2-1.1c0.4-.3.8-0.8,1.2-1.1s0.8-.7,1.2-1h0a25.6,25.6,0,0,0,2.6-2c0.8-.7,1.5-1.4,2.3-2.2a11.41,11.41,0,0,0,1.1-1.1,7.55,7.55,0,0,0,1.1-1.4c0.7-.9,1.3-1.8,2-2.7,0.3-.4.7-0.9,1-1.3a14.62,14.62,0,0,0,.9-1.3c0.6-.9,1.3-1.8,1.9-2.7a9.13,9.13,0,0,0,.8-1.3c0.3-.4.6-0.9,0.9-1.3a17,17,0,0,1,1-1.4,2.51,2.51,0,0,0,.4-0.7,4.35,4.35,0,0,0,.4-0.7c0.2-.4.5-0.9,0.7-1.3s0.5-1,.8-1.5a10.09,10.09,0,0,0,.7-1.5c0.2-.5.5-1,0.7-1.4,0.5-1,1-1.9,1.4-2.9s0.8-2,1.1-3,0.6-2,.8-3,0.5-2.2.7-3.3a28.37,28.37,0,0,0,.6-3.1c0.2-1.1.3-2.1,0.4-3.2,0.1-1.7.2-3.3,0.3-5v-2.4a11.11,11.11,0,0,0,.1-2.6h0Zm-5.2,25.6h0Zm-17.9,26h0Zm-1.4,2.5c0,0.1-.1.1,0,0-0.1.1,0,.1,0,0h0Zm-13.1,9.8h0Z" transform="translate(-67.4 -57.2)"/><path class="cls-1" d="M180.7,150.3c0.4,0.3.8,0.5,1.2,0.8h0a7.69,7.69,0,0,1,1.8,1.8,13.5,13.5,0,0,1,1.5,2.6,8.27,8.27,0,0,0,.7,1.3,10,10,0,0,0,.8,1.4c0.5,0.9,1.1,1.8,1.6,2.8a23.94,23.94,0,0,1,1.3,2.8,21.85,21.85,0,0,1,.9,2.3,19.73,19.73,0,0,1,.7,2.6c0.1,0.4.2,0.9,0.3,1.3s0.2,0.9.3,1.3a22.12,22.12,0,0,1,.5,2.5c0.1,0.5.1,0.9,0.2,1.4s0.1,1,.2,1.5c0.1,1,.2,2,0.2,3s0,2,.1,3.1,0,2-.1,3c0,0.3-.1.6-0.1,0.9v-0.2c-0.1.7-.3,1.5-0.4,2.2a14.19,14.19,0,0,0-.5,2.2,17,17,0,0,0-.4,2.2c-0.1.4-.2,0.8-0.3,1.1a4.18,4.18,0,0,1-.4,1,0.2,0.2,0,0,1,.1-0.2l-1.2,3c-0.4,1-.7,1.9-1.1,2.9s-0.9,1.8-1.3,2.7-0.9,1.8-1.5,2.7c-0.3.4-.5,0.9-0.8,1.3s-0.5.9-.8,1.4a14.8,14.8,0,0,1-.8,1.3c-0.3.4-.5,0.9-0.8,1.3-0.6.9-1.3,1.9-2,2.8a22,22,0,0,1-2,2.3c-0.7.8-1.4,1.7-2.1,2.5a11.41,11.41,0,0,1-1.1,1.1,9.43,9.43,0,0,0-1,1,11.41,11.41,0,0,1-1.1,1.1,5.24,5.24,0,0,1-1.1,1,9.43,9.43,0,0,0-1,1c-0.3.4-.6,0.8-0.8,1.1h0l-0.2.2h0l0.6-.6a1.51,1.51,0,0,1,.4-0.4,9,9,0,0,1,1-.9h0l1.2-.9c0.4-.3.8-0.7,1.2-1,0.8-.7,1.6-1.3,2.4-2a11.41,11.41,0,0,0,1.1-1.1c0.4-.4.7-0.8,1.1-1.2,0.7-.8,1.4-1.5,2.1-2.3a25.6,25.6,0,0,0,2-2.6l1.8-2.7c0.3-.4.5-0.9,0.8-1.3a14.8,14.8,0,0,1,.8-1.3c0.3-.4.5-0.9,0.8-1.3a8.27,8.27,0,0,1,.7-1.3,21.16,21.16,0,0,0,1.1-2.1,16,16,0,0,0,1-2.3c0.6-1.4,1.1-2.9,1.7-4.3v0.1l0.6-1.5a6.37,6.37,0,0,0,.2-0.7c0.1-.2.1-0.5,0.2-0.7l0.6-3c0.2-1,.5-1.9.6-2.9a15.53,15.53,0,0,0,.3-3.1v-4.6c0-.5-0.1-1-0.1-1.5-0.1-1-.2-2-0.3-3.1-0.1-.5-0.1-0.9-0.2-1.4s-0.2-1.1-.3-1.7l-0.6-3c-0.2-.9-0.5-1.9-0.8-2.8a5.78,5.78,0,0,0-.5-1.4,10.09,10.09,0,0,0-.7-1.5c-0.4-.9-0.9-1.8-1.4-2.7a23.27,23.27,0,0,0-1.7-2.6c-0.3-.4-0.6-0.9-0.9-1.3s-0.5-.9-0.8-1.3-0.5-.8-0.8-1.2a12.49,12.49,0,0,0-.9-1.2c-0.2-.2-0.3-0.4-0.5-0.6a2.65,2.65,0,0,0-.6-0.5,14.62,14.62,0,0,0-1.3-.9c-0.2-.1-0.3-0.2-0.5-0.3a6.31,6.31,0,0,0-.9-0.4h0Zm8.8,13.1v0h0Zm-1.2,37.3a0.1,0.1,0,0,1-.1.1c0.1,0,.1,0,0.1-0.1h0ZM172,223.8h0Zm-1.8,1.8h0Z" transform="translate(-67.4 -57.2)"/><path class="cls-1" d="M179.7,152.8l0.6,0.9c0.1,0.2.3,0.5,0.4,0.7a9.29,9.29,0,0,1,.5,1,14.17,14.17,0,0,1,.8,1.8c0.7,1.8,1.4,3.5,2,5.3a22.91,22.91,0,0,1,.7,2.8,25.58,25.58,0,0,1,.5,2.7c0.1,0.5.1,1,.2,1.5s0.1,1,.2,1.6,0.1,0.9.1,1.4a7.57,7.57,0,0,1,.1,1.5v4.6a7.57,7.57,0,0,1-.1,1.5v0.4a9.48,9.48,0,0,1-.5,2.3,22.5,22.5,0,0,1-.8,2.4,16.27,16.27,0,0,1-1.1,2.3c-0.4.7-.9,1.4-1.4,2.1s-1.3,1.6-1.9,2.4-1.1,1.3-1.6,2l-1.8,2.1c-0.7.7-1.3,1.4-2,2.1a9,9,0,0,1-1,.9c-0.3.3-.6,0.5-0.9,0.8A9.91,9.91,0,0,1,171,201a16.18,16.18,0,0,1-1.8,1c-0.6.3-1.2,0.6-1.9,1a14.17,14.17,0,0,1-1.8.8c-0.4.2-.9,0.3-1.4,0.5-0.2.1-.4,0.1-0.6,0.2s-0.5.1-.7,0.2c-1,.2-1.9.3-2.9,0.5l-2.3.3c-0.3,0-.7.1-1,0.1a5.27,5.27,0,0,0-1.2.3h0a1.27,1.27,0,0,1,.6-0.1h0c1-.1,2.1-0.1,3.1-0.1s2-.1,3-0.2c0.3,0,.6-0.1.9-0.1s0.6-.1.9-0.1a5.73,5.73,0,0,0,1.4-.4,18.77,18.77,0,0,0,3-1.2l1.5-.6a10.09,10.09,0,0,0,1.5-.7,13.41,13.41,0,0,0,2.8-1.8c0.8-.7,1.5-1.4,2.2-2.1s1.5-1.6,2.2-2.4a21,21,0,0,0,1.4-1.7,5.72,5.72,0,0,1,.7-0.8,2.7,2.7,0,0,1,.7-0.8c0.6-.8,1.3-1.6,1.9-2.4a14.62,14.62,0,0,0,.9-1.3c0.3-.4.5-0.8,0.8-1.2a15.66,15.66,0,0,0,1.2-3c0.3-1,.6-2,0.8-3a23,23,0,0,0,.3-2.6v-4.9a5.7,5.7,0,0,0-.1-1.3,5.85,5.85,0,0,0-.2-1.3c-0.1-.5-0.1-1-0.2-1.5a7.72,7.72,0,0,1-.2-1.5c-0.2-1-.4-2-0.7-3s-0.6-2-1-3a25.49,25.49,0,0,0-1.3-2.9c-0.2-.5-0.5-0.9-0.7-1.4a10.93,10.93,0,0,0-.8-1.5l-0.9-1.5a3,3,0,0,0-.5-0.7,2.88,2.88,0,0,0-.9-2h0Zm2.3,36.6h0Zm-1.9,2.4h0Zm1.4,0.5h0ZM156,205.5h0Z" transform="translate(-67.4 -57.2)"/><path class="cls-1" d="M187.3,215.3c-0.5.3-1,.7-1.5,1l-1.5.9c-0.5.3-.9,0.7-1.4,1a13.45,13.45,0,0,1-1.4,1.1,2.18,2.18,0,0,0-.5.4c-0.3.2-.5,0.3-0.8,0.5a6.11,6.11,0,0,1-1.4.7c-0.9.5-1.8,0.9-2.7,1.3a10,10,0,0,0-1.4.8,14.62,14.62,0,0,1-1.3.9,9.13,9.13,0,0,1-1.3.8c-0.5.3-1,.5-1.5,0.8s-1,.5-1.5.7a7.74,7.74,0,0,1-1.6.7c-0.9.4-1.9,0.7-2.8,1-0.5.2-1.1,0.3-1.6,0.5s-1,.3-1.5.5c-1,.3-2,0.7-3,1.1a8.8,8.8,0,0,1-1.5.5c-0.5.2-1,.3-1.5,0.5l-1.8.6c-0.6.2-1.2,0.5-1.8,0.7a7.84,7.84,0,0,1-1.4.5c-0.5.2-1,.3-1.5,0.5a10.26,10.26,0,0,1-1.4.4,7.49,7.49,0,0,1-1.6.5c-1,.4-2,0.6-3,0.9s-2,.5-3,0.7c-0.7.1-1.4,0.3-2.1,0.4h0.2a5,5,0,0,0-1.2.2h0.1c-1.1.2-2.3,0.3-3.4,0.5h0c-0.3,0-.6.1-1,0.1h0.1c-1.3.2-2.5,0.3-3.8,0.4a14.16,14.16,0,0,0-2,.4c-0.5.1-.9,0.3-1.4,0.4a21.16,21.16,0,0,0-2,1.2h0a7.14,7.14,0,0,1,1.5-.8h0a11,11,0,0,1,2.6-.6h-0.1a7.57,7.57,0,0,1,1.5-.1h1.6c1,0,2-.1,3-0.1s2.1-.2,3.2-0.2,2-.1,3-0.3,2.1-.3,3.1-0.6c0.5-.1,1-0.3,1.5-0.4s1-.3,1.4-0.4a8.8,8.8,0,0,1,1.5-.5,9.83,9.83,0,0,1,1.6-.5c1-.3,1.9-0.6,2.9-1l1.5-.6c0.5-.2.9-0.3,1.4-0.5l3-.9c2-.7,4-1.5,6-2.1,1-.3,2-0.6,3-1a12.2,12.2,0,0,0,1.7-.7,5.39,5.39,0,0,0,1.3-.7c1-.5,1.9-1,2.9-1.6,0.4-.3.9-0.6,1.3-0.9l1.2-.9,2.4-1.5c0.8-.4,1.6-0.9,2.4-1.4l1.2-.9c0.4-.3.7-0.6,1.1-0.9s0.7-.7,1.1-1,0.7-.7,1.1-1h0a13.11,13.11,0,0,0,2.8-2h0ZM152,232.4a0.1,0.1,0,0,0-.1.1c0-.1,0-0.1.1-0.1h0Zm-15.1,4.1h0Z" transform="translate(-67.4 -57.2)"/><path class="cls-1" d="M113.7,180.6l-0.3.3a0.9,0.9,0,0,0-.1.5,1.09,1.09,0,0,0,.1.5c0,0.1.1,0.3,0.1,0.4a6.89,6.89,0,0,0,.4,1c0.4,1,.8,2,1.1,3a7.84,7.84,0,0,1,.5,1.4c0.2,0.5.3,1,.5,1.5a15,15,0,0,1,.6,2.9c0.1,1,.2,2.1.2,3.1a22650160,22650160,0,0,1,.2,3c0.1,2.1.1,4.3,0.1,6.4v1.9a9.85,9.85,0,0,1-.2,1.7c0,0.2-.1.4-0.1,0.6s-0.1.3-.1,0.5c-0.1.4-.2,0.7-0.3,1.1a3.58,3.58,0,0,1-.4,1.1c-0.1.4-.3,0.7-0.4,1.1-0.4,1-.8,1.9-1.3,2.9l-0.3.6a2.51,2.51,0,0,1-.4.7l-0.9,1.5c-0.6.9-1.1,1.8-1.7,2.6a26.75,26.75,0,0,0-1.8,2.8,14,14,0,0,1-1,1.6c-0.4.6-.8,1.2-1.2,1.7s-0.8,1.1-1.2,1.6l-1.2,1.8h0c0.6-.7,1.1-1.4,1.7-2.1s1-1.2,1.6-1.8a22,22,0,0,0,1.4-1.8c0.2-.3.5-0.7,0.7-1l0.6-.9h0v-0.1h0a64.05,64.05,0,0,0,3.9-5.2,26.94,26.94,0,0,0,1.6-2.9c0.5-1,.9-2,1.3-3,0.2-.5.3-1,0.5-1.5,0.1-.2.1-0.5,0.2-0.7s0.1-.6.2-0.9c0.2-1.1.2-2.2,0.3-3.3,0-2.1,0-4.3-.1-6.4a6.15,6.15,0,0,0-.1-1.4,9.7,9.7,0,0,0-.1-1.7c0-1.1-.1-2.1-0.2-3.2a17.73,17.73,0,0,0-.5-3.2c-0.3-1-.6-2-1-3a19.45,19.45,0,0,1-.8-2.2,0.2,0.2,0,0,0-.1-0.2l0.4,0.4a22.91,22.91,0,0,0,2.3,2.1c0.8,0.7,1.6,1.5,2.5,2.2l2.4,2.1a12731332,12731332,0,0,0,1.4,1l1.2,0.9c0.5,0.3.9,0.7,1.4,1l1.2,0.9c0.9,0.7,1.8,1.3,2.7,2l2.6,2c0.4,0.3.8,0.5,1.2,0.8s1,0.7,1.5,1,0.8,0.5,1.2.8a9.13,9.13,0,0,0,1.3.8c0.5,0.3,1,.6,1.4.9s1,0.5,1.5.8a28.8,28.8,0,0,0,3.1,1.3c1,0.4,2,.7,3,1l1.7,0.3a8.6,8.6,0,0,0,1.6.1c1,0,2.1,0,3.1-.1s2.1-.1,3.1-0.1c2.2-.2,4.3-0.5,6.5-0.9a8.33,8.33,0,0,0,1.5-.4l1.5-.6a10.09,10.09,0,0,0,1.5-.7,9.55,9.55,0,0,0,1.6-1.2,2.36,2.36,0,0,0,.5-0.5h0c-0.3.2-.6,0.4-1,0.7-0.1.1-.3,0.2-0.4,0.3a4.67,4.67,0,0,1-1,.5h0a17.23,17.23,0,0,1-2.1.7c-0.7.2-1.5,0.3-2.2,0.5h-0.2a0.9,0.9,0,0,0-.5.1h0a44.9,44.9,0,0,1-6.4.4H150c-0.2,0-.4-0.1-0.6-0.1s-0.4-.1-0.6-0.1-0.4-.1-0.6-0.1c-0.4-.1-0.8-0.2-1.1-0.3s-0.8-.3-1.2-0.4a6.12,6.12,0,0,1-1.2-.5,22.45,22.45,0,0,1-2.7-1.3c-1-.5-1.9-1.1-2.9-1.7s-1.8-1.1-2.7-1.7a5.67,5.67,0,0,0-1.3-.8c-0.5-.3-0.9-0.7-1.4-1-0.7-.5-1.4-1.1-2.1-1.6s-1.4-1.1-2.2-1.6l-2.2-1.6-2.2-1.6-1.2-.9a11,11,0,0,1-1.1-1l-2.5-2.2c-0.8-.7-1.6-1.4-2.3-2.1l-1.1-1.1c-0.4-.4-0.7-0.9-1.1-1.3h0a1.76,1.76,0,0,0-.4-0.5,3.74,3.74,0,0,0-.6-0.7,0.75,0.75,0,0,0-.5-0.1,0.35,0.35,0,0,0-.5-0.1h0Zm-3.1,42.2h0ZM168,203.4h0Z" transform="translate(-67.4 -57.2)"/><path class="cls-1" d="M110.9,220.3c-0.1.2-.2,0.5-0.3,0.7h0a9.15,9.15,0,0,1-.9,1.7c-0.4.6-.8,1.1-1.2,1.7a9.5,9.5,0,0,0-1,1.7,17.39,17.39,0,0,1-1.1,1.8,4.35,4.35,0,0,0-.6.7c-0.2.2-.5,0.4-0.7,0.6s-0.2.1-.3,0.2h0.1c-0.3.2-.6,0.5-0.9,0.7a6,6,0,0,0-.8.8c-0.5.5-1.1,1-1.6,1.5a10.63,10.63,0,0,0-1.1.9c-0.4.3-.7,0.6-1.1,0.9s-0.8.5-1.2,0.8-0.7.6-1.1,0.9-0.7.5-1,.8-0.7.5-1,.8c-0.5.3-.9,0.6-1.5,0.9a5.94,5.94,0,0,0-.8.4c-0.2.1-.3,0.2-0.5,0.3a2.09,2.09,0,0,0-.6.4,0.62,0.62,0,0,0-.3.4,0.48,0.48,0,0,0-.1.4,0.76,0.76,0,0,0,.2.5,1.14,1.14,0,0,0,.8.3H95c1,0,2.1,0,3.1-.1s2-.1,3-0.2,2-.1,3-0.1,2,0,3.1-.1,2.1-.2,3.2-0.2h3.1a8.08,8.08,0,0,0,1.6-.1c0.5,0,1-.1,1.5-0.1,0.8,0,1.6-.1,2.4-0.1a4.87,4.87,0,0,0,1.2-.1,5.85,5.85,0,0,0,1.3-.2h-0.1l1.9-.3,2-.3a13.32,13.32,0,0,0,1.9-.5,2.92,2.92,0,0,1,.9-0.2c0.3-.1.7-0.1,1-0.2h0c0.7-.1,1.3-0.2,1.9-0.3s1.4-.3,2.1-0.4h0c0.2,0,.4-0.1.7-0.1h-1.2c-0.4,0-.8.1-1.1,0.1-0.7.1-1.4,0.1-2.1,0.2a14.92,14.92,0,0,0-2.1.2,17,17,0,0,0-2.2.4h0.1c-0.5.1-1.1,0.1-1.6,0.2s-1,.1-1.4.1-1.1.1-1.6,0.1h-7.8c-1,0-2.1,0-3.1.1s-2.1.2-3.1,0.2-2.1,0-3.1.1h-1.6c-0.5,0-1,.1-1.4.1a14.77,14.77,0,0,1-2.1.1c-0.7,0-1.4.1-2,.1h-2c0.2-.1.4-0.3,0.6-0.4a6.07,6.07,0,0,0,1-.7,6.47,6.47,0,0,0,.9-0.8,10.63,10.63,0,0,0,1.1-.9c0.4-.3.7-0.6,1.1-0.9a12.13,12.13,0,0,0,1.4-1,2.36,2.36,0,0,0,.5-0.5l0.6-.6a5.24,5.24,0,0,0,1.1-1,11.41,11.41,0,0,0,1.1-1.1,5.24,5.24,0,0,1,1-1.1c0.4-.4.8-0.7,1.1-1a4,4,0,0,0,1-1.2,8.26,8.26,0,0,0,.7-1.3c0.2-.4.4-0.9,0.6-1.3a8.27,8.27,0,0,1,.7-1.3c0.3-.5.6-0.9,0.9-1.4a7.57,7.57,0,0,0,1.1-2.7h0Zm-4.3,7.6h0Zm-7.3,8h0Zm-2.4,1.9-0.1.1,0.1-.1h0Z" transform="translate(-67.4 -57.2)"/><path class="cls-1" d="M173.1,200.5c-0.2.4-.4,0.9-0.6,1.3a8.34,8.34,0,0,1-.8,1.2c-0.4.4-.7,0.9-1.1,1.3a12.67,12.67,0,0,0-1.1,1.3c-0.4.5-.8,0.9-1.2,1.4l-0.6.6c-0.2.2-.5,0.4-0.7,0.6l-1.8,1.2-1.8,1.5-1.5,1.5a11.51,11.51,0,0,1-1.7,1.4l-2.2,1.6c-0.8.6-1.6,1.1-2.4,1.7a21.28,21.28,0,0,1-2.5,1.6,14.8,14.8,0,0,0-1.3.8,5.73,5.73,0,0,0-1.1,1.1h0a1.79,1.79,0,0,1,.7-0.5h0a7.46,7.46,0,0,1,1.2-.7c0.5-.2.9-0.4,1.4-0.6,0.9-.4,1.7-0.9,2.6-1.4l2.4-1.5c0.4-.2.8-0.5,1.2-0.7l1.2-.9,1.4-1.1a5.73,5.73,0,0,0,1.1-1.1,12,12,0,0,1,1.2-1.1l1.2-.9h0l0.1-.1h-0.1l1.2-.9a11.41,11.41,0,0,0,1.1-1.1c0.3-.4.7-0.8,1-1.2s0.5-.8.8-1.2c0.5-.8,1.1-1.5,1.6-2.4a8.26,8.26,0,0,0,.7-1.3,10.26,10.26,0,0,1,.4-1.4h0Zm-1.4,2.5h0Zm-4.8,5.3h0Zm-6.6,5.5c-0.1,0-.1.1,0,0-0.1.1-.1,0,0,0h0Zm6-3.8h0Z" transform="translate(-67.4 -57.2)"/><path class="cls-1" d="M154.7,218.1c-1,.5-2,1.1-3,1.7-0.5.3-.9,0.7-1.4,1-0.2.2-.5,0.3-0.7,0.5a0.6,0.6,0,0,0-.3.6,0.66,0.66,0,0,0,.4.5,7.46,7.46,0,0,0,1.2.7c0.4,0.2.9,0.5,1.3,0.7a6.11,6.11,0,0,1,1.4.7,8.8,8.8,0,0,0,1.5.5c1,0.3,2,.5,3,0.7s2.1,0.3,3.1.4c0.5,0.1,1,.1,1.5.2s1.1,0.1,1.7.1c1,0,2-.1,3-0.1h1.3a8.6,8.6,0,0,1,1.6.1h0a13.8,13.8,0,0,0-2-.3,10.87,10.87,0,0,0-1.8-.1c-0.6,0-1.3-.1-1.9-0.1a12.25,12.25,0,0,1-1.9-.2h0.1a5.85,5.85,0,0,0-1.3-.2c-0.4-.1-0.9-0.1-1.3-0.2-0.9-.2-1.7-0.3-2.6-0.5s-1.7-.4-2.5-0.6c-0.4-.1-0.8-0.3-1.3-0.4s-0.8-.3-1.2-0.5h0.1c-0.4-.2-0.9-0.4-1.3-0.6l-1.2-.6a2.7,2.7,0,0,1,.8-0.7,4.35,4.35,0,0,1,.7-0.6l1.7-1.4h0a4,4,0,0,1,1.3-1.3h0Zm-2,4.9h0Z" transform="translate(-67.4 -57.2)"/><path class="cls-1" d="M159.9,227.1a3.08,3.08,0,0,0-1,.1h-0.7a0.6,0.6,0,0,0-.4.1,0.37,0.37,0,0,0-.3.1c-0.3.1-.5,0.1-0.8,0.2s-0.5.1-.7,0.2-0.6.1-.9,0.2a2.92,2.92,0,0,1-.9.2c-0.3.1-.5,0.1-0.8,0.2-0.5.1-.9,0.3-1.4,0.4a10.93,10.93,0,0,1-1.7.5,1.85,1.85,0,0,1-.7.2,2.35,2.35,0,0,1-.8.2c-0.1,0-.2.1-0.3,0.1s-0.2.1-.3,0.1c-0.3.1-.5,0.1-0.8,0.2-0.6.1-1.3,0.3-1.9,0.4-0.3.1-.6,0.1-0.9,0.2a3.55,3.55,0,0,1-1,.2,16,16,0,0,0-2.1.5c-0.3.1-.6,0.1-1,0.2-0.1,0-.3.1-0.4,0.1a4.33,4.33,0,0,0-.5.1h0c-0.3,0-.7.1-1,0.1a5.28,5.28,0,0,1-1.3.1c-0.4.1-.8,0.1-1.3,0.2a4.25,4.25,0,0,0-1.1.2h0c-1.2.1-2.4,0.3-3.6,0.4-0.5.1-1,.1-1.5,0.2a11,11,0,0,1-1.8.2h0.1c-1.1.1-2.2,0.3-3.3,0.4-0.5.1-1,.1-1.4,0.2s-0.6.1-1,.1a2.2,2.2,0,0,0-.8.1c-0.5,0-.9.1-1.4,0.1a2.77,2.77,0,0,0-.9.1h-5.6c-0.5,0-1,.1-1.5.1s-1.1.1-1.7,0.2-1,.1-1.5.1-1.2.1-1.8,0.2-1,.1-1.4.1-0.6.1-.9,0.1a2.2,2.2,0,0,0-.8.1h-1.9a2.92,2.92,0,0,0-.9.2,1.42,1.42,0,0,0-.6.2c-0.2.1-.5,0.2-0.7,0.3h0a3.09,3.09,0,0,1,.8-0.2,0.37,0.37,0,0,0,.3-0.1c0.2,0,.4-0.1.6-0.1h0a10.82,10.82,0,0,1,1.8,0h2.4a2.77,2.77,0,0,0,.9-0.1c0.5,0,1-.1,1.5-0.1s1-.1,1.6-0.1a1.7,1.7,0,0,0,.7-0.1c0.3,0,.6-0.1.9-0.1a9.7,9.7,0,0,1,1.7-.1,7.57,7.57,0,0,0,1.5-.1h4.7a2.77,2.77,0,0,0,.9-0.1,2.2,2.2,0,0,0,.8-0.1c0.5,0,1-.1,1.4-0.1,0.6-.1,1.2-0.1,1.8-0.2s1.1-.1,1.6-0.2,1-.1,1.5-0.2c1.3-.2,2.6-0.3,3.9-0.5h0l2.3-.3c0.4-.1.9-0.1,1.3-0.2s0.8-.1,1.2-0.2H136c0.6-.1,1.1-0.1,1.7-0.2s1-.1,1.5-0.2c0.2,0,.4-0.1.7-0.1s0.5-.1.8-0.2,0.5-.1.8-0.2,0.6-.1.8-0.2,0.5-.1.7-0.2,0.6-.1.8-0.2c0.6-.1,1.1-0.3,1.7-0.4l1.4-.3a7.49,7.49,0,0,0,1.6-.4c0.1,0,.2,0,0.2-0.1,0.2,0,.3-0.1.5-0.1s0.4-.1.6-0.2c0.4-.1.8-0.3,1.3-0.4s0.9-.3,1.4-0.5,1-.3,1.5-0.5c0.2-.1.4-0.1,0.6-0.2s0.4-.1.6-0.2c0.5-.1,1-0.3,1.5-0.4l1.2-.3c0.2,0,.4-0.1.6-0.1s0.6-.1.8-0.1h0c0.3,0.3.4,0.3,0.6,0.2h0Zm-58.4,8.4h0Z" transform="translate(-67.4 -57.2)"/><path class="cls-1" d="M151.4,225.1h-0.2a0.9,0.9,0,0,0-.5.1c-0.2,0-.5.1-0.7,0.1l-3.3.6-1.7.3a7.72,7.72,0,0,1-1.5.2c-1.1.2-2.2,0.3-3.3,0.5l-2.1.3a15.53,15.53,0,0,0-2.1.4c-0.7.1-1.4,0.3-2.1,0.4-0.4.1-.8,0.1-1.2,0.2s-0.7.1-1.1,0.2h0c-0.5.1-1.1,0.1-1.6,0.2-0.2,0-.5.1-0.7,0.1a2.77,2.77,0,0,0-.9.1h-1.7c-0.5,0-1,.1-1.5.1a10.87,10.87,0,0,1-1.8.1h-1.6c-0.5,0-.9.1-1.4,0.1s-1.2.1-1.7,0.1c-1.1,0-2.3.1-3.4,0.1-1.3,0-2.6.1-3.8,0.2h0c1.2,0,2.5.1,3.7,0.1h3.1c1.1,0,2.2,0,3.3-.1a7.57,7.57,0,0,0,1.5-.1c0.5,0,1-.1,1.5-0.1,0.3,0,.6-0.1.9-0.1a3.75,3.75,0,0,0,1-.1c0.5,0,1-.1,1.5-0.1h1.5c0.3,0,.6-0.1.9-0.1s0.5-.1.8-0.1a9.85,9.85,0,0,1,1.7-.2c0.2,0,.5-0.1.7-0.1s0.5-.1.7-0.1l3.4-.6c1-.2,2.1-0.3,3.1-0.5s2.1-.3,3.2-0.5l1.7-.3,1.7-.3,1.6-.3c0.2,0,.4-0.1.6-0.1s0.6-.1.8-0.2,0.6-.1.8-0.2,0.3-.1.5-0.1l2-.3h0a16.23,16.23,0,0,0-2.3.1h0Zm-20,3.2h0Z" transform="translate(-67.4 -57.2)"/><path class="cls-1" d="M137.4,221.8h-6.5c-1.1,0-2.2.1-3.3,0.1-2.1.1-4.2,0.1-6.4,0.1-1.1,0-2.2.1-3.4,0.1h-2.5a3.4,3.4,0,0,1-1-.1h0a2.77,2.77,0,0,0,.9.1,0.9,0.9,0,0,1,.5.1h0.4a8.6,8.6,0,0,1,1.6.1c1.1,0,2.1.1,3.2,0.1h3.2c1,0,2,0,3-.1a9.15,9.15,0,0,0,1.7-.1h1.7a8.6,8.6,0,0,0,1.6-.1h8c1.2,0,2.3-.1,3.5-0.1s2.4-.1,3.7-0.2h-3.6c-1.1,0-2.2,0-3.3-.1h-3.1c0.3,0.1.2,0.1,0.1,0.1h0Z" transform="translate(-67.4 -57.2)"/><path class="cls-1" d="M119,217.3c0.6,0.2,1.1.3,1.7,0.5s1,0.3,1.6.5a2.27,2.27,0,0,0,.4.1c0.2,0,.2.1,0.4,0.1a2.27,2.27,0,0,0,.4.1c0.2,0,.3.1,0.5,0.1a7.72,7.72,0,0,0,1.5.2c0.3,0,.5.1,0.8,0.1s0.6,0.1.9,0.1h22.9a2.49,2.49,0,0,1,.8.1h0l2.1,0.3h0c-0.7-.2-1.4-0.3-2.1-0.5h-0.2c-0.2,0-.4-0.1-0.6-0.1s-0.4-.1-0.7-0.1c-0.5,0-1.1-.1-1.6-0.1s-1.1-.1-1.7-0.1c-2.1-.1-4.3-0.1-6.4-0.1H127.4a2.77,2.77,0,0,1-.9-0.1c-0.4,0-.8-0.1-1.2-0.1h-0.8c-0.3,0-.5-0.1-0.8-0.1h0c-0.3-.1-0.7-0.1-1-0.2l-1.2-.3c-0.3-.1-0.6-0.1-0.9-0.2a13.69,13.69,0,0,0-1.6-.2h0Z" transform="translate(-67.4 -57.2)"/><path class="cls-1" d="M121.2,210.6c0.3,0.1.6,0.3,0.9,0.4h0l0.6,0.3c0.3,0.1.5,0.2,0.8,0.3l1.5,0.6a1.42,1.42,0,0,0,.6.2,6.89,6.89,0,0,1,.8.3l0.9,0.3c0.3,0.1.5,0.2,0.8,0.3s0.4,0.1.6,0.2a2.35,2.35,0,0,0,.8.2c0.3,0.1.6,0.1,1,.2h0.2c0.2,0,.4.1,0.6,0.1h0.6a1.27,1.27,0,0,1,.6.1h23.9c0.6,0,1.1.1,1.7,0.1h0c-0.3-.1-0.7-0.1-1-0.2a0.75,0.75,0,0,1-.5-0.1h-0.2c-0.3,0-.6-0.1-0.9-0.1a2,2,0,0,1-.7-0.1c-0.5,0-1.1-.1-1.6-0.1a8.6,8.6,0,0,1-1.6-.1c-1.1,0-2.2,0-3.3-.1H132.8c-0.3,0-.7-0.1-1-0.1h-0.1c-0.2,0-.4-0.1-0.7-0.1a0.9,0.9,0,0,1-.5-0.1c-0.3-.1-0.6-0.1-0.9-0.2s-0.4-.1-0.6-0.1-0.4-.1-0.6-0.2a3.09,3.09,0,0,0-.8-0.2c-0.2,0-.3-0.1-0.5-0.1s-0.5-.1-0.7-0.2c-0.4-.1-0.8-0.3-1.3-0.4s-0.9-.3-1.4-0.5-0.8-.3-1.2-0.4a2.34,2.34,0,0,1-1.3-.2h0Zm1,0.4h0Z" transform="translate(-67.4 -57.2)"/><path class="cls-1" d="M122.9,204c0.3,0.1.6,0.3,0.9,0.4,0.1,0.1.2,0.1,0.3,0.2s0.2,0.1.3,0.2a0.76,0.76,0,0,0,.4.2,0.35,0.35,0,0,1,.2.1c0.2,0.2.5,0.3,0.7,0.5s0.5,0.3.7,0.5a5.58,5.58,0,0,0,.8.5c0.2,0.1.5,0.3,0.7,0.4s0.5,0.3.7,0.4,0.2,0.1.3,0.2a0.37,0.37,0,0,0,.3.1,6.89,6.89,0,0,0,.8.3,3.55,3.55,0,0,1,.9.4c0.2,0.1.5,0.2,0.7,0.3s0.4,0.1.6,0.2a3.09,3.09,0,0,0,.8.2,2.92,2.92,0,0,0,.9.2,6.37,6.37,0,0,0,.7.2c0.1,0,.3.1,0.4,0.1h0.2c0.3,0,.6.1,0.8,0.1,0.5,0.1.9,0.1,1.4,0.2h0c0.5,0.1,1,.1,1.5.2,0.3,0,.6.1,0.8,0.1s0.6,0.1.9,0.1,0.4,0.1.6,0.1,0.7,0.1,1,.1h18c0.3,0,.6.1,0.9,0.1s0.7,0.1,1.1.1h0c-0.4-.1-0.7-0.1-1.1-0.2a3.08,3.08,0,0,0-1-.1h-1.6c-0.6,0-1.1-.1-1.7-0.1H141.9c-0.4,0-.7-0.1-1.1-0.1s-0.8-.1-1.2-0.2-0.8-.1-1.2-0.2l-2.3-.3h0c-0.3-.1-0.7-0.1-1-0.2-0.1,0-.2,0-0.2-0.1-0.2-.1-0.5-0.1-0.7-0.2s-0.6-.1-0.8-0.2a2.92,2.92,0,0,0-.9-0.2l-0.9-.3c-0.2-.1-0.4-0.1-0.6-0.2s-0.2-.1-0.3-0.1a3.55,3.55,0,0,1-.9-0.4,10.37,10.37,0,0,0-1-.4c-0.3-.1-0.5-0.3-0.8-0.4s-0.5-.3-0.8-0.4a4.35,4.35,0,0,1-.7-0.4c-0.3-.1-0.5-0.3-0.8-0.4s-0.5-.3-0.7-0.4-0.5-.3-0.8-0.4-0.5-.2-0.7-0.3a0.37,0.37,0,0,0-.3-0.1c0.2-.2-0.1-0.3-0.3-0.4h0Zm6.4,3.1h0Zm12,2.8h0Zm-3.7,0h0Z" transform="translate(-67.4 -57.2)"/><path class="cls-1" d="M120.2,194.5c0.1,0.1.2,0.1,0.3,0.2h0l0.9,0.9,0.6,0.6,0.5,0.5,0.6,0.6c0.2,0.1.3,0.3,0.5,0.4a2.65,2.65,0,0,0,.6.5c0.3,0.2.5,0.4,0.8,0.6s0.4,0.3.6,0.5a11.32,11.32,0,0,0,1.3,1c0.2,0.1.4,0.3,0.6,0.4s0.4,0.3.6,0.4a16792625.53,16792625.53,0,0,1,1.6,1c0.4,0.3.9,0.6,1.3,0.9a8.34,8.34,0,0,0,1.2.8l0.9,0.6,0.6,0.3c0.2,0.1.5,0.3,0.7,0.4a3,3,0,0,0,.8.4c0.4,0.2.9,0.5,1.4,0.7,0.1,0,.2.1,0.3,0.1s0.3,0.1.5,0.2a2.27,2.27,0,0,0,.4.1c0.3,0.1.7,0.2,1,.3a12.53,12.53,0,0,0,3.9.5h21.1c0.3,0,.6.1,0.9,0.1h0c-0.3-.1-0.7-0.1-1-0.2s-0.4-.1-0.6-0.1-0.7-.1-1-0.1h-0.7a2.77,2.77,0,0,1-.9-0.1h-0.7a7.57,7.57,0,0,1-1.5-.1c-1.2,0-2.3,0-3.5-.1H141.5a2.2,2.2,0,0,1-.8-0.1h0c-0.5-.1-0.9-0.2-1.3-0.3a6.37,6.37,0,0,0-.7-0.2,1.45,1.45,0,0,0-.7-0.2c-0.4-.1-0.7-0.3-1.1-0.4H137c-0.5-.2-0.9-0.5-1.4-0.7-0.3-.1-0.5-0.3-0.8-0.4s-0.5-.3-0.7-0.4a2.19,2.19,0,0,1-.5-0.3l-0.9-.6c-0.4-.3-0.8-0.5-1.2-0.8a9.13,9.13,0,0,0-1.3-.8c-0.2-.2-0.5-0.3-0.7-0.5s-0.5-.3-0.8-0.5a1.76,1.76,0,0,1-.5-0.4c-0.2-.2-0.4-0.3-0.6-0.5-0.5-.3-0.9-0.7-1.4-1-0.1-.1-0.3-0.2-0.4-0.3h0a8.74,8.74,0,0,0-1-.8h0l-1.8-1.5a3.92,3.92,0,0,0-1-.8l-0.4-.4c-0.1-.1-0.3-0.2-0.4-0.3a1.24,1.24,0,0,1-1-.1h0Z" transform="translate(-67.4 -57.2)"/><path class="cls-1" d="M147.9,135.8c-1.3,0-2.7.1-4,.2a31.76,31.76,0,0,0-4.3.6c-0.7.1-1.4,0.4-2,.5l-2.1.6a22.74,22.74,0,0,0-3.9,1.6,25.86,25.86,0,0,0-3.3,1.7c-1.6,1.1-3.2,2-4.8,3.2-0.8.6-1.6,1.1-2.4,1.7l-2.1,1.5h0a15.92,15.92,0,0,1-2.2,1.3c-0.8.4-1.5,0.8-2.2,1.2a18.43,18.43,0,0,0-4.3,3h0a18.65,18.65,0,0,1,2-1c1.6-.7,3.3-1.2,5-1.8,0.8-.3,1.7-0.5,2.4-0.8a25.32,25.32,0,0,1,2.3-1.2c1.7-.8,3.2-1.8,4.9-2.6s3.4-1.8,5.1-2.6c1.1-.4,2.1-0.9,3.2-1.3,1.5-.5,3-0.9,4.4-1.4s2.9-.6,4.4-0.9l4.1-.6c1.4-.2,2.8-0.2,4.2-0.3a37.27,37.27,0,0,1,4.7-.1c1.4,0.2,2.9.6,4.3,0.9a17.42,17.42,0,0,0,2.2.5c0.6,0.1,1.1.1,1.7,0.2h0.1a0.6,0.6,0,0,1,.4.1h0c-0.9-.3-1.9-0.6-2.8-1h0c-1-.4-2-0.9-2.9-1.3a29.72,29.72,0,0,0-3.9-1.3,31.16,31.16,0,0,0-4.4-.5c-1.2-.1-2.4-0.1-3.7-0.1h-0.1Zm-29,11.7-0.1.1c0.1,0,.1,0,0.1-0.1h0Zm44.2-8.5h0Z" transform="translate(-67.4 -57.2)"/><path class="cls-1" d="M164.9,134.5a2.44,2.44,0,0,0,.7,2.4,2.94,2.94,0,0,0,2.3.9c1.4,0,3.1-.6,3.5-2.1h0l-0.1.1h0a2.36,2.36,0,0,1-.5.5h0a1.61,1.61,0,0,1-.7.4l-1.1.3a12.1,12.1,0,0,1-1.9-.1,1.42,1.42,0,0,1-.6-0.2,2.19,2.19,0,0,1-.5-0.3,3,3,0,0,1-.8-0.8h0c-0.1-.1-0.1-0.2-0.2-0.3h0a0.37,0.37,0,0,1-.1-0.3,0.45,0.45,0,0,0,0-.5h0Zm0.3,1.1h0Zm0.8,0.8h0Zm4.2,0.3h0Zm0.6-.4h0Zm-5.7-.9h0Z" transform="translate(-67.4 -57.2)"/><path class="cls-1" d="M161.9,141.1c-0.7,1.4-1.4,2.9-2.1,4.3a9.72,9.72,0,0,0-1,3.7,2.82,2.82,0,0,0,.9,2.4,7.61,7.61,0,0,0,1.9,1.2,4.22,4.22,0,0,0,2.2.3,3.89,3.89,0,0,0,1.5-.2h-0.5a6.69,6.69,0,0,1-1.9-.5,7.46,7.46,0,0,1-1.2-.7,6.28,6.28,0,0,1-1.1-1.2c-0.1-.1-0.1-0.2-0.2-0.3a0.2,0.2,0,0,0-.1-0.2c0-.8.1-1.6,0.1-2.4v-0.1c0.2-1.1.6-2.1,0.9-3.2a14.2,14.2,0,0,0,.6-3.1h0Zm-1.5,6.3v0h0Zm-0.2,2.5h0Zm0.1,0.3h0c0.1,0.1,0,.1,0,0h0Zm0.2,0.3h0Zm4.2,2.3h0Z" transform="translate(-67.4 -57.2)"/><path class="cls-1" d="M166.3,137.5a8.49,8.49,0,0,0-1.2,3.8c-0.3,1.5-.7,2.9-0.9,4.3s-0.3,2.7-.4,4a8.91,8.91,0,0,0,.9,3.9,7,7,0,0,0,2.2,2.9,6.52,6.52,0,0,0,3.7.8,7.61,7.61,0,0,0,2.1-.3,21.16,21.16,0,0,0,2.1-1.1,11.94,11.94,0,0,0,3.1-2.8,10.08,10.08,0,0,0,1.2-2.3,7,7,0,0,0,.3-2.9,5.93,5.93,0,0,0-.5-2.3c-0.5-.8-1-1.5-1.5-2.3a26.75,26.75,0,0,1-1.8-2.8h0a11.69,11.69,0,0,0,.6,2,29.72,29.72,0,0,1,1.3,3.9c0,0.4-.1.8-0.1,1.2v0.1h0a8.33,8.33,0,0,1-.4,1.5,5.67,5.67,0,0,1-.8,1.3,15.38,15.38,0,0,1-1.2,1.3,17.61,17.61,0,0,1-2.3,1.4h0a0.35,0.35,0,0,0-.2.1l-0.9.3a8.13,8.13,0,0,1-2.2-.1c-0.1,0-.3-0.1-0.4-0.1s-0.1-.1-0.2-0.1l-0.5-.5a11.78,11.78,0,0,1-1.1-1.9,6.94,6.94,0,0,1-.5-1.3,49.09,49.09,0,0,1-.4-5.3c0-2.1-.2-4.2,0-6.3h0v-0.4h0Zm11.1,9v0h0Zm-0.2,1.4v0h0Zm-11-9.9h0Z" transform="translate(-67.4 -57.2)"/><path class="cls-1" d="M163.2,141.5a5.7,5.7,0,0,0-.1,1.3,5.7,5.7,0,0,1-.1,1.3v0.7a2,2,0,0,1-.1.7v3.8a6.6,6.6,0,0,0,.1,1.4c0.1,0.5.1,0.9,0.2,1.3h0c0-.4-0.1-0.9-0.1-1.3v-1.4a22.6,22.6,0,0,1,.1-2.6v-5.2h0Z" transform="translate(-67.4 -57.2)"/><path class="cls-1" d="M168.1,138.5a0.76,0.76,0,0,0-.2.4c0,0.1-.1.2-0.1,0.3a1.27,1.27,0,0,0-.1.6c-0.1.3-.1,0.5-0.2,0.8a7.72,7.72,0,0,0-.2,1.5,8.08,8.08,0,0,0-.1,1.6v2.4a0.6,0.6,0,0,0,.1.4c0,0.2.1,0.3,0.1,0.5a2.27,2.27,0,0,1,.1.4c0,0.1.1,0.2,0.1,0.3a2.35,2.35,0,0,1,.2.8,5,5,0,0,0,.5,1.3c0.1,0.2.2,0.5,0.3,0.7a4.87,4.87,0,0,1,.3.7l0.6,1.2c0.1,0.2.3,0.5,0.4,0.7s0.3,0.5.5,0.8h0a9.29,9.29,0,0,1-.5-1c-0.1-.3-0.3-0.6-0.4-0.9h0c-0.1-.3-0.2-0.5-0.3-0.8h0c-0.1-.3-0.2-0.5-0.3-0.8h0c-0.2-.6-0.5-1.3-0.7-1.9-0.1-.3-0.2-0.6-0.3-1-0.1-.2-0.1-0.4-0.2-0.6s-0.1-.3-0.1-0.5v-3.1a7.57,7.57,0,0,1,.1-1.5,7.72,7.72,0,0,1,.2-1.5h0a0.6,0.6,0,0,1,.1-0.4v-0.3a0.37,0.37,0,0,1,.1-0.3c0-.1.1-0.3,0.1-0.4h0a0.6,0.6,0,0,1-.1-0.4h0Zm-0.5,7.8h0Zm1.5,4.7h0Zm-1.4-10.7h0Z" transform="translate(-67.4 -57.2)"/><path class="cls-1" d="M169.2,138.2v1.6c0.1,0.5.1,1.1,0.2,1.6l0.3,1.5,0.3,1.5c0.1,0.5.3,1,.4,1.5s0.3,1,.5,1.5,0.4,1,.6,1.4c0.1,0.1.1,0.2,0.2,0.3s0.1,0.3.2,0.4,0.1,0.2.2,0.3,0.1,0.2.2,0.3a0.38,0.38,0,0,0,.2.2l0.3,0.3a0.53,0.53,0,0,1,.2.3l0.3,0.3a1.76,1.76,0,0,0,.5.4,2.18,2.18,0,0,0,.8.5h0c-0.1-.1-0.2-0.1-0.3-0.2h0c-0.1-.1-0.3-0.2-0.4-0.3l-0.3-.3-0.3-.3-0.2-.2-0.2-.2h0a0.53,0.53,0,0,1-.2-0.3c-0.1-.1-0.1-0.2-0.2-0.3s-0.1-.2-0.2-0.3a1.47,1.47,0,0,1-.2-0.4c-0.1-.1-0.1-0.3-0.2-0.4a0.37,0.37,0,0,1-.1-0.3c-0.1-.2-0.2-0.5-0.3-0.7s-0.1-.3-0.2-0.5a2.57,2.57,0,0,0-.2-0.5c-0.1-.4-0.3-0.8-0.4-1.1s-0.2-.7-0.3-1.1-0.2-.8-0.3-1.1a18.92,18.92,0,0,1-.5-2.3,5.16,5.16,0,0,1-.2-1.1c-0.1-.4-0.1-0.7-0.2-1.1h0v-0.9h0Z" transform="translate(-67.4 -57.2)"/><path class="cls-1" d="M171,138.2V139c0,0.2.1,0.5,0.1,0.7s0.1,0.3.1,0.4,0.1,0.3.1,0.4c0.1,0.3.2,0.5,0.3,0.8,0.2,0.5.4,0.9,0.6,1.4s0.5,1,.8,1.4c0.1,0.1.1,0.2,0.2,0.3s0.1,0.2.2,0.3a1.38,1.38,0,0,1,.3.4,0.53,0.53,0,0,1,.2.3c0.3,0.4.7,0.8,1,1.2a2.36,2.36,0,0,0,.5.5l0.3,0.3,0.3,0.3a2.18,2.18,0,0,1,.5.4c0.3,0.2.5,0.3,0.8,0.5h0l-0.1-.1h0c-0.3-.2-0.5-0.4-0.8-0.6a1.51,1.51,0,0,1-.4-0.4l-0.2-.2a0.38,0.38,0,0,0-.2-0.2,18.26,18.26,0,0,1-1.3-1.6h0c-0.1-.1-0.2-0.3-0.3-0.4h0a10.54,10.54,0,0,1-.7-1.1c-0.2-.4-0.5-0.8-0.7-1.2-0.1-.1-0.1-0.2-0.2-0.3s-0.1-.3-0.2-0.4l-0.3-.6-0.6-1.2h0a2.57,2.57,0,0,1-.2-0.5,0.6,0.6,0,0,1-.1-0.4c0-.1-0.1-0.3-0.1-0.4v-0.2a2.14,2.14,0,0,0,.1-0.6h0Z" transform="translate(-67.4 -57.2)"/><path class="cls-1" d="M171.4,137.3c0.3,0.5.7,1,1,1.5a2.65,2.65,0,0,0,.5.6,2.65,2.65,0,0,0,.5.6c0.1,0.2.3,0.3,0.4,0.5l0.5,0.5,0.3,0.3a0.38,0.38,0,0,1,.2.2c0.2,0.1.4,0.3,0.6,0.4h0l-0.1-.1h0a1.51,1.51,0,0,1-.4-0.4l-0.2-.2-0.3-.3-0.2-.2-0.2-.2a2.36,2.36,0,0,0-.5-0.5c-0.1-.2-0.3-0.3-0.4-0.5s-0.3-.4-0.5-0.6a5.52,5.52,0,0,0-1.2-1.6h0Z" transform="translate(-67.4 -57.2)"/><path class="cls-1" d="M136.9,104.7c-0.3,1.7.7,3.1,1.4,4.5a15,15,0,0,1,1,3.2,22.6,22.6,0,0,1,.1,2.6,28.08,28.08,0,0,1-.1,4.1c-0.2,1.7-.6,3.3-0.9,5-0.2,1.3-.6,2.5-0.9,3.8h0c0.4-.8.8-1.5,1.2-2.3a34.54,34.54,0,0,0,1.4-3.4,14,14,0,0,0,1.1-4c0.1-1.1.1-2.1,0.1-3.2a9.88,9.88,0,0,0-1-4.5,26.16,26.16,0,0,0-2.4-3.4c-0.3-.5-0.6-0.9-0.9-1.5a1.48,1.48,0,0,0-.1-0.9h0Z" transform="translate(-67.4 -57.2)"/><path class="cls-1" d="M164.3,91a28.5,28.5,0,0,0-2.9.3,22.47,22.47,0,0,0-5.1,1.3,20.28,20.28,0,0,0-4.2,2c-1.2.8-2.4,1.7-3.6,2.6-1.4,1-2.5,2.2-3.9,3.2,0.1,0,.1-0.1.2-0.1a39.56,39.56,0,0,1-3.4,2.2c-1.3.8-2.5,1.7-3.8,2.5h0c1.6-.5,3.1-1.2,4.6-1.7a21.28,21.28,0,0,0,4.1-1.8c1.4-.8,2.7-1.6,4-2.3s2.5-1.3,3.7-1.8a28.26,28.26,0,0,1,5-1.3,22.61,22.61,0,0,1,5.2,0,1.42,1.42,0,0,1,.6.2,8.79,8.79,0,0,1,1,.6,17.88,17.88,0,0,1,1.4,1.3,15.8,15.8,0,0,1,2,3.6,18.87,18.87,0,0,1,.9,3.4c0.2,1.2.4,2.4,0.5,3.6a29.16,29.16,0,0,1,.1,5.1,22.76,22.76,0,0,1-1.1,4.5c-0.2.7-.4,1.5-0.6,2.2a16.67,16.67,0,0,1-.8,2,7.46,7.46,0,0,1-.7,1.2,12.88,12.88,0,0,1-1.7,1.6c-0.7.5-1.3,1-2,1.5a9.8,9.8,0,0,1-2.2,1.3l-1.2.3h-1.2c-1.2-.2-2.2-0.8-3.4-1.1a20.24,20.24,0,0,0-2.6-.4c-0.9-.1-1.7-0.3-2.6-0.4-1.8-.3-3.6-0.7-5.5-0.9a27.16,27.16,0,0,0-5.7-.1h0c0.2,0,.4.1,0.6,0.1h0c1.3,0.2,2.5.5,3.8,0.8s2.6,0.9,3.8,1.4c-0.1,0-.1-0.1-0.2-0.1,2.4,1,4.9,1.7,7.3,2.6A33.58,33.58,0,0,0,158,132a7.91,7.91,0,0,0,4.8.3,7.74,7.74,0,0,0,1.6-.7,12.45,12.45,0,0,0,2-1,22.73,22.73,0,0,0,4.8-3.3,14.58,14.58,0,0,0,2.8-4.6,28,28,0,0,0,1.8-5.1,22.31,22.31,0,0,0,.9-6.3V109a23.18,23.18,0,0,0-.6-3.8,21.9,21.9,0,0,0-1.2-4.9c-0.4-.9-0.8-1.8-1.3-2.7a24.26,24.26,0,0,0-1.4-2,13.28,13.28,0,0,0-4.5-4,7.68,7.68,0,0,0-3.6-.9c0.5,0.3.4,0.3,0.2,0.3h0Zm-3.8,37.6h0Zm-20-2.7h0Z" transform="translate(-67.4 -57.2)"/><path class="cls-1" d="M163,97.7a3.55,3.55,0,0,0-1,.2c-0.1,0-.2.1-0.3,0.1a2.27,2.27,0,0,1-.4.1c-0.5.2-1.1,0.3-1.6,0.5s-0.9.3-1.4,0.4-1,.3-1.5.5c-0.2.1-.5,0.2-0.7,0.3s-0.5.2-.8,0.3c-0.5.2-.9,0.4-1.4,0.6s-1,.4-1.4.6c-0.2.1-.3,0.1-0.5,0.2l-0.6.3c-0.1.1-.2,0.1-0.3,0.2a1.06,1.06,0,0,1-.5.2c-0.3.2-.7,0.3-1,0.5s-0.7.3-1,.5a2.19,2.19,0,0,0-.5.3c-0.2.1-.3,0.2-0.5,0.3s-0.6.3-.9,0.5a4.67,4.67,0,0,1-1,.5c-0.1.1-.3,0.1-0.4,0.2l-0.6.3h0a6.94,6.94,0,0,1-1.3.5c-0.1,0-.2.1-0.3,0.1-0.3.1-.6,0.3-0.9,0.4a6.07,6.07,0,0,0-1,.7c-0.3.3-.7,0.5-1,0.8s-0.7.6-1.1,0.9h0c0.3-.2.5-0.4,0.8-0.6s0.5-.3.7-0.5a1.61,1.61,0,0,1,.7-0.4c0.2-.1.3-0.2,0.5-0.3l0.6-.3,0.6-.3h0l1.5-.6c0.2-.1.3-0.1,0.5-0.2s0.3-.1.4-0.2a0.35,0.35,0,0,0,.2-0.1c0.4-.2.9-0.4,1.3-0.6l1.2-.6,1.2-.6c0.4-.2.8-0.3,1.2-0.5a1.69,1.69,0,0,1,.5-0.2l0.6-.3a4.88,4.88,0,0,1,.7-0.3l0.6-.3h-0.1a27.73,27.73,0,0,1,2.6-1c0.4-.2.8-0.3,1.2-0.5s0.8-.3,1.3-0.5,0.8-.3,1.2-0.4a6.47,6.47,0,0,1,1.3-.4,1.42,1.42,0,0,1,.6-0.2,1.45,1.45,0,0,1,.7-0.2,6.37,6.37,0,0,1,.7-0.2c0.1,0,.3-0.1.4-0.1,0.3-.1.5-0.1,0.8-0.2h0a12.1,12.1,0,0,1,1.9-.1H164a1.56,1.56,0,0,0-1-.3h0Zm-20.4,8.6h0Z" transform="translate(-67.4 -57.2)"/><path class="cls-1" d="M166.5,103.4h-1.8a2,2,0,0,0-.7.1,1.27,1.27,0,0,0-.6.1,0.6,0.6,0,0,0-.4.1c-0.3,0-.6.1-0.8,0.1s-0.5.1-.7,0.1c-1,.2-2.1.5-3.1,0.7s-2.1.6-3.2,1a6.37,6.37,0,0,1-.7.2c-0.2.1-.3,0.1-0.5,0.2s-0.2.1-.3,0.1c-0.5.2-1.1,0.4-1.6,0.6l-3,1.2a9.14,9.14,0,0,0-1.4.7c-0.5.2-1,.5-1.5,0.7l-1.2.6c-0.4.2-.7,0.3-1.1,0.5h0a11.11,11.11,0,0,0-1.6.7c-0.3.1-.5,0.3-0.8,0.4a3.13,3.13,0,0,1-1,.5h0c-0.1.1-.3,0.1-0.4,0.2h0a0.37,0.37,0,0,0,.3-0.1c0.1,0,.2-0.1.3-0.1a0.53,0.53,0,0,0,.3-0.2,1.69,1.69,0,0,1,.5-0.2h0c0.6-.2,1.2-0.5,1.8-0.7l0.9-.3c0.3-.1.7-0.3,1-0.4,1.2-.5,2.4-1.1,3.6-1.6h-0.1c1-.4,1.9-0.8,2.9-1.2a12.2,12.2,0,0,0,1.7-.7,1.42,1.42,0,0,1,.6-0.2,6.89,6.89,0,0,1,.8-0.3l0.9-.3a6.89,6.89,0,0,0,.8-0.3c0.5-.1.9-0.3,1.4-0.4a3.09,3.09,0,0,1,.8-0.2,2.92,2.92,0,0,1,.9-0.2,1.27,1.27,0,0,1,.6-0.1c0.2-.1.5-0.1,0.7-0.2s0.6-.1.9-0.2a1.7,1.7,0,0,1,.7-0.1,6.75,6.75,0,0,1,1.4-.2h0c0.3,0,.6-0.1.9-0.1a2.77,2.77,0,0,0,.9-0.1c0.5,0,1.1-.1,1.6-0.1a10.87,10.87,0,0,0,1.8-.1c0.7,0,1.3-.1,2-0.1h-4.8c0.4-.1.3-0.1,0.3-0.1h0Zm-2.2.5h0Z" transform="translate(-67.4 -57.2)"/><path class="cls-1" d="M166.3,112.6h-1.8a7.57,7.57,0,0,0-1.5.1,2.77,2.77,0,0,0-.9.1h-0.7a8.81,8.81,0,0,0-1.7.2,1.7,1.7,0,0,0-.7.1c-0.3,0-.7.1-1,0.1a7.72,7.72,0,0,1-1.5.2c-0.3,0-.5.1-0.8,0.1s-0.5.1-.7,0.1c-1.1.2-2.3,0.5-3.4,0.7l-1.4.3c-0.3.1-.6,0.1-0.9,0.2s-0.6.1-.8,0.2-0.5.1-.7,0.2a2.35,2.35,0,0,1-.8.2,9.36,9.36,0,0,1-1.6.4c-0.3.1-.6,0.1-0.9,0.2s-0.6.1-.9,0.2l-2.1.6h0l3.1-.6,1.6-.3c0.2-.1.5-0.1,0.8-0.2s0.5-.1.8-0.2,0.3-.1.5-0.1,0.2-.1.3-0.1c0.3-.1.6-0.1,0.9-0.2a0.37,0.37,0,0,0,.3-0.1,4.33,4.33,0,0,0,.5-0.1c0.2,0,.5-0.1.7-0.1l3.2-.6a12.86,12.86,0,0,0,1.9-.4,2.2,2.2,0,0,1,.8-0.1c0.4-.1.7-0.1,1.1-0.2h0c0.5-.1,1-0.1,1.5-0.2,0.3,0,.6-0.1.9-0.1s0.6-.1.8-0.1c1-.1,2.1-0.2,3.1-0.2,0.5,0,1.1-.1,1.6-0.1a3.4,3.4,0,0,0,1-.1h0.8c1.1,0,2.2-.1,3.3-0.1h0.8c-1.2,0-2.4-.1-3.7-0.1h-1.2a1.27,1.27,0,0,1-.6.1h0Z" transform="translate(-67.4 -57.2)"/><path class="cls-1" d="M148.7,119.1h-1.5c-0.6.1-1.1,0.1-1.7,0.2l-2.3.3a4.33,4.33,0,0,0-.5.1c-0.2,0-.3.1-0.5,0.1s-0.4.1-.6,0.1a0.2,0.2,0,0,0-.2.1h-0.2c-0.1,0-.2.1-0.3,0.1h0c0.1,0,.2-0.1.3-0.1h0.2a0.76,0.76,0,0,0,.4-0.1c0.2,0,.5-0.1.7-0.1h0a0.6,0.6,0,0,0,.4-0.1h0.3c0.3,0,.6-0.1.9-0.1,0.5,0,1.1-.1,1.6-0.1h11.5a4.87,4.87,0,0,1,1.2.1c0.4,0,.8.1,1.2,0.1,0.7,0,1.3.1,2,.1,0.3,0,.7.1,1,0.1s0.8,0.1,1.2.1c0.6,0.1,1.2.2,1.7,0.3a2.77,2.77,0,0,0,.9.1c0.4,0.1.7,0.1,1.1,0.2s0.6,0.1.9,0.2,0.6,0.1.9,0.2a2.49,2.49,0,0,0,.8.1h0.4a1.7,1.7,0,0,1,.7.1h0c-0.3-.1-0.7-0.1-1-0.2a0.37,0.37,0,0,1-.3-0.1c-0.2,0-.4-0.1-0.6-0.1s-0.2-.1-0.3-0.1-0.3-.1-0.5-0.1a3.09,3.09,0,0,0-.8-0.2c-0.2-.1-0.4-0.1-0.6-0.2s-0.5-.1-0.8-0.2l-1.6-.3c-0.3-.1-0.6-0.1-0.9-0.2h-0.2c-0.2,0-.4-0.1-0.6-0.1s-0.4-.1-0.6-0.1-0.7-.1-1-0.1a8.6,8.6,0,0,0-1.6-.1c-0.5,0-1-.1-1.4-0.1s-1-.1-1.6-0.1h-5.1a14.17,14.17,0,0,1-3,.2h0Z" transform="translate(-67.4 -57.2)"/><path class="cls-1" d="M145.3,124c-1.1,0-2.1.1-3.2,0.1H142c1.1,0,2.2.1,3.2,0.1s2.1,0.1,3.2.1h0.8c0.3,0,.7.1,1,0.1,0.5,0,1.1.1,1.6,0.1,0.2,0,.4.1,0.6,0.1s0.6,0.1.9,0.1,0.5,0.1.8,0.1a1.7,1.7,0,0,1,.7.1c0.5,0.1,1,.1,1.5.2l1.5,0.3c0.1,0,.3.1,0.4,0.1,0.3,0.1.7,0.1,1,.2l1.4,0.3a5.73,5.73,0,0,1,1.4.4c0.5,0.1.9,0.3,1.4,0.4s0.9,0.3,1.3.4c0.2,0.1.4,0.1,0.6,0.2s0.4,0.1.6,0.2c0.5,0.2,1.1.4,1.6,0.6h0c-0.6-.3-1.1-0.5-1.7-0.8a6.89,6.89,0,0,0-.8-0.3,1.42,1.42,0,0,0-.6-0.2c-0.3-.1-0.5-0.2-0.8-0.3-0.1,0-.2-0.1-0.3-0.1s-0.4-.1-0.6-0.2a2.57,2.57,0,0,1-.5-0.2l-1.1-.3a7.49,7.49,0,0,0-1.6-.4c-0.2,0-.3-0.1-0.5-0.1a4.25,4.25,0,0,0-1.1-.2,4.33,4.33,0,0,1-.5-0.1c-0.4-.1-0.7-0.1-1.1-0.2-0.2,0-.3-0.1-0.5-0.1a4.1,4.1,0,0,0-1.1-.1,1.27,1.27,0,0,1-.6-0.1c-0.3,0-.6-0.1-1-0.1-0.2,0-.5-0.1-0.7-0.1s-0.5-.1-0.8-0.1c-0.5,0-1-.1-1.6-0.1h-2.6a4.7,4.7,0,0,0-2.1-.1h0Z" transform="translate(-67.4 -57.2)"/><path class="cls-1" d="M168.7,57.7a18.41,18.41,0,0,0-3.3.3,10.41,10.41,0,0,0-1.6.6,10.93,10.93,0,0,0-1.5.8,22,22,0,0,0-1.8,1.4,34.46,34.46,0,0,0-2.8,2.6,41.72,41.72,0,0,0-4.7,4.7,22.61,22.61,0,0,0-1.6,2.6c-0.5,1-1.1,1.9-1.6,2.8a44.71,44.71,0,0,0-2.5,6h0a48.54,48.54,0,0,1,3.9-6.1l-0.1.1c0.8-1,1.6-2,2.3-3a18.79,18.79,0,0,1,2.5-2.4c1.3-1,2.7-1.9,4-2.8a29.37,29.37,0,0,1,4.7-3.1,8.45,8.45,0,0,1,1.7-.5,13,13,0,0,1,3.4.2,27.46,27.46,0,0,1,4.9,1.4c1.7,0.7,3.3,1.4,5,2,0.8,0.4,1.7.7,2.5,1.1,1,0.5,1.9,1.1,2.8,1.6,1.8,1.1,3.7,2.3,5.5,3.5s3.6,2.3,5.3,3.6c0.9,0.6,1.9,1.1,2.8,1.7a14.29,14.29,0,0,1,2,1.4,29.12,29.12,0,0,1,3,3.1c1.7,2.4,3.1,5,4.6,7.5,1.5,2.7,3,5.4,4.4,8.1,0.7,1.3,1.3,2.8,1.9,4.1l2.1,4.2c1.3,2.6,2.5,5.1,3.6,7.7,0.7,1.8,1.4,3.6,2,5.4,0.7,2,1.6,4,2.3,6.1s1.5,4.3,2.4,6.4c0.4,1,.9,2.1,1.2,3.1s0.4,2,.6,2.9c0.1,1.4.2,2.8,0.3,4.3a32.3,32.3,0,0,1,0,4.4,24.88,24.88,0,0,1-1.6,5.3,12.75,12.75,0,0,1-1.5,2.5c-0.5.6-1,1.1-1.5,1.6a3,3,0,0,1-1.1.6c-0.6.2-1.2,0.3-1.8,0.5a11.94,11.94,0,0,0-1.6.8h0a14.13,14.13,0,0,1,2.2-.6h0a2.77,2.77,0,0,0,.9-0.1,4.65,4.65,0,0,0,2.3-.9,9.5,9.5,0,0,0,1.9-1.6,16.19,16.19,0,0,0,2.7-4.1,20.5,20.5,0,0,0,1.6-4.1,24.17,24.17,0,0,0,.6-4.6,35.4,35.4,0,0,0,.2-4.6,23.41,23.41,0,0,0-.8-5.3c-0.4-1.6-.9-3.2-1.3-4.8s-0.9-3.3-1.3-4.9c-0.7-2.3-1.2-4.6-1.9-6.8-0.4-1.1-.7-2.2-1.1-3.4s-0.9-2.2-1.3-3.3c-0.7-1.6-1.3-3.2-2.1-4.8-0.3-.7-0.6-1.4-0.9-2-0.3-.8-0.8-1.5-1.1-2.3-0.7-1.6-1.4-3.2-2.2-4.8s-1.5-2.9-2.3-4.4c-1.6-3-3.4-6-5.2-8.9a26.86,26.86,0,0,0-3.1-4.4,16.18,16.18,0,0,0-1.8-1.9c-0.7-.7-1.6-1.3-2.4-2a29.79,29.79,0,0,0-4.5-2.7c-0.7-.4-1.4-0.9-2.1-1.4a17.1,17.1,0,0,0-2.3-1.3c-2.9-1.6-5.7-3.4-8.7-4.9a55.46,55.46,0,0,0-5.2-2c-1.6-.5-3.2-1.1-4.9-1.6a26.61,26.61,0,0,0-4.9-1c-0.5,0-1-.1-1.5-0.1a0.49,0.49,0,0,1-.6.5h0ZM153.6,70.4l-0.1.1,0.1-.1h0Zm70.7,37.2a1.47,1.47,0,0,1,.2.4,0.76,0.76,0,0,1-.2-0.4h0Zm4.5,29.7v0h0Zm-5.6,18.6h0Zm-1,.7h0Z" transform="translate(-67.4 -57.2)"/><path class="cls-1" d="M176.1,62.7c-0.3.2-.5,0.3-0.8,0.5s-0.5.3-.8,0.4l-0.6.3c-0.3.1-.5,0.3-0.8,0.4s-0.9.5-1.3,0.7-1,.5-1.5.8c-0.9.5-1.9,1.1-2.8,1.7-0.2.1-.4,0.3-0.6,0.4a2.65,2.65,0,0,0-.6.5c-0.2.2-.4,0.3-0.6,0.5s-0.4.3-.6,0.5-0.4.3-.6,0.5h0a4.23,4.23,0,0,1-.7.5c-0.3.2-.5,0.4-0.8,0.6s-0.5.4-.8,0.6-0.5.4-.8,0.6a20,20,0,0,0-1.6,1.4,5,5,0,0,0-.8.7c-0.1.1-.3,0.2-0.4,0.3s-0.3.2-.4,0.3h0.1a1.76,1.76,0,0,0-.5.4,1.38,1.38,0,0,1-.4.3c-0.3.2-.7,0.5-1,0.7a8.65,8.65,0,0,0-1,.7,7.63,7.63,0,0,0-1.1.8c-0.3.2-.6,0.5-0.9,0.7a1.38,1.38,0,0,1-.4.3,1.51,1.51,0,0,0-.4.4c-0.3.3-.6,0.5-0.9,0.8s-0.9.8-1.3,1.2h0c0.5-.4,1-0.8,1.6-1.2h0c0.2-.2.5-0.3,0.7-0.5s0.4-.3.6-0.5,0.4-.3.6-0.4a2.09,2.09,0,0,1,.6-0.4c0.2-.2.5-0.3,0.7-0.5s0.5-.3.8-0.5,0.4-.3.6-0.4,0.4-.3.6-0.4a1,1,0,0,0,.5-0.4c0.2-.2.5-0.4,0.7-0.6a3,3,0,0,1,.7-0.5c0.2-.2.4-0.3,0.6-0.5,0.4-.3.8-0.7,1.2-1,0.2-.2.5-0.4,0.7-0.6s0.4-.3.6-0.5l0.2-.2h0c0.3-.2.5-0.4,0.8-0.6a5.5,5.5,0,0,0,.9-0.7,22,22,0,0,0,1.8-1.4h0a2.18,2.18,0,0,0,.5-0.4,0.53,0.53,0,0,1,.3-0.2c0.1-.1.2-0.1,0.3-0.2a8.34,8.34,0,0,1,1.2-.8,14.8,14.8,0,0,1,1.3-.8c0.2-.1.4-0.3,0.6-0.4s0.4-.3.6-0.4c0.9-.5,1.7-1,2.6-1.5a4.13,4.13,0,0,0,1.1-.7c0.2-.2.5-0.3,0.7-0.5,0.5-.4.8-0.6,1-0.8h0ZM151.9,79.8h0Zm10.6-7.9h0Zm0,0h0Zm3.5-2.7h0Z" transform="translate(-67.4 -57.2)"/><path class="cls-1" d="M187.6,67.2l-1.1.3c-0.1,0-.2.1-0.3,0.1s-0.3.1-.4,0.1h-0.1a0.35,0.35,0,0,0-.2.1c-0.1,0-.2.1-0.3,0.1s-0.2.1-.3,0.1a1.47,1.47,0,0,1-.4.2c-0.5.3-1,.5-1.5,0.8s-0.9.5-1.4,0.7c-0.2.1-.5,0.2-0.7,0.3s-0.5.2-.8,0.3c-0.5.2-1.1,0.5-1.6,0.7-0.3.1-.5,0.3-0.8,0.4a2.51,2.51,0,0,0-.7.4,9.14,9.14,0,0,0-1.4.7c-0.9.4-1.9,1-2.8,1.5-0.2.1-.5,0.3-0.7,0.4s-0.5.3-.8,0.5-0.8.5-1.2,0.8c-0.9.6-1.9,1.3-2.8,1.9-0.2.1-.4,0.3-0.6,0.4s-0.4.3-.6,0.4c-0.5.3-.9,0.7-1.4,1a4.23,4.23,0,0,1-.7.5c-0.3.2-.7,0.5-1,0.7h0l1.5-.9c0.5-.3,1-0.7,1.5-1a9.13,9.13,0,0,1,1.3-.8c0.4-.3.8-0.5,1.2-0.8,1-.6,1.9-1.2,2.9-1.9a9.13,9.13,0,0,1,1.3-.8c0.4-.3.9-0.5,1.3-0.8a9.14,9.14,0,0,1,1.4-.7c0.2-.1.5-0.2,0.7-0.3a3,3,0,0,0,.8-0.4l3-1.5c0.5-.2,1-0.5,1.4-0.7l0.6-.3c0.2-.1.5-0.3,0.7-0.4l1.5-.9c0.2-.1.5-0.3,0.7-0.4a2.51,2.51,0,0,0,.7-0.4h0c0.2-.1.5-0.2,0.7-0.3a0.6,0.6,0,0,1,.4-0.1,1.56,1.56,0,0,0,1,0h0Zm-1.7.6h0Z" transform="translate(-67.4 -57.2)"/><path class="cls-1" d="M194.8,72.6c-0.2.1-.5,0.1-0.7,0.2s-0.3.1-.5,0.1-0.5.2-.8,0.3a4.88,4.88,0,0,1-.7.3c-0.1,0-.2.1-0.3,0.1s-0.3.1-.4,0.2c-0.3.1-.5,0.2-0.8,0.3l-0.6.3c-0.3.1-.5,0.3-0.8,0.4a2.19,2.19,0,0,0-.5.3,4.67,4.67,0,0,1-1,.5,2.19,2.19,0,0,0-.5.3,15.05,15.05,0,0,0-1.7,1,0.76,0.76,0,0,1-.4.2c-0.3.2-.5,0.4-0.8,0.6s-0.5.3-.7,0.5-0.4.3-.6,0.4a14.8,14.8,0,0,1-1.3.8,10.93,10.93,0,0,1-1.5.8l-0.6.3c-0.3.2-.6,0.3-0.9,0.5s-0.8.5-1.3,0.7c-1,.5-1.9,1-2.9,1.5a10,10,0,0,0-1.4.8c-0.6.3-1.1,0.6-1.6,0.9h0c0.6-.3,1.1-0.5,1.7-0.8a10.09,10.09,0,0,0,1.5-.7c1-.5,2-0.9,3-1.4a5.39,5.39,0,0,0,1.3-.7c0.3-.2.6-0.3,0.9-0.5s0.5-.3.7-0.4a9.13,9.13,0,0,0,1.3-.8c0.3-.2.5-0.3,0.8-0.5a4.35,4.35,0,0,1,.7-0.4c0.4-.2.7-0.5,1.1-0.7a4.23,4.23,0,0,1,.7-0.5c0.1,0,.1-0.1.2-0.1s0.1-.1.2-0.1c0.5-.3,1.1-0.7,1.6-1s0.7-.4,1.1-0.6,0.8-.5,1.2-0.7,0.5-.3.8-0.4,0.3-.2.5-0.3,0.5-.3.7-0.4,0.5-.2.7-0.3l1.2-.6h0a2.57,2.57,0,0,0,.5-0.2,2.92,2.92,0,0,0,.9-0.2h0Z" transform="translate(-67.4 -57.2)"/><path class="cls-1" d="M202.6,78.3c-0.4.1-.8,0.1-1.1,0.2a0.37,0.37,0,0,0-.3.1c-0.1,0-.3.1-0.4,0.1s-0.3.1-.5,0.1a1.42,1.42,0,0,0-.6.2,5.91,5.91,0,0,0-1.4.6,1.06,1.06,0,0,1-.5.2c-0.1,0-.1.1-0.2,0.1-0.3.2-.6,0.3-0.9,0.5a4.35,4.35,0,0,1-.7.4l-0.6.3c-1,.5-1.9,1.1-2.9,1.6l-0.6.3c-0.3.2-.6,0.3-0.9,0.5l-0.6.3a5.74,5.74,0,0,0-.7.4c-0.6.4-1.3,0.8-1.9,1.2l-0.9.6a8.79,8.79,0,0,1-1,.6l-0.9.6a5.5,5.5,0,0,0-.9.7c-0.7.6-1.4,1.1-2.2,1.7h0c0.5-.4,1.1-0.7,1.6-1.1a3.51,3.51,0,0,1,.8-0.5c0.1,0,.1-0.1.2-0.1a39650824.54,39650824.54,0,0,0,1-.6,4.35,4.35,0,0,1,.7-0.4c0.5-.3,1-0.6,1.6-0.9,0.4-.2.8-0.5,1.3-0.7,0.3-.2.5-0.3,0.8-0.5l0.6-.3,1.5-.9c0.4-.2.8-0.5,1.2-0.7l1.5-.9c0.4-.2.8-0.5,1.2-0.7s0.5-.3.8-0.5a2.51,2.51,0,0,1,.7-0.4l0.6-.3a0.76,0.76,0,0,1,.4-0.2,3.55,3.55,0,0,1,.9-0.4h0c0.3-.1.7-0.3,1-0.4a2.35,2.35,0,0,1,.8-0.2,1.27,1.27,0,0,1,.6-0.1,2,2,0,0,1,.9-0.5h0Zm-3.3,1h0Z" transform="translate(-67.4 -57.2)"/><path class="cls-1" d="M208.3,83.5l-1.1.3c-0.3.1-.5,0.1-0.8,0.2-0.1,0-.2.1-0.3,0.1s-0.3.1-.4,0.1-0.2.1-.3,0.1-0.3.1-.4,0.1l-1.5.6c-0.5.2-1.1,0.4-1.6,0.6-0.3.1-.5,0.2-0.8,0.3s-0.5.2-.7,0.3l-0.6.3a5.94,5.94,0,0,1-.8.4,5.58,5.58,0,0,0-.8.5,4.35,4.35,0,0,1-.7.4,1,1,0,0,0-.5.4,5.55,5.55,0,0,0-.8.6c-0.3.3-.7,0.5-1,0.8h0c-0.3.2-.6,0.5-0.9,0.7h0c-0.3.2-.7,0.5-1,0.7a37497522.14,37497522.14,0,0,0-2.4,1.6c-0.4.3-.9,0.6-1.3,0.9h0c0.5-.3,1-0.7,1.6-1s1-.6,1.4-0.9a14.8,14.8,0,0,1,1.3-.8c0.2-.1.3-0.2,0.5-0.3s0.1-.1.2-0.1a5.55,5.55,0,0,0,.8-0.6c0.4-.3.8-0.6,1.1-0.8s0.5-.4.8-0.6,0.4-.3.6-0.4a2.09,2.09,0,0,0,.6-0.4c0.3-.2.6-0.3,0.9-0.5,0.1,0,.1-0.1.2-0.1s0.3-.2.5-0.3a4.88,4.88,0,0,1,.7-0.3,1.06,1.06,0,0,1,.5-0.2l0.6-.3c0.4-.2.7-0.3,1.1-0.5h0c0.7-.3,1.4-0.6,2.2-0.9l0.6-.3h0a1.42,1.42,0,0,1,.6-0.2c0.2-.1.4-0.1,0.6-0.2a3.92,3.92,0,0,0,1.3-.3h0Zm-2.6.9h0Zm-0.6.3h0Zm-10.8,5.6h0Z" transform="translate(-67.4 -57.2)"/><path class="cls-1" d="M211.5,90.8c-0.4.1-.8,0.3-1.1,0.4a1.42,1.42,0,0,1-.6.2c-0.3.1-.6,0.3-0.9,0.4-0.1,0-.1.1-0.2,0.1l-0.6.3c-0.9.5-1.9,0.9-2.7,1.4-0.4.3-.9,0.5-1.3,0.8a9.13,9.13,0,0,1-1.3.8l-1.5.9c-0.2.1-.3,0.2-0.5,0.3s-0.5.3-.7,0.5a4.23,4.23,0,0,1-.7.5c-0.1.1-.3,0.2-0.4,0.3a4.35,4.35,0,0,1-.7.6l-0.2.2a0.38,0.38,0,0,0-.2.2,4.35,4.35,0,0,1-.7.6l-0.3.3c-0.4.5-.9,0.9-1.3,1.4h0c0.5-.5,1-0.9,1.5-1.4l0.4-.4a4.35,4.35,0,0,1,.7-0.6,4.23,4.23,0,0,1,.7-0.5c0.1-.1.2-0.1,0.3-0.2a0.38,0.38,0,0,0,.2-0.2c0.3-.2.5-0.3,0.8-0.5,0.1,0,.1-0.1.2-0.1l0.6-.3c0.9-.6,1.8-1.1,2.7-1.7,0.4-.3.9-0.6,1.3-0.9,0.2-.1.4-0.3,0.6-0.4a2.51,2.51,0,0,1,.7-0.4,0.31,0.31,0,0,1,.2-0.1c0.1-.1.3-0.2,0.4-0.3s0.5-.3.7-0.4l0.6-.3a4.35,4.35,0,0,1,.7-0.4l0.6-.3c0.1-.1.3-0.1,0.4-0.2a4.42,4.42,0,0,0,1.6-.6h0Zm-13.2,8h0Z" transform="translate(-67.4 -57.2)"/><path class="cls-1" d="M216.3,100.4c-0.3.1-.6,0.1-0.9,0.2a2.27,2.27,0,0,1-.4.1c-0.3.1-.5,0.1-0.8,0.2-0.6.2-1.1,0.3-1.7,0.5s-0.9.3-1.4,0.4c-0.3.1-.5,0.2-0.8,0.3-0.1,0-.2.1-0.3,0.1s-0.4.1-.6,0.2a8.33,8.33,0,0,1-1.5.4c-0.5.1-.9,0.3-1.4,0.4l-0.9.3c-0.3.1-.5,0.2-0.8,0.3-0.5.2-.9,0.3-1.4,0.5s-1,.3-1.4.5a1.42,1.42,0,0,1-.6.2,10.38,10.38,0,0,1-1,.4h0a10.55,10.55,0,0,1,1.9-.5c0.5-.1,1-0.3,1.5-0.4s1.1-.3,1.7-0.5,0.9-.3,1.4-0.4,1-.3,1.6-0.5a2.35,2.35,0,0,1,.8-0.2l0.9-.3c0.5-.2.9-0.3,1.4-0.5l0.9-.3c0.3-.1.5-0.2,0.8-0.3s0.3-.1.5-0.2a1.45,1.45,0,0,1,.7-0.2c0.3-.1.5-0.2,0.8-0.3a2.32,2.32,0,0,1,1-.4h0Z" transform="translate(-67.4 -57.2)"/><path class="cls-1" d="M219.1,107.1c-0.6.2-1.3,0.4-1.9,0.6-0.2.1-.3,0.1-0.5,0.2a0.2,0.2,0,0,0-.2.1c-0.3.1-.6,0.3-0.9,0.4-0.1,0-.1.1-0.2,0.1a1.06,1.06,0,0,1-.5.2,2.51,2.51,0,0,0-.7.4c-0.5.3-.9,0.5-1.4,0.8a2.09,2.09,0,0,0-.6.4c-0.1.1-.3,0.2-0.4,0.3s-0.2.1-.3,0.2-0.5.4-.7,0.6a1.21,1.21,0,0,0-.5.5,2.36,2.36,0,0,0-.5.5l-0.7.7a0.2,0.2,0,0,0-.1.2,1.51,1.51,0,0,1-.4.4,0.53,0.53,0,0,0-.2.3,0.2,0.2,0,0,0-.1.2c-0.4.5-.8,1-1.2,1.6h0c0.4-.4.8-0.9,1.2-1.3l0.3-.3,0.6-.6a6.47,6.47,0,0,1,.9-0.8c0.1-.1.3-0.2,0.4-0.3s0.3-.3.5-0.4h0l0.9-.6,0.1-.1c0.1-.1.3-0.2,0.4-0.3a0.52,0.52,0,0,1,.4-0.2c0.7-.4,1.4-0.9,2.1-1.3a4.05,4.05,0,0,1,.9-0.5c0.1-.1.3-0.1,0.4-0.2a2.19,2.19,0,0,0,.5-0.3,0.2,0.2,0,0,0,.2-0.1c0.1,0,.2-0.1.3-0.1s0.3-.1.5-0.2a2.87,2.87,0,0,1,1.4-1.1h0Z" transform="translate(-67.4 -57.2)"/><path class="cls-1" d="M225.5,116.2c-0.2.1-.5,0.1-0.8,0.2s-0.3.1-.5,0.1-0.4.1-.6,0.2a0.2,0.2,0,0,0-.2.1c-0.1.1-.3,0.1-0.4,0.2l-0.9.3-0.6.3c-0.2.1-.3,0.1-0.5,0.2a20,20,0,0,0-2.1,1c-0.6.3-1.3,0.6-2,.9-0.4.2-.8,0.3-1.2,0.5s-0.5.3-.8,0.4a0.1,0.1,0,0,0-.1.1c-0.2.1-.3,0.2-0.5,0.3s-0.3.2-.5,0.3-0.5.3-.7,0.4c-0.5.3-1,.6-1.4,0.9h0c0.6-.3,1.1-0.6,1.7-0.9,0.2-.1.5-0.3,0.7-0.4s0.6-.3.9-0.4a2.57,2.57,0,0,0,.5-0.2c0.2-.1.3-0.1,0.5-0.2,0.4-.1.7-0.3,1.1-0.4s0.7-.3,1.1-0.4a6.12,6.12,0,0,1,1.2-.5c0.7-.4,1.5-0.7,2.2-1.1a2.19,2.19,0,0,0,.5-0.3c0.1-.1.3-0.1,0.4-0.2a11.73,11.73,0,0,0,1.1-.5h0a2.27,2.27,0,0,1,.4-0.1,2.27,2.27,0,0,1,.4-0.1,3.38,3.38,0,0,1,1.1-.7h0Zm-8.6,3.4h0Z" transform="translate(-67.4 -57.2)"/><path class="cls-1" d="M222.2,125.4a2.57,2.57,0,0,0-.5.2c-0.2.1-.4,0.1-0.6,0.2-0.4.2-.9,0.3-1.3,0.5-0.8.3-1.6,0.7-2.4,1-0.3.1-.7,0.3-1,0.4a10.09,10.09,0,0,0-1.5.7h0c0.6-.2,1.1-0.4,1.7-0.6s1.1-.4,1.7-0.6,0.9-.3,1.4-0.5c0.2-.1.5-0.2,0.7-0.3l0.9-.3c0.1,0,.2-0.1.3-0.1s0.3-.1.5-0.2a1.88,1.88,0,0,1,.8-0.2c0.2-.1.5-0.1,0.7-0.2s0.5-.1.7-0.2c0.5-.1,1-0.3,1.6-0.4a12.86,12.86,0,0,1,1.9-.4h0a23.29,23.29,0,0,0-5.6,1h0Zm-4.9,1.9h0Z" transform="translate(-67.4 -57.2)"/><path class="cls-1" d="M229.5,131.9a1.45,1.45,0,0,1-.7.2c-0.2.1-.3,0.1-0.5,0.2l-0.6.3-0.6.3a2.51,2.51,0,0,0-.7.4l-1.5.9-0.6.3a0.35,0.35,0,0,0-.2.1c-0.1.1-.3,0.1-0.4,0.2a4.87,4.87,0,0,1-.7.3h-0.1a0.35,0.35,0,0,0-.2.1,2.27,2.27,0,0,1-.4.1h-0.1a0.37,0.37,0,0,0-.3.1,2.27,2.27,0,0,1-.4.1h-0.4a9.69,9.69,0,0,1-.9.2h-0.4c-0.5,0-1,.1-1.5.1h2.3c0.2,0,.5-0.1.7-0.1h0.2c0.2,0,.3-0.1.5-0.1h0.2c0.2,0,.3-0.1.5-0.1a6.37,6.37,0,0,1,.7-0.2l0.6-.3c0.1,0,.1-0.1.2-0.1s0.3-.1.4-0.2a2.19,2.19,0,0,0,.5-0.3c0.4-.3.8-0.5,1.2-0.8,0.1,0,.1-0.1.2-0.1s0.3-.2.5-0.3,0.3-.2.5-0.3l0.6-.3a1.06,1.06,0,0,1,.5-0.2c0.5-.3.7-0.4,0.9-0.5h0Zm-5.9,2.8h0Z" transform="translate(-67.4 -57.2)"/><path class="cls-1" d="M229,141l-2.7.3a4.25,4.25,0,0,0-1.1.2c-0.4.1-.8,0.1-1.2,0.2h0c-0.3,0-.5.1-0.8,0.1s-0.5.1-.8,0.1-0.5.1-.8,0.2a5.64,5.64,0,0,0-1.2.4h0l1.3-.3a2.77,2.77,0,0,1,.9-0.1c0.2,0,.5-0.1.7-0.1a2.2,2.2,0,0,0,.8-0.1c0.2,0,.5-0.1.7-0.1s0.5-.1.8-0.1,0.5-.1.8-0.1,0.5-.1.8-0.1a9.47,9.47,0,0,1,1.8-.5h0Zm-6.4,1h0Z" transform="translate(-67.4 -57.2)"/><path class="cls-1" d="M227.2,148.2c-0.2,0-.3.1-0.5,0.1s-0.6.1-.9,0.2c-0.5.1-1,.3-1.5,0.4-0.2.1-.3,0.1-0.5,0.2a2.27,2.27,0,0,1-.4.1,0.35,0.35,0,0,0-.2.1h-0.1c-0.1.1-.3,0.1-0.4,0.2s-0.2.1-.3,0.2a0.1,0.1,0,0,0-.1.1c-0.1.1-.2,0.1-0.3,0.2a3.59,3.59,0,0,0-1,.7h0a8.27,8.27,0,0,0,1.3-.7c0.3-.1.6-0.3,0.9-0.4s0.4-.1.6-0.2,0.4-.1.6-0.2,0.6-.2,1-0.3a3.58,3.58,0,0,0,1.1-.4,0.9,0.9,0,0,1,.5-0.1,0.38,0.38,0,0,1,.2-0.2,1.7,1.7,0,0,0,.7-0.1h0a1.7,1.7,0,0,0-.7.1h0Zm-3.9,1.3h0Z" transform="translate(-67.4 -57.2)"/><path class="cls-1" d="M224.8,152.4c-0.2,0-.4.1-0.7,0.1a1.45,1.45,0,0,0-.7.2,2.57,2.57,0,0,0-.5.2,2.09,2.09,0,0,0-.6.4c-0.1.1-.3,0.2-0.4,0.3a2.18,2.18,0,0,0-.5.4h0a9.15,9.15,0,0,1,1.7-.9h0a6.47,6.47,0,0,1,1.3-.4,9.36,9.36,0,0,0,1.6-.4h0c-0.4,0-.8.1-1.2,0.1h0Z" transform="translate(-67.4 -57.2)"/><path class="cls-1" d="M93.5,130.6h-1a0.6,0.6,0,0,0-.4.1,2.54,2.54,0,0,0-.7.2,4.88,4.88,0,0,1-.7.3c-0.2.1-.3,0.2-0.5,0.3a0.38,0.38,0,0,0-.2.2l-0.3.3a0.53,0.53,0,0,0-.2.3c-0.1.1-.1,0.2-0.2,0.3a1.45,1.45,0,0,0-.2.7c0,0.2-.1.5-0.1,0.7v0.7a1.7,1.7,0,0,0,.1.7,2.35,2.35,0,0,0,.2.8,3.38,3.38,0,0,0,.6,1.2,2.18,2.18,0,0,0,.4.5l0.2,0.2,0.1,0.1a0.1,0.1,0,0,1,.1.1c0.1,0.1.2,0.1,0.3,0.2a0.35,0.35,0,0,1,.2.1,0.1,0.1,0,0,1,.1.1c0.1,0,.2.1,0.3,0.1s0.4,0.1.6,0.1h1c0.2,0,.4-0.1.6-0.1s0.4-.1.6-0.2l0.6-.3a2.65,2.65,0,0,0,.6-0.5c0.1-.2.2-0.3,0.3-0.5s0.1-.2.1-0.3,0.1-.2.1-0.3,0.1-.3.1-0.4a2.49,2.49,0,0,0,.1-0.8h0a0.37,0.37,0,0,1-.1.3h0c-0.1,0-.1.1-0.2,0.1h0c-0.1,0-.2,0-0.2.1H95a2.2,2.2,0,0,1-.8-0.1H94a0.35,0.35,0,0,1-.2-0.1h0c-0.1,0-.1-0.1-0.2-0.1l-0.1-.1h0l-0.2-.2h0c0-.1-0.1-0.1-0.1-0.2v-0.5h0a2.27,2.27,0,0,0,.1-0.4,0.35,0.35,0,0,1,.1-0.2l0.3-.3c0.1-.1.3-0.2,0.4-0.3h0.5a0.37,0.37,0,0,1,.3.1,0.35,0.35,0,0,1,.2.1h0a0.38,0.38,0,0,1,.2.2,0.53,0.53,0,0,1,.2.3,0.38,0.38,0,0,0,.2.2c0,0.1.1,0.1,0.1,0.2l0.1,0.1h0.2l0.1-.1v-0.9a1.7,1.7,0,0,0-.1-0.7,0.52,0.52,0,0,0-.2-0.4c0-.1-0.1-0.1-0.1-0.2s-0.1-.1-0.1-0.2l-0.5-.5a2.65,2.65,0,0,0-.6-0.5,0.53,0.53,0,0,0-.3-0.2,0.37,0.37,0,0,0-.3-0.1,1.27,1.27,0,0,0-.6-0.1c0.3-.3.2-0.2,0.1-0.2h0Zm0.7,2.6h0Zm0,0h0Zm2,0.3h0Zm-2.9.5h0Zm3,1.5h0Zm-1.9.1h0Zm1.3,1.6h0Z" transform="translate(-67.4 -57.2)"/></g></svg>